Veleka-Bold.ufo
<glyph name="dollar" format="1">
  <advance width="586"/>
  <unicode hex="0024"/>
  <outline>
    <contour>
      <point x="534" y="205" type="curve" smooth="yes"/>
      <point x="534" y="91"/>
      <point x="445" y="19"/>
      <point x="318" y="1" type="curve"/>
      <point x="318" y="-102" type="line"/>
      <point x="259" y="-102" type="line"/>
      <point x="259" y="0" type="line"/>
      <point x="259" y="0"/>
      <point x="140" y="5"/>
      <point x="54" y="33" type="curve"/>
      <point x="54" y="206" type="line"/>
      <point x="125" y="206" type="line"/>
      <point x="146" y="89" type="line"/>
      <point x="187" y="63"/>
      <point x="259" y="62"/>
      <point x="259" y="62" type="curve"/>
      <point x="259" y="282" type="line"/>
      <point x="184" y="304"/>
      <point x="60" y="342"/>
      <point x="60" y="477" type="curve" smooth="yes"/>
      <point x="60" y="660"/>
      <point x="259" y="668"/>
      <point x="259" y="668" type="curve"/>
      <point x="259" y="742" type="line"/>
      <point x="318" y="742" type="line"/>
      <point x="318" y="668" type="line"/>
      <point x="399" y="668"/>
      <point x="499" y="639"/>
      <point x="499" y="639" type="curve"/>
      <point x="499" y="472" type="line"/>
      <point x="430" y="472" type="line"/>
      <point x="411" y="583" type="line" smooth="yes"/>
      <point x="409" y="592"/>
      <point x="333" y="607"/>
      <point x="318" y="607" type="curve"/>
      <point x="318" y="401" type="line"/>
      <point x="384" y="383"/>
      <point x="534" y="345"/>
    </contour>
    <contour>
      <point x="259" y="415" type="curve"/>
      <point x="259" y="604" type="line"/>
      <point x="259" y="604"/>
      <point x="187" y="599"/>
      <point x="187" y="513" type="curve" smooth="yes"/>
      <point x="187" y="432"/>
      <point x="259" y="415"/>
    </contour>
    <contour>
      <point x="407" y="169" type="curve" smooth="yes"/>
      <point x="407" y="235"/>
      <point x="352" y="258"/>
      <point x="318" y="267" type="curve"/>
      <point x="318" y="65" type="line"/>
      <point x="318" y="65"/>
      <point x="407" y="72"/>
    </contour>
  </outline>
</glyph>
<glyph name="ampersand" format="1">
  <advance width="734"/>
  <unicode hex="0026"/>
  <outline>
    <contour>
      <point x="719" y="0" type="line"/>
      <point x="501" y="0" type="line"/>
      <point x="501" y="24" type="line"/>
      <point x="459" y="71" type="line"/>
      <point x="459" y="71"/>
      <point x="383" y="-12"/>
      <point x="254" y="-12" type="curve" smooth="yes"/>
      <point x="125" y="-12"/>
      <point x="38" y="66"/>
      <point x="38" y="184" type="curve" smooth="yes"/>
      <point x="38" y="279"/>
      <point x="95" y="329"/>
      <point x="179" y="356" type="curve"/>
      <point x="175" y="359"/>
      <point x="86" y="416"/>
      <point x="86" y="514" type="curve" smooth="yes"/>
      <point x="86" y="625"/>
      <point x="185" y="684"/>
      <point x="303" y="684" type="curve" smooth="yes"/>
      <point x="381" y="684"/>
      <point x="501" y="651"/>
      <point x="501" y="527" type="curve" smooth="yes"/>
      <point x="501" y="393"/>
      <point x="364" y="364"/>
      <point x="351" y="362" type="curve"/>
      <point x="505" y="202" type="line"/>
      <point x="505" y="202"/>
      <point x="546" y="252"/>
      <point x="558" y="314" type="curve" smooth="yes"/>
      <point x="559" y="320"/>
      <point x="552" y="330"/>
      <point x="548" y="331" type="curve" smooth="yes"/>
      <point x="496" y="340" type="line"/>
      <point x="496" y="387" type="line"/>
      <point x="706" y="387" type="line"/>
      <point x="706" y="340" type="line"/>
      <point x="637" y="326" type="line"/>
      <point x="605" y="221"/>
      <point x="544" y="160"/>
      <point x="544" y="160" type="curve"/>
      <point x="638" y="59" type="line"/>
      <point x="719" y="51" type="line"/>
    </contour>
    <contour>
      <point x="418" y="114" type="curve"/>
      <point x="220" y="321" type="line"/>
      <point x="220" y="321"/>
      <point x="173" y="293"/>
      <point x="173" y="230" type="curve" smooth="yes"/>
      <point x="173" y="116"/>
      <point x="249" y="74"/>
      <point x="320" y="74" type="curve" smooth="yes"/>
      <point x="387" y="74"/>
      <point x="418" y="114"/>
    </contour>
    <contour>
      <point x="377" y="525" type="curve" smooth="yes"/>
      <point x="377" y="580"/>
      <point x="347" y="624"/>
      <point x="298" y="624" type="curve" smooth="yes"/>
      <point x="252" y="624"/>
      <point x="218" y="592"/>
      <point x="218" y="546" type="curve" smooth="yes"/>
      <point x="218" y="502"/>
      <point x="244" y="461"/>
      <point x="313" y="398" type="curve"/>
      <point x="354" y="435"/>
      <point x="377" y="468"/>
    </contour>
  </outline>
</glyph>
<glyph name="quotesingle" format="1">
  <advance width="175"/>
  <unicode hex="0027"/>
  <outline>
    <contour>
      <point x="106" y="417" type="line"/>
      <point x="70" y="417" type="line"/>
      <point x="31" y="651" type="line"/>
      <point x="31" y="688"/>
      <point x="47" y="714"/>
      <point x="88" y="714" type="curve" smooth="yes"/>
      <point x="128" y="714"/>
      <point x="146" y="688"/>
      <point x="146" y="651" type="curve"/>
    </contour>
  </outline>
</glyph>
<glyph name="asterisk" format="1">
  <advance width="500"/>
  <unicode hex="002A"/>
  <outline>
    <contour>
      <point x="447" y="571" type="line"/>
      <point x="403" y="506" type="line"/>
      <point x="274" y="507" type="line"/>
      <point x="267" y="522" type="line"/>
      <point x="373" y="600" type="line"/>
    </contour>
    <contour>
      <point x="300" y="658" type="line"/>
      <point x="258" y="533" type="line"/>
      <point x="241" y="533" type="line"/>
      <point x="200" y="658" type="line"/>
      <point x="250" y="718" type="line"/>
    </contour>
    <contour>
      <point x="375" y="416" type="line"/>
      <point x="372" y="338" type="line"/>
      <point x="296" y="358" type="line"/>
      <point x="256" y="482" type="line"/>
      <point x="268" y="494" type="line"/>
    </contour>
    <contour>
      <point x="232" y="521" type="line"/>
      <point x="226" y="507" type="line"/>
      <point x="96" y="506" type="line"/>
      <point x="53" y="571" type="line"/>
      <point x="125" y="600" type="line"/>
    </contour>
    <contour>
      <point x="244" y="482" type="line"/>
      <point x="204" y="358" type="line"/>
      <point x="128" y="338" type="line"/>
      <point x="125" y="416" type="line"/>
      <point x="232" y="494" type="line"/>
    </contour>
  </outline>
</glyph>
<glyph name="four" format="1">
  <advance width="586"/>
  <unicode hex="0034"/>
  <outline>
    <contour>
      <point x="552" y="188" type="line"/>
      <point x="470" y="188" type="line"/>
      <point x="470" y="-16" type="line"/>
      <point x="343" y="-16" type="line"/>
      <point x="343" y="187" type="line"/>
      <point x="36" y="187" type="line"/>
      <point x="36" y="273" type="line"/>
      <point x="362" y="687" type="line"/>
      <point x="470" y="687" type="line"/>
      <point x="470" y="269" type="line"/>
      <point x="552" y="269" type="line"/>
    </contour>
    <contour>
      <point x="343" y="269" type="line"/>
      <point x="343" y="532" type="line"/>
      <point x="133" y="269" type="line"/>
    </contour>
  </outline>
</glyph>
<glyph name="five" format="1">
  <advance width="586"/>
  <unicode hex="0035"/>
  <outline>
    <contour>
      <point x="547" y="227" type="curve" smooth="yes"/>
      <point x="547" y="76"/>
      <point x="401" y="-16"/>
      <point x="248" y="-16" type="curve" smooth="yes"/>
      <point x="146" y="-16"/>
      <point x="41" y="29"/>
      <point x="41" y="115" type="curve" smooth="yes"/>
      <point x="41" y="145"/>
      <point x="66" y="180"/>
      <point x="114" y="180" type="curve" smooth="yes"/>
      <point x="127" y="180"/>
      <point x="141" y="177"/>
      <point x="159" y="171" type="curve"/>
      <point x="191" y="52" type="line"/>
      <point x="191" y="52"/>
      <point x="233" y="44"/>
      <point x="243" y="44" type="curve" smooth="yes"/>
      <point x="359" y="44"/>
      <point x="404" y="146"/>
      <point x="404" y="193" type="curve" smooth="yes"/>
      <point x="404" y="282"/>
      <point x="324" y="337"/>
      <point x="226" y="337" type="curve" smooth="yes"/>
      <point x="158" y="337"/>
      <point x="79" y="321"/>
      <point x="79" y="321" type="curve"/>
      <point x="79" y="671" type="line"/>
      <point x="509" y="671" type="line"/>
      <point x="509" y="560" type="line"/>
      <point x="164" y="560" type="line"/>
      <point x="164" y="399" type="line"/>
      <point x="164" y="399"/>
      <point x="235" y="423"/>
      <point x="302" y="423" type="curve" smooth="yes"/>
      <point x="445" y="423"/>
      <point x="547" y="343"/>
    </contour>
  </outline>
</glyph>
<glyph name="seven" format="1">
  <advance width="586"/>
  <unicode hex="0037"/>
  <outline>
    <contour>
      <point x="549" y="600" type="line"/>
      <point x="212" y="14" type="line"/>
      <point x="212" y="-16" type="line"/>
      <point x="84" y="-16" type="line"/>
      <point x="411" y="551" type="line"/>
      <point x="122" y="551" type="line"/>
      <point x="106" y="458" type="line"/>
      <point x="37" y="458" type="line"/>
      <point x="37" y="671" type="line"/>
      <point x="549" y="671" type="line"/>
    </contour>
  </outline>
</glyph>
<glyph name="colon" format="1">
  <advance width="317"/>
  <unicode hex="003A"/>
  <outline>
    <contour>
      <point x="230" y="71" type="curve" smooth="yes"/>
      <point x="230" y="25"/>
      <point x="194" y="-12"/>
      <point x="147" y="-12" type="curve" smooth="yes"/>
      <point x="101" y="-12"/>
      <point x="63" y="25"/>
      <point x="63" y="71" type="curve" smooth="yes"/>
      <point x="63" y="117"/>
      <point x="101" y="155"/>
      <point x="147" y="155" type="curve" smooth="yes"/>
      <point x="194" y="155"/>
      <point x="230" y="117"/>
    </contour>
    <contour>
      <point x="230" y="416" type="curve" smooth="yes"/>
      <point x="230" y="369"/>
      <point x="194" y="333"/>
      <point x="147" y="333" type="curve" smooth="yes"/>
      <point x="101" y="333"/>
      <point x="63" y="369"/>
      <point x="63" y="416" type="curve" smooth="yes"/>
      <point x="63" y="462"/>
      <point x="101" y="500"/>
      <point x="147" y="500" type="curve" smooth="yes"/>
      <point x="194" y="500"/>
      <point x="230" y="462"/>
    </contour>
  </outline>
</glyph>
<glyph name="question" format="1">
  <advance width="521"/>
  <unicode hex="003F"/>
  <outline>
    <contour>
      <point x="458" y="497" type="curve" smooth="yes"/>
      <point x="458" y="327"/>
      <point x="241" y="283"/>
      <point x="241" y="283" type="curve"/>
      <point x="241" y="198" type="line"/>
      <point x="173" y="198" type="line"/>
      <point x="173" y="331" type="line"/>
      <point x="173" y="331"/>
      <point x="318" y="362"/>
      <point x="318" y="499" type="curve" smooth="yes"/>
      <point x="318" y="574"/>
      <point x="275" y="626"/>
      <point x="187" y="626" type="curve"/>
      <point x="142" y="506" type="line"/>
      <point x="142" y="506"/>
      <point x="140" y="504"/>
      <point x="130" y="504" type="curve" smooth="yes"/>
      <point x="104" y="504"/>
      <point x="44" y="506"/>
      <point x="44" y="568" type="curve" smooth="yes"/>
      <point x="44" y="655"/>
      <point x="150" y="687"/>
      <point x="231" y="687" type="curve" smooth="yes"/>
      <point x="360" y="687"/>
      <point x="458" y="613"/>
    </contour>
    <contour>
      <point x="289" y="65" type="curve" smooth="yes"/>
      <point x="289" y="21"/>
      <point x="251" y="-12"/>
      <point x="207" y="-12" type="curve" smooth="yes"/>
      <point x="164" y="-12"/>
      <point x="131" y="26"/>
      <point x="131" y="69" type="curve" smooth="yes"/>
      <point x="131" y="113"/>
      <point x="165" y="149"/>
      <point x="208" y="149" type="curve" smooth="yes"/>
      <point x="256" y="149"/>
      <point x="289" y="110"/>
    </contour>
  </outline>
</glyph>
<glyph name="J" format="1">
  <advance width="512"/>
  <unicode hex="004A"/>
  <outline>
    <contour>
      <point x="490" y="620" type="line"/>
      <point x="429" y="615" type="line" smooth="yes"/>
      <point x="417" y="614"/>
      <point x="407" y="606"/>
      <point x="407" y="593" type="curve" smooth="yes"/>
      <point x="407" y="242" type="line" smooth="yes"/>
      <point x="407" y="88"/>
      <point x="337" y="-16"/>
      <point x="173" y="-16" type="curve" smooth="yes"/>
      <point x="118" y="-16"/>
      <point x="55" y="1"/>
      <point x="24" y="12" type="curve"/>
      <point x="24" y="195" type="line"/>
      <point x="102" y="195" type="line"/>
      <point x="125" y="61" type="line"/>
      <point x="125" y="61"/>
      <point x="130" y="44"/>
      <point x="151" y="44" type="curve" smooth="yes"/>
      <point x="225" y="44"/>
      <point x="265" y="94"/>
      <point x="265" y="245" type="curve" smooth="yes"/>
      <point x="265" y="593" type="line" smooth="yes"/>
      <point x="265" y="606"/>
      <point x="254" y="614"/>
      <point x="243" y="615" type="curve" smooth="yes"/>
      <point x="181" y="620" type="line"/>
      <point x="181" y="671" type="line"/>
      <point x="490" y="671" type="line"/>
    </contour>
  </outline>
</glyph>
<glyph name="P" format="1">
  <advance width="611"/>
  <unicode hex="0050"/>
  <outline>
    <contour>
      <point x="575" y="468" type="curve" smooth="yes"/>
      <point x="575" y="297"/>
      <point x="441" y="246"/>
      <point x="313" y="246" type="curve" smooth="yes"/>
      <point x="294" y="246"/>
      <point x="274" y="245"/>
      <point x="247" y="248" type="curve"/>
      <point x="247" y="78" type="line" smooth="yes"/>
      <point x="247" y="65"/>
      <point x="257" y="57"/>
      <point x="269" y="56" type="curve" smooth="yes"/>
      <point x="332" y="51" type="line"/>
      <point x="332" y="0" type="line"/>
      <point x="26" y="0" type="line"/>
      <point x="26" y="51" type="line"/>
      <point x="81" y="56" type="line" smooth="yes"/>
      <point x="93" y="57"/>
      <point x="104" y="65"/>
      <point x="104" y="78" type="curve" smooth="yes"/>
      <point x="104" y="593" type="line" smooth="yes"/>
      <point x="104" y="606"/>
      <point x="93" y="614"/>
      <point x="81" y="615" type="curve" smooth="yes"/>
      <point x="23" y="620" type="line"/>
      <point x="23" y="671" type="line"/>
      <point x="303" y="671" type="line" smooth="yes"/>
      <point x="438" y="671"/>
      <point x="575" y="644"/>
    </contour>
    <contour>
      <point x="426" y="463" type="curve" smooth="yes"/>
      <point x="426" y="556"/>
      <point x="377" y="610"/>
      <point x="303" y="610" type="curve" smooth="yes"/>
      <point x="247" y="610" type="line"/>
      <point x="247" y="308" type="line"/>
      <point x="262" y="307"/>
      <point x="265" y="307"/>
      <point x="274" y="307" type="curve" smooth="yes"/>
      <point x="366" y="308"/>
      <point x="426" y="349"/>
    </contour>
  </outline>
</glyph>
<glyph name="T" format="1">
  <advance width="608"/>
  <unicode hex="0054"/>
  <outline>
    <contour>
      <point x="593" y="488" type="line"/>
      <point x="520" y="488" type="line"/>
      <point x="502" y="599" type="line" smooth="yes"/>
      <point x="501" y="607"/>
      <point x="496" y="611"/>
      <point x="488" y="611" type="curve" smooth="yes"/>
      <point x="376" y="611" type="line"/>
      <point x="376" y="78" type="line" smooth="yes"/>
      <point x="376" y="65"/>
      <point x="386" y="57"/>
      <point x="398" y="56" type="curve" smooth="yes"/>
      <point x="457" y="51" type="line"/>
      <point x="457" y="0" type="line"/>
      <point x="152" y="0" type="line"/>
      <point x="152" y="51" type="line"/>
      <point x="210" y="56" type="line" smooth="yes"/>
      <point x="222" y="57"/>
      <point x="233" y="65"/>
      <point x="233" y="78" type="curve" smooth="yes"/>
      <point x="233" y="611" type="line"/>
      <point x="121" y="611" type="line" smooth="yes"/>
      <point x="113" y="611"/>
      <point x="107" y="607"/>
      <point x="106" y="599" type="curve" smooth="yes"/>
      <point x="88" y="488" type="line"/>
      <point x="16" y="488" type="line"/>
      <point x="16" y="671" type="line"/>
      <point x="593" y="671" type="line"/>
    </contour>
  </outline>
</glyph>
<glyph name="k" format="1">
  <advance width="591"/>
  <unicode hex="006B"/>
  <outline>
    <contour>
      <point x="582" y="0" type="line"/>
      <point x="380" y="0" type="line"/>
      <point x="380" y="41" type="line"/>
      <point x="270" y="226" type="line"/>
      <point x="223" y="226" type="line"/>
      <point x="223" y="73" type="line" smooth="yes"/>
      <point x="223" y="61"/>
      <point x="232" y="51"/>
      <point x="245" y="50" type="curve" smooth="yes"/>
      <point x="285" y="47" type="line"/>
      <point x="285" y="0" type="line"/>
      <point x="26" y="0" type="line"/>
      <point x="26" y="47" type="line"/>
      <point x="68" y="50" type="line" smooth="yes"/>
      <point x="80" y="51"/>
      <point x="90" y="61"/>
      <point x="90" y="73" type="curve" smooth="yes"/>
      <point x="90" y="649" type="line"/>
      <point x="20" y="649" type="line"/>
      <point x="20" y="690" type="line"/>
      <point x="172" y="740" type="line"/>
      <point x="223" y="740" type="line"/>
      <point x="223" y="260" type="line"/>
      <point x="245" y="260" type="line"/>
      <point x="379" y="420" type="line" smooth="yes"/>
      <point x="385" y="427"/>
      <point x="382" y="436"/>
      <point x="372" y="437" type="curve" smooth="yes"/>
      <point x="334" y="441" type="line"/>
      <point x="334" y="488" type="line"/>
      <point x="542" y="488" type="line"/>
      <point x="542" y="441" type="line"/>
      <point x="476" y="433" type="line"/>
      <point x="369" y="311" type="line"/>
      <point x="523" y="52" type="line"/>
      <point x="582" y="47" type="line"/>
    </contour>
  </outline>
</glyph>
<glyph name="exclamdown" format="1">
  <advance width="339"/>
  <unicode hex="00A1"/>
  <outline>
    <contour>
      <point x="250" y="418" type="curve" smooth="yes"/>
      <point x="250" y="366"/>
      <point x="207" y="339"/>
      <point x="169" y="339" type="curve" smooth="yes"/>
      <point x="132" y="339"/>
      <point x="89" y="369"/>
      <point x="89" y="418" type="curve" smooth="yes"/>
      <point x="89" y="464"/>
      <point x="126" y="500"/>
      <point x="169" y="500" type="curve" smooth="yes"/>
      <point x="202" y="500"/>
      <point x="250" y="477"/>
    </contour>
    <contour>
      <point x="251" y="-118" type="line"/>
      <point x="251" y="-173"/>
      <point x="214" y="-199"/>
      <point x="169" y="-199" type="curve" smooth="yes"/>
      <point x="125" y="-199"/>
      <point x="88" y="-174"/>
      <point x="88" y="-118" type="curve"/>
      <point x="142" y="280" type="line"/>
      <point x="196" y="280" type="line"/>
    </contour>
  </outline>
</glyph>
<glyph name="copyright" format="1">
  <advance width="836"/>
  <unicode hex="00A9"/>
  <outline>
    <contour>
      <point x="588" y="139" type="line"/>
      <point x="588" y="139"/>
      <point x="529" y="114"/>
      <point x="443" y="114" type="curve" smooth="yes"/>
      <point x="302" y="114"/>
      <point x="200" y="201"/>
      <point x="200" y="350" type="curve" smooth="yes"/>
      <point x="200" y="479"/>
      <point x="293" y="585"/>
      <point x="447" y="585" type="curve" smooth="yes"/>
      <point x="537" y="585"/>
      <point x="588" y="558"/>
      <point x="588" y="558" type="curve"/>
      <point x="588" y="437" type="line"/>
      <point x="532" y="437" type="line"/>
      <point x="518" y="517" type="line"/>
      <point x="518" y="517"/>
      <point x="500" y="535"/>
      <point x="461" y="535" type="curve" smooth="yes"/>
      <point x="355" y="535"/>
      <point x="314" y="435"/>
      <point x="314" y="348" type="curve" smooth="yes"/>
      <point x="314" y="243"/>
      <point x="368" y="164"/>
      <point x="458" y="164" type="curve" smooth="yes"/>
      <point x="494" y="164"/>
      <point x="518" y="178"/>
      <point x="518" y="178" type="curve"/>
      <point x="532" y="264" type="line"/>
      <point x="588" y="264" type="line"/>
    </contour>
    <contour>
      <point x="806" y="350" type="curve" smooth="yes"/>
      <point x="806" y="135"/>
      <point x="632" y="-39"/>
      <point x="417" y="-39" type="curve" smooth="yes"/>
      <point x="206" y="-39"/>
      <point x="32" y="135"/>
      <point x="32" y="350" type="curve" smooth="yes"/>
      <point x="32" y="564"/>
      <point x="205" y="739"/>
      <point x="419" y="739" type="curve" smooth="yes"/>
      <point x="631" y="739"/>
      <point x="806" y="565"/>
    </contour>
    <contour>
      <point x="758" y="350" type="curve" smooth="yes"/>
      <point x="758" y="539"/>
      <point x="606" y="692"/>
      <point x="419" y="692" type="curve" smooth="yes"/>
      <point x="234" y="692"/>
      <point x="80" y="541"/>
      <point x="80" y="348" type="curve" smooth="yes"/>
      <point x="80" y="162"/>
      <point x="231" y="8"/>
      <point x="418" y="8" type="curve" smooth="yes"/>
      <point x="606" y="8"/>
      <point x="758" y="163"/>
    </contour>
  </outline>
</glyph>
<glyph name="logicalnot" format="1">
  <advance width="620"/>
  <unicode hex="00AC"/>
  <outline>
    <contour>
      <point x="580" y="189" type="line"/>
      <point x="520" y="189" type="line"/>
      <point x="520" y="360" type="line"/>
      <point x="40" y="360" type="line"/>
      <point x="40" y="420" type="line"/>
      <point x="580" y="420" type="line"/>
    </contour>
  </outline>
</glyph>
<glyph name="registered" format="1">
  <advance width="836"/>
  <unicode hex="00AE"/>
  <outline>
    <contour>
      <point x="806" y="350" type="curve" smooth="yes"/>
      <point x="806" y="135"/>
      <point x="632" y="-39"/>
      <point x="417" y="-39" type="curve" smooth="yes"/>
      <point x="206" y="-39"/>
      <point x="32" y="135"/>
      <point x="32" y="350" type="curve" smooth="yes"/>
      <point x="32" y="564"/>
      <point x="205" y="739"/>
      <point x="419" y="739" type="curve" smooth="yes"/>
      <point x="631" y="739"/>
      <point x="806" y="565"/>
    </contour>
    <contour>
      <point x="758" y="350" type="curve" smooth="yes"/>
      <point x="758" y="539"/>
      <point x="606" y="692"/>
      <point x="419" y="692" type="curve" smooth="yes"/>
      <point x="234" y="692"/>
      <point x="80" y="541"/>
      <point x="80" y="348" type="curve" smooth="yes"/>
      <point x="80" y="162"/>
      <point x="231" y="8"/>
      <point x="418" y="8" type="curve" smooth="yes"/>
      <point x="606" y="8"/>
      <point x="758" y="163"/>
    </contour>
    <contour>
      <point x="653" y="142" type="line"/>
      <point x="623" y="138"/>
      <point x="607" y="138"/>
      <point x="591" y="138" type="curve" smooth="yes"/>
      <point x="417" y="138"/>
      <point x="497" y="333"/>
      <point x="366" y="333" type="curve" smooth="yes"/>
      <point x="361" y="333"/>
      <point x="360" y="334"/>
      <point x="353" y="334" type="curve"/>
      <point x="353" y="193" type="line" smooth="yes"/>
      <point x="353" y="184"/>
      <point x="360" y="178"/>
      <point x="368" y="178" type="curve" smooth="yes"/>
      <point x="405" y="175" type="line"/>
      <point x="405" y="142" type="line"/>
      <point x="207" y="142" type="line"/>
      <point x="207" y="175" type="line"/>
      <point x="242" y="178" type="line" smooth="yes"/>
      <point x="249" y="178"/>
      <point x="257" y="184"/>
      <point x="257" y="193" type="curve" smooth="yes"/>
      <point x="257" y="529" type="line" smooth="yes"/>
      <point x="257" y="537"/>
      <point x="249" y="542"/>
      <point x="242" y="543" type="curve" smooth="yes"/>
      <point x="207" y="547" type="line"/>
      <point x="207" y="580" type="line"/>
      <point x="429" y="580" type="line" smooth="yes"/>
      <point x="477" y="580"/>
      <point x="573" y="564"/>
      <point x="573" y="471" type="curve" smooth="yes"/>
      <point x="573" y="383"/>
      <point x="492" y="362"/>
      <point x="457" y="357" type="curve"/>
      <point x="604" y="327"/>
      <point x="513" y="158"/>
      <point x="653" y="175" type="curve"/>
    </contour>
    <contour>
      <point x="473" y="448" type="curve" smooth="yes"/>
      <point x="473" y="503"/>
      <point x="438" y="530"/>
      <point x="374" y="530" type="curve" smooth="yes"/>
      <point x="353" y="530" type="line"/>
      <point x="353" y="362" type="line"/>
      <point x="364" y="361"/>
      <point x="371" y="361"/>
      <point x="375" y="361" type="curve" smooth="yes"/>
      <point x="415" y="361"/>
      <point x="473" y="374"/>
    </contour>
  </outline>
</glyph>
<glyph name="cedilla" format="1">
  <advance width="246"/>
  <unicode hex="00B8"/>
  <outline>
    <contour>
      <point x="246" y="-131" type="curve" smooth="yes"/>
      <point x="246" y="-196"/>
      <point x="194" y="-231"/>
      <point x="123" y="-231" type="curve" smooth="yes"/>
      <point x="82" y="-231"/>
      <point x="42" y="-220"/>
      <point x="42" y="-220" type="curve"/>
      <point x="42" y="-170" type="line"/>
      <point x="42" y="-170"/>
      <point x="81" y="-178"/>
      <point x="105" y="-178" type="curve" smooth="yes"/>
      <point x="131" y="-178"/>
      <point x="164" y="-172"/>
      <point x="164" y="-144" type="curve" smooth="yes"/>
      <point x="164" y="-120"/>
      <point x="143" y="-110"/>
      <point x="120" y="-110" type="curve" smooth="yes"/>
      <point x="113" y="-110"/>
      <point x="98" y="-112"/>
      <point x="98" y="-112" type="curve"/>
      <point x="98" y="25" type="line"/>
      <point x="148" y="25" type="line"/>
      <point x="148" y="-54" type="line"/>
      <point x="148" y="-54"/>
      <point x="152" y="-55"/>
      <point x="162" y="-55" type="curve" smooth="yes"/>
      <point x="208" y="-55"/>
      <point x="246" y="-78"/>
    </contour>
  </outline>
</glyph>
<glyph name="Agrave" format="1">
  <advance width="686"/>
  <unicode hex="00C0"/>
  <outline>
    <contour>
      <point x="681" y="0" type="line"/>
      <point x="405" y="0" type="line"/>
      <point x="405" y="51" type="line"/>
      <point x="464" y="58" type="line" smooth="yes"/>
      <point x="470" y="59"/>
      <point x="476" y="68"/>
      <point x="473" y="75" type="curve" smooth="yes"/>
      <point x="419" y="234" type="line"/>
      <point x="205" y="234" type="line"/>
      <point x="150" y="79" type="line" smooth="yes"/>
      <point x="146" y="69"/>
      <point x="157" y="59"/>
      <point x="164" y="58" type="curve" smooth="yes"/>
      <point x="220" y="51" type="line"/>
      <point x="220" y="0" type="line"/>
      <point x="5" y="0" type="line"/>
      <point x="5" y="51" type="line"/>
      <point x="61" y="59" type="line"/>
      <point x="285" y="687" type="line"/>
      <point x="399" y="687" type="line"/>
      <point x="621" y="77" type="line" smooth="yes"/>
      <point x="626" y="65"/>
      <point x="629" y="61"/>
      <point x="643" y="58" type="curve" smooth="yes"/>
      <point x="681" y="51" type="line"/>
    </contour>
    <contour>
      <point x="394" y="293" type="line"/>
      <point x="308" y="533" type="line"/>
      <point x="224" y="293" type="line"/>
    </contour>
    <contour>
      <point x="438" y="746" type="line"/>
      <point x="368" y="746" type="line"/>
      <point x="206" y="834" type="line" smooth="yes"/>
      <point x="192" y="842"/>
      <point x="181" y="863"/>
      <point x="181" y="876" type="curve" smooth="yes"/>
      <point x="181" y="900"/>
      <point x="195" y="929"/>
      <point x="238" y="929" type="curve" smooth="yes"/>
      <point x="265" y="929"/>
      <point x="278" y="922"/>
      <point x="301" y="897" type="curve" smooth="yes"/>
    </contour>
  </outline>
</glyph>
<glyph name="Idieresis" format="1">
  <advance width="358"/>
  <unicode hex="00CF"/>
  <outline>
    <contour>
      <point x="335" y="0" type="line"/>
      <point x="23" y="0" type="line"/>
      <point x="23" y="51" type="line"/>
      <point x="85" y="56" type="line" smooth="yes"/>
      <point x="97" y="57"/>
      <point x="107" y="65"/>
      <point x="107" y="78" type="curve" smooth="yes"/>
      <point x="107" y="593" type="line" smooth="yes"/>
      <point x="107" y="606"/>
      <point x="97" y="614"/>
      <point x="85" y="615" type="curve" smooth="yes"/>
      <point x="23" y="620" type="line"/>
      <point x="23" y="671" type="line"/>
      <point x="335" y="671" type="line"/>
      <point x="335" y="620" type="line"/>
      <point x="273" y="615" type="line" smooth="yes"/>
      <point x="262" y="614"/>
      <point x="250" y="606"/>
      <point x="250" y="593" type="curve" smooth="yes"/>
      <point x="250" y="78" type="line" smooth="yes"/>
      <point x="250" y="65"/>
      <point x="262" y="57"/>
      <point x="273" y="56" type="curve" smooth="yes"/>
      <point x="335" y="51" type="line"/>
    </contour>
    <contour>
      <point x="353" y="849" type="curve" smooth="yes"/>
      <point x="353" y="811"/>
      <point x="322" y="780"/>
      <point x="284" y="780" type="curve" smooth="yes"/>
      <point x="246" y="780"/>
      <point x="215" y="811"/>
      <point x="215" y="849" type="curve" smooth="yes"/>
      <point x="215" y="887"/>
      <point x="246" y="918"/>
      <point x="284" y="918" type="curve" smooth="yes"/>
      <point x="322" y="918"/>
      <point x="353" y="887"/>
    </contour>
    <contour>
      <point x="143" y="849" type="curve" smooth="yes"/>
      <point x="143" y="811"/>
      <point x="112" y="780"/>
      <point x="74" y="780" type="curve" smooth="yes"/>
      <point x="36" y="780"/>
      <point x="5" y="811"/>
      <point x="5" y="849" type="curve" smooth="yes"/>
      <point x="5" y="887"/>
      <point x="36" y="918"/>
      <point x="74" y="918" type="curve" smooth="yes"/>
      <point x="112" y="918"/>
      <point x="143" y="887"/>
    </contour>
  </outline>
</glyph>
<glyph name="Ntilde" format="1">
  <advance width="744"/>
  <unicode hex="00D1"/>
  <outline>
    <contour>
      <point x="715" y="620" type="line"/>
      <point x="661" y="615" type="line" smooth="yes"/>
      <point x="650" y="614"/>
      <point x="639" y="606"/>
      <point x="639" y="593" type="curve" smooth="yes"/>
      <point x="639" y="0" type="line"/>
      <point x="517" y="0" type="line"/>
      <point x="180" y="529" type="line"/>
      <point x="180" y="78" type="line" smooth="yes"/>
      <point x="180" y="65"/>
      <point x="191" y="57"/>
      <point x="202" y="56" type="curve" smooth="yes"/>
      <point x="258" y="51" type="line"/>
      <point x="258" y="0" type="line"/>
      <point x="27" y="0" type="line"/>
      <point x="27" y="51" type="line"/>
      <point x="82" y="56" type="line" smooth="yes"/>
      <point x="94" y="57"/>
      <point x="104" y="65"/>
      <point x="104" y="78" type="curve" smooth="yes"/>
      <point x="104" y="593" type="line" smooth="yes"/>
      <point x="104" y="606"/>
      <point x="94" y="614"/>
      <point x="82" y="615" type="curve" smooth="yes"/>
      <point x="28" y="620" type="line"/>
      <point x="28" y="671" type="line"/>
      <point x="275" y="671" type="line"/>
      <point x="275" y="644" type="line"/>
      <point x="563" y="193" type="line"/>
      <point x="563" y="593" type="line" smooth="yes"/>
      <point x="563" y="606"/>
      <point x="552" y="614"/>
      <point x="540" y="615" type="curve" smooth="yes"/>
      <point x="483" y="620" type="line"/>
      <point x="483" y="671" type="line"/>
      <point x="715" y="671" type="line"/>
    </contour>
    <contour>
      <point x="546" y="904" type="line"/>
      <point x="529" y="835"/>
      <point x="493" y="780"/>
      <point x="425" y="780" type="curve" smooth="yes"/>
      <point x="373" y="780"/>
      <point x="352" y="828"/>
      <point x="293" y="828" type="curve" smooth="yes"/>
      <point x="271" y="828"/>
      <point x="252" y="807"/>
      <point x="249" y="780" type="curve"/>
      <point x="195" y="780" type="line"/>
      <point x="212" y="849"/>
      <point x="248" y="904"/>
      <point x="315" y="904" type="curve" smooth="yes"/>
      <point x="368" y="904"/>
      <point x="389" y="857"/>
      <point x="448" y="857" type="curve" smooth="yes"/>
      <point x="469" y="857"/>
      <point x="489" y="878"/>
      <point x="492" y="904" type="curve"/>
    </contour>
  </outline>
</glyph>
<glyph name="oslash" format="1">
  <advance width="583"/>
  <unicode hex="00F8"/>
  <outline>
    <contour>
      <point x="553" y="241" type="curve" smooth="yes"/>
      <point x="553" y="92"/>
      <point x="455" y="-12"/>
      <point x="289" y="-12" type="curve" smooth="yes"/>
      <point x="250" y="-12"/>
      <point x="215" y="-6"/>
      <point x="183" y="6" type="curve"/>
      <point x="134" y="-83" type="line"/>
      <point x="90" y="-55" type="line"/>
      <point x="137" y="29" type="line"/>
      <point x="71" y="72"/>
      <point x="32" y="145"/>
      <point x="32" y="242" type="curve" smooth="yes"/>
      <point x="32" y="406"/>
      <point x="141" y="500"/>
      <point x="296" y="500" type="curve" smooth="yes"/>
      <point x="332" y="500"/>
      <point x="364" y="495"/>
      <point x="392" y="485" type="curve"/>
      <point x="442" y="574" type="line"/>
      <point x="486" y="549" type="line"/>
      <point x="439" y="465" type="line"/>
      <point x="513" y="421"/>
      <point x="553" y="341"/>
    </contour>
    <contour>
      <point x="355" y="418" type="line"/>
      <point x="339" y="434"/>
      <point x="319" y="443"/>
      <point x="292" y="443" type="curve" smooth="yes"/>
      <point x="202" y="443"/>
      <point x="182" y="332"/>
      <point x="182" y="246" type="curve" smooth="yes"/>
      <point x="182" y="210"/>
      <point x="185" y="169"/>
      <point x="195" y="134" type="curve"/>
    </contour>
    <contour>
      <point x="404" y="242" type="curve" smooth="yes"/>
      <point x="404" y="282"/>
      <point x="399" y="329"/>
      <point x="385" y="368" type="curve"/>
      <point x="223" y="77" type="line"/>
      <point x="240" y="57"/>
      <point x="262" y="44"/>
      <point x="293" y="44" type="curve" smooth="yes"/>
      <point x="384" y="44"/>
      <point x="404" y="153"/>
    </contour>
  </outline>
</glyph>
<glyph name="ugrave" format="1">
  <advance width="620"/>
  <unicode hex="00F9"/>
  <outline>
    <contour>
      <point x="597" y="0" type="line"/>
      <point x="396" y="0" type="line"/>
      <point x="396" y="55" type="line"/>
      <point x="396" y="55"/>
      <point x="311" y="-12"/>
      <point x="238" y="-12" type="curve" smooth="yes"/>
      <point x="124" y="-12"/>
      <point x="90" y="49"/>
      <point x="90" y="151" type="curve" smooth="yes"/>
      <point x="90" y="409" type="line"/>
      <point x="25" y="409" type="line"/>
      <point x="25" y="450" type="line"/>
      <point x="172" y="500" type="line"/>
      <point x="224" y="500" type="line"/>
      <point x="224" y="190" type="line" smooth="yes"/>
      <point x="224" y="141"/>
      <point x="231" y="79"/>
      <point x="316" y="79" type="curve" smooth="yes"/>
      <point x="358" y="79"/>
      <point x="396" y="96"/>
      <point x="396" y="96" type="curve"/>
      <point x="396" y="409" type="line"/>
      <point x="333" y="409" type="line"/>
      <point x="333" y="450" type="line"/>
      <point x="479" y="500" type="line"/>
      <point x="530" y="500" type="line"/>
      <point x="530" y="73" type="line" smooth="yes"/>
      <point x="530" y="61"/>
      <point x="541" y="51"/>
      <point x="553" y="50" type="curve" smooth="yes"/>
      <point x="597" y="47" type="line"/>
    </contour>
    <contour>
      <point x="409" y="551" type="line"/>
      <point x="339" y="551" type="line"/>
      <point x="177" y="639" type="line" smooth="yes"/>
      <point x="163" y="647"/>
      <point x="152" y="668"/>
      <point x="152" y="681" type="curve" smooth="yes"/>
      <point x="152" y="705"/>
      <point x="166" y="734"/>
      <point x="209" y="734" type="curve" smooth="yes"/>
      <point x="236" y="734"/>
      <point x="249" y="727"/>
      <point x="272" y="702" type="curve" smooth="yes"/>
    </contour>
  </outline>
</glyph>
<glyph name="Ccircumflex" format="1">
  <advance width="636"/>
  <unicode hex="0108"/>
  <outline>
    <contour>
      <point x="600" y="24" type="line"/>
      <point x="575" y="14"/>
      <point x="491" y="-16"/>
      <point x="388" y="-16" type="curve" smooth="yes"/>
      <point x="183" y="-16"/>
      <point x="37" y="130"/>
      <point x="37" y="336" type="curve" smooth="yes"/>
      <point x="37" y="544"/>
      <point x="191" y="687"/>
      <point x="389" y="687" type="curve" smooth="yes"/>
      <point x="465" y="687"/>
      <point x="507" y="675"/>
      <point x="600" y="645" type="curve"/>
      <point x="600" y="475" type="line"/>
      <point x="522" y="475" type="line"/>
      <point x="500" y="587" type="line" smooth="yes"/>
      <point x="500" y="590"/>
      <point x="494" y="600"/>
      <point x="487" y="603" type="curve" smooth="yes"/>
      <point x="476" y="608"/>
      <point x="441" y="619"/>
      <point x="416" y="619" type="curve" smooth="yes"/>
      <point x="279" y="619"/>
      <point x="194" y="507"/>
      <point x="194" y="334" type="curve" smooth="yes"/>
      <point x="194" y="194"/>
      <point x="256" y="49"/>
      <point x="424" y="49" type="curve" smooth="yes"/>
      <point x="448" y="49"/>
      <point x="471" y="57"/>
      <point x="482" y="62" type="curve" smooth="yes"/>
      <point x="487" y="64"/>
      <point x="497" y="75"/>
      <point x="499" y="81" type="curve" smooth="yes"/>
      <point x="521" y="199" type="line"/>
      <point x="600" y="199" type="line"/>
    </contour>
    <contour>
      <point x="542" y="746" type="line"/>
      <point x="459" y="746" type="line"/>
      <point x="373" y="841" type="line"/>
      <point x="286" y="746" type="line"/>
      <point x="203" y="746" type="line"/>
      <point x="313" y="917" type="line"/>
      <point x="432" y="917" type="line"/>
    </contour>
  </outline>
</glyph>
<glyph name="Itilde" format="1">
  <advance width="358"/>
  <unicode hex="0128"/>
  <outline>
    <contour>
      <point x="335" y="0" type="line"/>
      <point x="23" y="0" type="line"/>
      <point x="23" y="51" type="line"/>
      <point x="85" y="56" type="line" smooth="yes"/>
      <point x="97" y="57"/>
      <point x="107" y="65"/>
      <point x="107" y="78" type="curve" smooth="yes"/>
      <point x="107" y="593" type="line" smooth="yes"/>
      <point x="107" y="606"/>
      <point x="97" y="614"/>
      <point x="85" y="615" type="curve" smooth="yes"/>
      <point x="23" y="620" type="line"/>
      <point x="23" y="671" type="line"/>
      <point x="335" y="671" type="line"/>
      <point x="335" y="620" type="line"/>
      <point x="273" y="615" type="line" smooth="yes"/>
      <point x="262" y="614"/>
      <point x="250" y="606"/>
      <point x="250" y="593" type="curve" smooth="yes"/>
      <point x="250" y="78" type="line" smooth="yes"/>
      <point x="250" y="65"/>
      <point x="262" y="57"/>
      <point x="273" y="56" type="curve" smooth="yes"/>
      <point x="335" y="51" type="line"/>
    </contour>
    <contour>
      <point x="354" y="904" type="line"/>
      <point x="337" y="835"/>
      <point x="301" y="780"/>
      <point x="233" y="780" type="curve" smooth="yes"/>
      <point x="181" y="780"/>
      <point x="160" y="828"/>
      <point x="101" y="828" type="curve" smooth="yes"/>
      <point x="79" y="828"/>
      <point x="60" y="807"/>
      <point x="57" y="780" type="curve"/>
      <point x="3" y="780" type="line"/>
      <point x="20" y="849"/>
      <point x="56" y="904"/>
      <point x="123" y="904" type="curve" smooth="yes"/>
      <point x="176" y="904"/>
      <point x="197" y="857"/>
      <point x="256" y="857" type="curve" smooth="yes"/>
      <point x="277" y="857"/>
      <point x="297" y="878"/>
      <point x="300" y="904" type="curve"/>
    </contour>
  </outline>
</glyph>
<glyph name="ncedilla" format="1">
  <advance width="625"/>
  <unicode hex="0146"/>
  <outline>
    <contour>
      <point x="589" y="0" type="line"/>
      <point x="343" y="0" type="line"/>
      <point x="343" y="47" type="line"/>
      <point x="380" y="50" type="line" smooth="yes"/>
      <point x="392" y="51"/>
      <point x="402" y="61"/>
      <point x="402" y="73" type="curve" smooth="yes"/>
      <point x="402" y="308" type="line" smooth="yes"/>
      <point x="402" y="359"/>
      <point x="380" y="408"/>
      <point x="320" y="408" type="curve" smooth="yes"/>
      <point x="265" y="408"/>
      <point x="224" y="395"/>
      <point x="224" y="395" type="curve"/>
      <point x="224" y="73" type="line" smooth="yes"/>
      <point x="224" y="61"/>
      <point x="235" y="51"/>
      <point x="247" y="50" type="curve" smooth="yes"/>
      <point x="277" y="47" type="line"/>
      <point x="277" y="0" type="line"/>
      <point x="32" y="0" type="line"/>
      <point x="32" y="47" type="line"/>
      <point x="68" y="50" type="line" smooth="yes"/>
      <point x="80" y="51"/>
      <point x="90" y="61"/>
      <point x="90" y="73" type="curve" smooth="yes"/>
      <point x="90" y="408" type="line"/>
      <point x="21" y="408" type="line"/>
      <point x="21" y="449" type="line"/>
      <point x="172" y="500" type="line"/>
      <point x="224" y="500" type="line"/>
      <point x="224" y="439" type="line"/>
      <point x="224" y="439"/>
      <point x="313" y="500"/>
      <point x="399" y="500" type="curve" smooth="yes"/>
      <point x="514" y="500"/>
      <point x="535" y="413"/>
      <point x="535" y="326" type="curve" smooth="yes"/>
      <point x="535" y="73" type="line" smooth="yes"/>
      <point x="535" y="61"/>
      <point x="546" y="51"/>
      <point x="558" y="50" type="curve" smooth="yes"/>
      <point x="589" y="47" type="line"/>
    </contour>
    <contour>
      <point x="382" y="-146" type="curve" smooth="yes"/>
      <point x="382" y="-214"/>
      <point x="317" y="-262"/>
      <point x="240" y="-277" type="curve"/>
      <point x="240" y="-237" type="line"/>
      <point x="279" y="-226"/>
      <point x="311" y="-195"/>
      <point x="311" y="-163" type="curve"/>
      <point x="248" y="-163" type="line"/>
      <point x="235" y="-151"/>
      <point x="228" y="-135"/>
      <point x="228" y="-119" type="curve" smooth="yes"/>
      <point x="228" y="-80"/>
      <point x="261" y="-61"/>
      <point x="296" y="-61" type="curve" smooth="yes"/>
      <point x="347" y="-61"/>
      <point x="382" y="-99"/>
    </contour>
  </outline>
</glyph>
<glyph name="scedilla" format="1">
  <advance width="444"/>
  <unicode hex="015F"/>
  <outline>
    <contour>
      <point x="398" y="473" type="curve"/>
      <point x="398" y="335" type="line"/>
      <point x="336" y="335" type="line"/>
      <point x="325" y="415" type="line"/>
      <point x="312" y="430"/>
      <point x="283" y="440"/>
      <point x="247" y="440" type="curve" smooth="yes"/>
      <point x="200" y="440"/>
      <point x="172" y="420"/>
      <point x="172" y="385" type="curve" smooth="yes"/>
      <point x="172" y="345"/>
      <point x="220" y="319"/>
      <point x="273" y="292" type="curve" smooth="yes"/>
      <point x="340" y="259"/>
      <point x="414" y="223"/>
      <point x="414" y="156" type="curve" smooth="yes"/>
      <point x="414" y="30"/>
      <point x="309" y="-12"/>
      <point x="210" y="-12" type="curve" smooth="yes"/>
      <point x="112" y="-12"/>
      <point x="32" y="15"/>
      <point x="32" y="15" type="curve"/>
      <point x="32" y="167" type="line"/>
      <point x="95" y="167" type="line"/>
      <point x="98" y="140"/>
      <point x="107" y="75"/>
      <point x="107" y="75" type="curve" smooth="yes"/>
      <point x="110" y="69"/>
      <point x="168" y="47"/>
      <point x="200" y="47" type="curve" smooth="yes"/>
      <point x="268" y="47"/>
      <point x="286" y="88"/>
      <point x="286" y="111" type="curve" smooth="yes"/>
      <point x="286" y="165"/>
      <point x="210" y="187"/>
      <point x="143" y="220" type="curve" smooth="yes"/>
      <point x="87" y="248"/>
      <point x="38" y="282"/>
      <point x="38" y="348" type="curve" smooth="yes"/>
      <point x="38" y="441"/>
      <point x="122" y="500"/>
      <point x="239" y="500" type="curve" smooth="yes"/>
      <point x="338" y="500"/>
      <point x="398" y="473"/>
    </contour>
    <contour>
      <point x="349" y="-131" type="curve" smooth="yes"/>
      <point x="349" y="-196"/>
      <point x="297" y="-231"/>
      <point x="226" y="-231" type="curve" smooth="yes"/>
      <point x="185" y="-231"/>
      <point x="145" y="-220"/>
      <point x="145" y="-220" type="curve"/>
      <point x="145" y="-170" type="line"/>
      <point x="145" y="-170"/>
      <point x="184" y="-178"/>
      <point x="208" y="-178" type="curve" smooth="yes"/>
      <point x="234" y="-178"/>
      <point x="267" y="-172"/>
      <point x="267" y="-144" type="curve" smooth="yes"/>
      <point x="267" y="-120"/>
      <point x="246" y="-110"/>
      <point x="223" y="-110" type="curve" smooth="yes"/>
      <point x="216" y="-110"/>
      <point x="201" y="-112"/>
      <point x="201" y="-112" type="curve"/>
      <point x="201" y="25" type="line"/>
      <point x="250" y="25" type="line"/>
      <point x="250" y="-54" type="line"/>
      <point x="250" y="-54"/>
      <point x="255" y="-55"/>
      <point x="265" y="-55" type="curve" smooth="yes"/>
      <point x="311" y="-55"/>
      <point x="349" y="-78"/>
    </contour>
  </outline>
</glyph>
<glyph name="Uogonek" format="1">
  <advance width="729"/>
  <unicode hex="0172"/>
  <outline>
    <contour>
      <point x="703" y="620" type="line"/>
      <point x="650" y="615" type="line" smooth="yes"/>
      <point x="639" y="614"/>
      <point x="628" y="606"/>
      <point x="628" y="593" type="curve" smooth="yes"/>
      <point x="628" y="254" type="line" smooth="yes"/>
      <point x="628" y="57"/>
      <point x="541" y="-16"/>
      <point x="354" y="-16" type="curve" smooth="yes"/>
      <point x="182" y="-16"/>
      <point x="99" y="78"/>
      <point x="99" y="254" type="curve" smooth="yes"/>
      <point x="99" y="593" type="line" smooth="yes"/>
      <point x="99" y="606"/>
      <point x="88" y="614"/>
      <point x="76" y="615" type="curve" smooth="yes"/>
      <point x="22" y="620" type="line"/>
      <point x="22" y="671" type="line"/>
      <point x="318" y="671" type="line"/>
      <point x="318" y="620" type="line"/>
      <point x="264" y="615" type="line" smooth="yes"/>
      <point x="253" y="614"/>
      <point x="242" y="606"/>
      <point x="242" y="593" type="curve" smooth="yes"/>
      <point x="242" y="246" type="line" smooth="yes"/>
      <point x="242" y="121"/>
      <point x="294" y="67"/>
      <point x="404" y="67" type="curve" smooth="yes"/>
      <point x="509" y="67"/>
      <point x="552" y="138"/>
      <point x="552" y="246" type="curve" smooth="yes"/>
      <point x="552" y="593" type="line" smooth="yes"/>
      <point x="552" y="606"/>
      <point x="542" y="614"/>
      <point x="530" y="615" type="curve" smooth="yes"/>
      <point x="473" y="620" type="line"/>
      <point x="473" y="671" type="line"/>
      <point x="703" y="671" type="line"/>
    </contour>
    <contour>
      <point x="506" y="-182" type="line"/>
      <point x="506" y="-182"/>
      <point x="441" y="-213"/>
      <point x="411" y="-213" type="curve" smooth="yes"/>
      <point x="348" y="-213"/>
      <point x="300" y="-182"/>
      <point x="300" y="-129" type="curve" smooth="yes"/>
      <point x="300" y="-70"/>
      <point x="351" y="-25"/>
      <point x="381" y="-4" type="curve"/>
      <point x="444" y="-4" type="line"/>
      <point x="407" y="-32"/>
      <point x="381" y="-64"/>
      <point x="381" y="-103" type="curve" smooth="yes"/>
      <point x="381" y="-132"/>
      <point x="398" y="-155"/>
      <point x="431" y="-155" type="curve" smooth="yes"/>
      <point x="444" y="-155"/>
      <point x="469" y="-134"/>
      <point x="475" y="-130" type="curve"/>
    </contour>
  </outline>
</glyph>
<glyph name="wcircumflex" format="1">
  <advance width="840"/>
  <unicode hex="0175"/>
  <outline>
    <contour>
      <point x="832" y="441" type="line"/>
      <point x="776" y="434" type="line"/>
      <point x="642" y="0" type="line"/>
      <point x="531" y="0" type="line"/>
      <point x="422" y="355" type="line"/>
      <point x="307" y="0" type="line"/>
      <point x="198" y="0" type="line"/>
      <point x="69" y="435" type="line"/>
      <point x="10" y="441" type="line"/>
      <point x="10" y="488" type="line"/>
      <point x="266" y="488" type="line"/>
      <point x="266" y="441" type="line"/>
      <point x="223" y="438" type="line" smooth="yes"/>
      <point x="212" y="437"/>
      <point x="205" y="427"/>
      <point x="208" y="416" type="curve" smooth="yes"/>
      <point x="286" y="141" type="line"/>
      <point x="398" y="488" type="line"/>
      <point x="508" y="488" type="line"/>
      <point x="615" y="139" type="line"/>
      <point x="698" y="416" type="line" smooth="yes"/>
      <point x="701" y="426"/>
      <point x="695" y="437"/>
      <point x="684" y="438" type="curve" smooth="yes"/>
      <point x="640" y="441" type="line"/>
      <point x="640" y="488" type="line"/>
      <point x="832" y="488" type="line"/>
    </contour>
    <contour>
      <point x="605" y="551" type="line"/>
      <point x="522" y="551" type="line"/>
      <point x="436" y="646" type="line"/>
      <point x="349" y="551" type="line"/>
      <point x="266" y="551" type="line"/>
      <point x="376" y="722" type="line"/>
      <point x="495" y="722" type="line"/>
    </contour>
  </outline>
</glyph>
<glyph name="Zacute" format="1">
  <advance width="581"/>
  <unicode hex="0179"/>
  <outline>
    <contour>
      <point x="544" y="0" type="line"/>
      <point x="37" y="0" type="line"/>
      <point x="37" y="59" type="line"/>
      <point x="380" y="610" type="line"/>
      <point x="159" y="610" type="line" smooth="yes"/>
      <point x="151" y="610"/>
      <point x="146" y="606"/>
      <point x="145" y="598" type="curve" smooth="yes"/>
      <point x="127" y="489" type="line"/>
      <point x="54" y="489" type="line"/>
      <point x="54" y="671" type="line"/>
      <point x="539" y="671" type="line"/>
      <point x="539" y="612" type="line"/>
      <point x="197" y="62" type="line"/>
      <point x="436" y="62" type="line" smooth="yes"/>
      <point x="444" y="62"/>
      <point x="449" y="66"/>
      <point x="451" y="73" type="curve" smooth="yes"/>
      <point x="471" y="197" type="line"/>
      <point x="544" y="197" type="line"/>
    </contour>
    <contour>
      <point x="462" y="876" type="curve" smooth="yes"/>
      <point x="462" y="863"/>
      <point x="450" y="842"/>
      <point x="436" y="834" type="curve" smooth="yes"/>
      <point x="274" y="746" type="line"/>
      <point x="204" y="746" type="line"/>
      <point x="341" y="897" type="line" smooth="yes"/>
      <point x="364" y="922"/>
      <point x="377" y="929"/>
      <point x="404" y="929" type="curve" smooth="yes"/>
      <point x="447" y="929"/>
      <point x="462" y="900"/>
    </contour>
  </outline>
</glyph>
<glyph name="uni0183" format="1">
  <advance width="598"/>
  <unicode hex="0183"/>
  <outline>
    <contour>
      <point x="90" y="0" type="line"/>
      <point x="90" y="740" type="line"/>
      <point x="521" y="740" type="line"/>
      <point x="521" y="576" type="line"/>
      <point x="449" y="576" type="line"/>
      <point x="436" y="661" type="line" smooth="yes"/>
      <point x="433" y="677"/>
      <point x="427" y="683"/>
      <point x="414" y="683" type="curve" smooth="yes"/>
      <point x="239" y="683" type="line" smooth="yes"/>
      <point x="229" y="683"/>
      <point x="224" y="674"/>
      <point x="224" y="668" type="curve" smooth="yes"/>
      <point x="224" y="454" type="line"/>
      <point x="224" y="454"/>
      <point x="294" y="500"/>
      <point x="369" y="500" type="curve" smooth="yes"/>
      <point x="476" y="500"/>
      <point x="566" y="417"/>
      <point x="566" y="274" type="curve" smooth="yes"/>
      <point x="566" y="120"/>
      <point x="460" y="0"/>
      <point x="273" y="0" type="curve" smooth="yes"/>
    </contour>
    <contour>
      <point x="421" y="244" type="curve" smooth="yes"/>
      <point x="421" y="352"/>
      <point x="371" y="417"/>
      <point x="277" y="417" type="curve" smooth="yes"/>
      <point x="253" y="417"/>
      <point x="224" y="411"/>
      <point x="224" y="411" type="curve"/>
      <point x="224" y="56" type="line"/>
      <point x="236" y="56"/>
      <point x="239" y="55"/>
      <point x="245" y="55" type="curve" smooth="yes"/>
      <point x="356" y="55"/>
      <point x="421" y="102"/>
    </contour>
  </outline>
</glyph>
<glyph name="uni0186" format="1">
  <advance width="636"/>
  <unicode hex="0186"/>
  <outline>
    <contour>
      <point x="600" y="335" type="curve" smooth="yes"/>
      <point x="600" y="126"/>
      <point x="446" y="-16"/>
      <point x="248" y="-16" type="curve" smooth="yes"/>
      <point x="171" y="-16"/>
      <point x="129" y="-4"/>
      <point x="37" y="26" type="curve"/>
      <point x="37" y="196" type="line"/>
      <point x="114" y="196" type="line"/>
      <point x="136" y="84" type="line" smooth="yes"/>
      <point x="136" y="81"/>
      <point x="143" y="71"/>
      <point x="149" y="68" type="curve" smooth="yes"/>
      <point x="160" y="63"/>
      <point x="196" y="52"/>
      <point x="221" y="52" type="curve" smooth="yes"/>
      <point x="357" y="52"/>
      <point x="442" y="164"/>
      <point x="442" y="337" type="curve" smooth="yes"/>
      <point x="442" y="477"/>
      <point x="380" y="622"/>
      <point x="212" y="622" type="curve" smooth="yes"/>
      <point x="188" y="622"/>
      <point x="165" y="614"/>
      <point x="154" y="609" type="curve" smooth="yes"/>
      <point x="149" y="607"/>
      <point x="139" y="596"/>
      <point x="138" y="590" type="curve" smooth="yes"/>
      <point x="115" y="472" type="line"/>
      <point x="37" y="472" type="line"/>
      <point x="37" y="647" type="line"/>
      <point x="62" y="657"/>
      <point x="145" y="687"/>
      <point x="249" y="687" type="curve" smooth="yes"/>
      <point x="454" y="687"/>
      <point x="600" y="541"/>
    </contour>
  </outline>
</glyph>
<glyph name="uni018D" format="1">
  <advance width="597"/>
  <unicode hex="018D"/>
  <outline>
    <contour>
      <point x="32" y="263" type="curve" smooth="yes"/>
      <point x="32" y="430"/>
      <point x="175" y="500"/>
      <point x="295" y="500" type="curve" smooth="yes"/>
      <point x="426" y="500"/>
      <point x="567" y="450"/>
      <point x="567" y="283" type="curve" smooth="yes"/>
      <point x="567" y="158"/>
      <point x="449" y="96"/>
      <point x="334" y="60" type="curve"/>
      <point x="417" y="1"/>
      <point x="504" y="-47"/>
      <point x="504" y="-109" type="curve" smooth="yes"/>
      <point x="504" y="-201"/>
      <point x="418" y="-252"/>
      <point x="308" y="-252" type="curve" smooth="yes"/>
      <point x="157" y="-252"/>
      <point x="91" y="-187"/>
      <point x="91" y="-138" type="curve" smooth="yes"/>
      <point x="91" y="-111"/>
      <point x="118" y="-78"/>
      <point x="163" y="-78" type="curve" smooth="yes"/>
      <point x="172" y="-78"/>
      <point x="201" y="-80"/>
      <point x="210" y="-86" type="curve"/>
      <point x="234" y="-165" type="line"/>
      <point x="263" y="-186"/>
      <point x="285" y="-195"/>
      <point x="311" y="-195" type="curve" smooth="yes"/>
      <point x="351" y="-195"/>
      <point x="391" y="-172"/>
      <point x="391" y="-127" type="curve" smooth="yes"/>
      <point x="391" y="-38"/>
      <point x="32" y="31"/>
    </contour>
    <contour>
      <point x="182" y="270" type="curve" smooth="yes"/>
      <point x="182" y="196"/>
      <point x="229" y="142"/>
      <point x="287" y="95" type="curve"/>
      <point x="351" y="130"/>
      <point x="417" y="194"/>
      <point x="417" y="284" type="curve" smooth="yes"/>
      <point x="417" y="382"/>
      <point x="378" y="444"/>
      <point x="303" y="444" type="curve" smooth="yes"/>
      <point x="224" y="444"/>
      <point x="182" y="375"/>
    </contour>
  </outline>
</glyph>
<glyph name="florin" format="1">
  <advance width="347"/>
  <unicode hex="0192"/>
  <outline>
    <contour>
      <point x="420" y="660" type="curve" smooth="yes"/>
      <point x="420" y="629"/>
      <point x="390" y="605"/>
      <point x="358" y="594" type="curve"/>
      <point x="259" y="687" type="line"/>
      <point x="239" y="657"/>
      <point x="227" y="625"/>
      <point x="227" y="534" type="curve" smooth="yes"/>
      <point x="227" y="476" type="line"/>
      <point x="336" y="476" type="line"/>
      <point x="336" y="412" type="line"/>
      <point x="228" y="412" type="line"/>
      <point x="228" y="27" type="line" smooth="yes"/>
      <point x="228" y="-40"/>
      <point x="206" y="-104"/>
      <point x="163" y="-153" type="curve" smooth="yes"/>
      <point x="123" y="-198"/>
      <point x="64" y="-231"/>
      <point x="-3" y="-231" type="curve" smooth="yes"/>
      <point x="-43" y="-231"/>
      <point x="-99" y="-212"/>
      <point x="-99" y="-155" type="curve" smooth="yes"/>
      <point x="-99" y="-124"/>
      <point x="-69" y="-99"/>
      <point x="-37" y="-89" type="curve"/>
      <point x="62" y="-182" type="line"/>
      <point x="83" y="-152"/>
      <point x="94" y="-120"/>
      <point x="94" y="-29" type="curve" smooth="yes"/>
      <point x="94" y="412" type="line"/>
      <point x="29" y="412" type="line"/>
      <point x="29" y="452" type="line"/>
      <point x="93" y="485" type="line"/>
      <point x="93" y="537"/>
      <point x="108" y="583"/>
      <point x="135" y="627" type="curve" smooth="yes"/>
      <point x="175" y="693"/>
      <point x="242" y="740"/>
      <point x="324" y="740" type="curve" smooth="yes"/>
      <point x="364" y="740"/>
      <point x="420" y="717"/>
    </contour>
  </outline>
</glyph>
<glyph name="uni019B" format="1">
  <advance width="695"/>
  <unicode hex="019B"/>
  <outline>
    <contour>
      <point x="371" y="619" type="line"/>
      <point x="312" y="565" type="line"/>
      <point x="484" y="146" type="line" smooth="yes"/>
      <point x="509" y="86"/>
      <point x="511" y="64"/>
      <point x="531" y="64" type="curve" smooth="yes"/>
      <point x="536" y="64"/>
      <point x="539" y="66"/>
      <point x="543" y="69" type="curve" smooth="yes"/>
      <point x="588" y="157" type="line"/>
      <point x="635" y="157"/>
      <point x="687" y="128"/>
      <point x="687" y="88" type="curve" smooth="yes"/>
      <point x="687" y="17"/>
      <point x="653" y="-12"/>
      <point x="542" y="-12" type="curve" smooth="yes"/>
      <point x="471" y="-12"/>
      <point x="435" y="35"/>
      <point x="403" y="113" type="curve" smooth="yes"/>
      <point x="317" y="323" type="line"/>
      <point x="149" y="0" type="line"/>
      <point x="10" y="0" type="line"/>
      <point x="255" y="470" type="line"/>
      <point x="239" y="500" type="line"/>
      <point x="102" y="377" type="line"/>
      <point x="102" y="461" type="line"/>
      <point x="209" y="556" type="line"/>
      <point x="188" y="598"/>
      <point x="186" y="616"/>
      <point x="168" y="616" type="curve" smooth="yes"/>
      <point x="164" y="616"/>
      <point x="160" y="614"/>
      <point x="156" y="610" type="curve" smooth="yes"/>
      <point x="110" y="522" type="line"/>
      <point x="64" y="522"/>
      <point x="12" y="550"/>
      <point x="12" y="591" type="curve" smooth="yes"/>
      <point x="12" y="663"/>
      <point x="45" y="691"/>
      <point x="156" y="691" type="curve" smooth="yes"/>
      <point x="209" y="691"/>
      <point x="252" y="666"/>
      <point x="283" y="621" type="curve"/>
      <point x="371" y="699" type="line"/>
    </contour>
  </outline>
</glyph>
<glyph name="uni019C" format="1">
  <advance width="1096"/>
  <unicode hex="019C"/>
  <outline>
    <contour>
      <point x="240" y="593" type="curve" smooth="yes"/>
      <point x="240" y="220" type="line" smooth="yes"/>
      <point x="240" y="129"/>
      <point x="309" y="76"/>
      <point x="372" y="76" type="curve" smooth="yes"/>
      <point x="408" y="76"/>
      <point x="450" y="100"/>
      <point x="484" y="118" type="curve"/>
      <point x="477" y="142"/>
      <point x="473" y="170"/>
      <point x="473" y="200" type="curve" smooth="yes"/>
      <point x="473" y="593" type="line" smooth="yes"/>
      <point x="473" y="606"/>
      <point x="463" y="614"/>
      <point x="451" y="615" type="curve" smooth="yes"/>
      <point x="398" y="620" type="line"/>
      <point x="398" y="671" type="line"/>
      <point x="690" y="671" type="line"/>
      <point x="690" y="620" type="line"/>
      <point x="638" y="615" type="line" smooth="yes"/>
      <point x="626" y="614"/>
      <point x="616" y="606"/>
      <point x="616" y="593" type="curve" smooth="yes"/>
      <point x="616" y="220" type="line" smooth="yes"/>
      <point x="616" y="128"/>
      <point x="659" y="76"/>
      <point x="721" y="76" type="curve" smooth="yes"/>
      <point x="773" y="76"/>
      <point x="810" y="112"/>
      <point x="849" y="142" type="curve"/>
      <point x="849" y="593" type="line" smooth="yes"/>
      <point x="849" y="606"/>
      <point x="839" y="614"/>
      <point x="827" y="615" type="curve" smooth="yes"/>
      <point x="774" y="620" type="line"/>
      <point x="774" y="671" type="line"/>
      <point x="1066" y="671" type="line"/>
      <point x="1066" y="620" type="line"/>
      <point x="1014" y="615" type="line" smooth="yes"/>
      <point x="1002" y="614"/>
      <point x="992" y="606"/>
      <point x="992" y="593" type="curve" smooth="yes"/>
      <point x="992" y="70" type="line" smooth="yes"/>
      <point x="992" y="60"/>
      <point x="995" y="57"/>
      <point x="1004" y="56" type="curve" smooth="yes"/>
      <point x="1004" y="56"/>
      <point x="1043" y="53"/>
      <point x="1070" y="51" type="curve"/>
      <point x="1070" y="0" type="line"/>
      <point x="849" y="0" type="line"/>
      <point x="849" y="56" type="line"/>
      <point x="789" y="7"/>
      <point x="769" y="-16"/>
      <point x="682" y="-16" type="curve" smooth="yes"/>
      <point x="605" y="-16"/>
      <point x="554" y="14"/>
      <point x="521" y="53" type="curve"/>
      <point x="467" y="16"/>
      <point x="412" y="-16"/>
      <point x="333" y="-16" type="curve" smooth="yes"/>
      <point x="195" y="-16"/>
      <point x="97" y="69"/>
      <point x="97" y="200" type="curve" smooth="yes"/>
      <point x="97" y="593" type="line" smooth="yes"/>
      <point x="97" y="606"/>
      <point x="87" y="614"/>
      <point x="75" y="615" type="curve" smooth="yes"/>
      <point x="22" y="620" type="line"/>
      <point x="22" y="671" type="line"/>
      <point x="314" y="671" type="line"/>
      <point x="314" y="620" type="line"/>
      <point x="262" y="615" type="line" smooth="yes"/>
      <point x="250" y="614"/>
      <point x="240" y="606"/>
    </contour>
  </outline>
</glyph>
<glyph name="uni019E" format="1">
  <advance width="625"/>
  <unicode hex="019E"/>
  <outline>
    <contour>
      <point x="589" y="-219" type="line"/>
      <point x="343" y="-219" type="line"/>
      <point x="343" y="-172" type="line"/>
      <point x="380" y="-169" type="line" smooth="yes"/>
      <point x="392" y="-168"/>
      <point x="402" y="-158"/>
      <point x="402" y="-146" type="curve" smooth="yes"/>
      <point x="402" y="308" type="line" smooth="yes"/>
      <point x="402" y="359"/>
      <point x="380" y="408"/>
      <point x="320" y="408" type="curve" smooth="yes"/>
      <point x="265" y="408"/>
      <point x="224" y="395"/>
      <point x="224" y="395" type="curve"/>
      <point x="224" y="73" type="line" smooth="yes"/>
      <point x="224" y="61"/>
      <point x="235" y="51"/>
      <point x="247" y="50" type="curve" smooth="yes"/>
      <point x="277" y="47" type="line"/>
      <point x="277" y="0" type="line"/>
      <point x="32" y="0" type="line"/>
      <point x="32" y="47" type="line"/>
      <point x="68" y="50" type="line" smooth="yes"/>
      <point x="80" y="51"/>
      <point x="90" y="61"/>
      <point x="90" y="73" type="curve" smooth="yes"/>
      <point x="90" y="408" type="line"/>
      <point x="21" y="408" type="line"/>
      <point x="21" y="449" type="line"/>
      <point x="172" y="500" type="line"/>
      <point x="224" y="500" type="line"/>
      <point x="224" y="439" type="line"/>
      <point x="224" y="439"/>
      <point x="313" y="500"/>
      <point x="399" y="500" type="curve" smooth="yes"/>
      <point x="514" y="500"/>
      <point x="535" y="413"/>
      <point x="535" y="326" type="curve" smooth="yes"/>
      <point x="535" y="-146" type="line" smooth="yes"/>
      <point x="535" y="-158"/>
      <point x="546" y="-168"/>
      <point x="558" y="-169" type="curve" smooth="yes"/>
      <point x="589" y="-172" type="line"/>
    </contour>
  </outline>
</glyph>
<glyph name="uni01A4" format="1">
  <advance width="689"/>
  <unicode hex="01A4"/>
  <outline>
    <contour>
      <point x="654" y="468" type="curve" smooth="yes"/>
      <point x="654" y="297"/>
      <point x="520" y="246"/>
      <point x="392" y="246" type="curve" smooth="yes"/>
      <point x="372" y="246"/>
      <point x="352" y="245"/>
      <point x="326" y="248" type="curve"/>
      <point x="326" y="78" type="line" smooth="yes"/>
      <point x="326" y="65"/>
      <point x="336" y="57"/>
      <point x="348" y="56" type="curve" smooth="yes"/>
      <point x="411" y="51" type="line"/>
      <point x="411" y="0" type="line"/>
      <point x="104" y="0" type="line"/>
      <point x="104" y="51" type="line"/>
      <point x="160" y="56" type="line" smooth="yes"/>
      <point x="171" y="57"/>
      <point x="183" y="65"/>
      <point x="183" y="78" type="curve" smooth="yes"/>
      <point x="183" y="599" type="line" smooth="yes"/>
      <point x="183" y="608"/>
      <point x="178" y="613"/>
      <point x="168" y="613" type="curve" smooth="yes"/>
      <point x="125" y="613" type="line" smooth="yes"/>
      <point x="91" y="613"/>
      <point x="55" y="609"/>
      <point x="46" y="591" type="curve"/>
      <point x="113" y="495" type="line"/>
      <point x="113" y="495"/>
      <point x="98" y="448"/>
      <point x="49" y="448" type="curve" smooth="yes"/>
      <point x="20" y="448"/>
      <point x="-21" y="467"/>
      <point x="-21" y="537" type="curve" smooth="yes"/>
      <point x="-21" y="604"/>
      <point x="41" y="671"/>
      <point x="120" y="671" type="curve" smooth="yes"/>
      <point x="382" y="671" type="line" smooth="yes"/>
      <point x="517" y="671"/>
      <point x="654" y="644"/>
    </contour>
    <contour>
      <point x="505" y="463" type="curve" smooth="yes"/>
      <point x="505" y="556"/>
      <point x="455" y="610"/>
      <point x="382" y="610" type="curve" smooth="yes"/>
      <point x="326" y="610" type="line"/>
      <point x="326" y="308" type="line"/>
      <point x="341" y="307"/>
      <point x="344" y="307"/>
      <point x="353" y="307" type="curve" smooth="yes"/>
      <point x="444" y="308"/>
      <point x="505" y="349"/>
    </contour>
  </outline>
</glyph>
<glyph name="uni01AC" format="1">
  <advance width="608"/>
  <unicode hex="01AC"/>
  <outline>
    <contour>
      <point x="593" y="488" type="line"/>
      <point x="521" y="488" type="line"/>
      <point x="503" y="599" type="line" smooth="yes"/>
      <point x="502" y="607"/>
      <point x="496" y="611"/>
      <point x="488" y="611" type="curve" smooth="yes"/>
      <point x="376" y="611" type="line"/>
      <point x="376" y="78" type="line" smooth="yes"/>
      <point x="376" y="65"/>
      <point x="387" y="57"/>
      <point x="399" y="56" type="curve" smooth="yes"/>
      <point x="457" y="51" type="line"/>
      <point x="457" y="0" type="line"/>
      <point x="152" y="0" type="line"/>
      <point x="152" y="51" type="line"/>
      <point x="211" y="56" type="line" smooth="yes"/>
      <point x="222" y="57"/>
      <point x="233" y="65"/>
      <point x="233" y="78" type="curve" smooth="yes"/>
      <point x="233" y="611" type="line"/>
      <point x="136" y="611" type="line" smooth="yes"/>
      <point x="114" y="611"/>
      <point x="89" y="597"/>
      <point x="89" y="570" type="curve" smooth="yes"/>
      <point x="89" y="559" type="line"/>
      <point x="155" y="499" type="line"/>
      <point x="155" y="453"/>
      <point x="122" y="432"/>
      <point x="96" y="432" type="curve" smooth="yes"/>
      <point x="40" y="432"/>
      <point x="5" y="478"/>
      <point x="5" y="536" type="curve" smooth="yes"/>
      <point x="5" y="651"/>
      <point x="86" y="671"/>
      <point x="162" y="671" type="curve" smooth="yes"/>
      <point x="593" y="671" type="line"/>
    </contour>
  </outline>
</glyph>
<glyph name="uni01B3.RtHook" format="1">
  <advance width="663"/>
  <unicode hex="01B3"/>
  <outline>
    <contour>
      <point x="795" y="643" type="curve" smooth="yes"/>
      <point x="795" y="596"/>
      <point x="771" y="578"/>
      <point x="742" y="571" type="curve"/>
      <point x="651" y="654" type="line"/>
      <point x="627" y="654"/>
      <point x="608" y="628"/>
      <point x="587" y="592" type="curve" smooth="yes"/>
      <point x="410" y="290" type="line"/>
      <point x="410" y="78" type="line" smooth="yes"/>
      <point x="410" y="65"/>
      <point x="420" y="57"/>
      <point x="432" y="56" type="curve" smooth="yes"/>
      <point x="493" y="51" type="line"/>
      <point x="493" y="0" type="line"/>
      <point x="183" y="0" type="line"/>
      <point x="183" y="51" type="line"/>
      <point x="244" y="56" type="line" smooth="yes"/>
      <point x="255" y="57"/>
      <point x="267" y="65"/>
      <point x="267" y="78" type="curve" smooth="yes"/>
      <point x="267" y="262" type="line"/>
      <point x="74" y="611" type="line"/>
      <point x="10" y="620" type="line"/>
      <point x="10" y="671" type="line"/>
      <point x="294" y="671" type="line"/>
      <point x="294" y="620" type="line"/>
      <point x="241" y="615" type="line" smooth="yes"/>
      <point x="234" y="615"/>
      <point x="229" y="604"/>
      <point x="236" y="591" type="curve" smooth="yes"/>
      <point x="362" y="354" type="line"/>
      <point x="484" y="565" type="line" smooth="yes"/>
      <point x="551" y="680"/>
      <point x="583" y="722"/>
      <point x="672" y="722" type="curve" smooth="yes"/>
      <point x="724" y="722"/>
      <point x="795" y="705"/>
    </contour>
  </outline>
</glyph>
<glyph name="uni01BA" format="1">
  <advance width="508"/>
  <unicode hex="01BA"/>
  <outline>
    <contour>
      <point x="478" y="442" type="line"/>
      <point x="333" y="255" type="line"/>
      <point x="421" y="247"/>
      <point x="467" y="212"/>
      <point x="467" y="128" type="curve" smooth="yes"/>
      <point x="467" y="-7"/>
      <point x="214" y="-27"/>
      <point x="214" y="-118" type="curve" smooth="yes"/>
      <point x="214" y="-140"/>
      <point x="225" y="-177"/>
      <point x="271" y="-177" type="curve" smooth="yes"/>
      <point x="303" y="-177"/>
      <point x="326" y="-168"/>
      <point x="339" y="-152" type="curve"/>
      <point x="368" y="-71" type="line"/>
      <point x="374" y="-68"/>
      <point x="406" y="-57"/>
      <point x="415" y="-57" type="curve" smooth="yes"/>
      <point x="449" y="-57"/>
      <point x="471" y="-82"/>
      <point x="471" y="-117" type="curve" smooth="yes"/>
      <point x="471" y="-181"/>
      <point x="399" y="-231"/>
      <point x="262" y="-231" type="curve" smooth="yes"/>
      <point x="175" y="-231"/>
      <point x="102" y="-195"/>
      <point x="102" y="-91" type="curve" smooth="yes"/>
      <point x="102" y="21"/>
      <point x="349" y="69"/>
      <point x="349" y="153" type="curve" smooth="yes"/>
      <point x="349" y="182"/>
      <point x="319" y="203"/>
      <point x="285" y="203" type="curve" smooth="yes"/>
      <point x="263" y="203"/>
      <point x="229" y="183"/>
      <point x="198" y="158" type="curve"/>
      <point x="173" y="189" type="line"/>
      <point x="336" y="374" type="line"/>
      <point x="129" y="374" type="line" smooth="yes"/>
      <point x="120" y="374"/>
      <point x="110" y="362"/>
      <point x="109" y="353" type="curve" smooth="yes"/>
      <point x="103" y="264" type="line"/>
      <point x="32" y="264" type="line"/>
      <point x="32" y="488" type="line"/>
      <point x="478" y="488" type="line"/>
    </contour>
  </outline>
</glyph>
<glyph name="uni01C1" format="1">
  <advance width="367"/>
  <unicode hex="01C1"/>
  <outline>
    <contour>
      <point x="297" y="-215" type="line"/>
      <point x="217" y="-215" type="line"/>
      <point x="217" y="736" type="line"/>
      <point x="297" y="736" type="line"/>
    </contour>
    <contour>
      <point x="151" y="-215" type="line"/>
      <point x="70" y="-215" type="line"/>
      <point x="70" y="736" type="line"/>
      <point x="151" y="736" type="line"/>
    </contour>
  </outline>
</glyph>
<glyph name="uni01C2" format="1">
  <advance width="416"/>
  <unicode hex="01C2"/>
  <outline>
    <contour>
      <point x="24" y="292" type="line"/>
      <point x="24" y="363" type="line"/>
      <point x="392" y="363" type="line"/>
      <point x="392" y="292" type="line"/>
    </contour>
    <contour>
      <point x="24" y="158" type="line"/>
      <point x="24" y="228" type="line"/>
      <point x="392" y="228" type="line"/>
      <point x="392" y="158" type="line"/>
    </contour>
    <contour>
      <point x="249" y="-215" type="line"/>
      <point x="168" y="-215" type="line"/>
      <point x="168" y="736" type="line"/>
      <point x="249" y="736" type="line"/>
    </contour>
  </outline>
</glyph>
<glyph name="uni01C3" format="1">
  <advance width="207"/>
  <unicode hex="01C3"/>
  <outline>
    <contour>
      <point x="185" y="606" type="curve"/>
      <point x="131" y="208" type="line"/>
      <point x="77" y="208" type="line"/>
      <point x="22" y="606" type="line"/>
      <point x="22" y="662"/>
      <point x="59" y="687"/>
      <point x="104" y="687" type="curve" smooth="yes"/>
      <point x="149" y="687"/>
      <point x="185" y="663"/>
    </contour>
    <contour>
      <point x="184" y="70" type="curve" smooth="yes"/>
      <point x="184" y="24"/>
      <point x="147" y="-12"/>
      <point x="104" y="-12" type="curve" smooth="yes"/>
      <point x="71" y="-12"/>
      <point x="23" y="11"/>
      <point x="23" y="70" type="curve" smooth="yes"/>
      <point x="23" y="122"/>
      <point x="67" y="149"/>
      <point x="104" y="149" type="curve" smooth="yes"/>
      <point x="141" y="149"/>
      <point x="184" y="119"/>
    </contour>
  </outline>
</glyph>
<glyph name="uni01C8" format="1">
  <advance width="878"/>
  <unicode hex="01C8"/>
  <outline>
    <contour>
      <point x="538" y="0" type="line"/>
      <point x="27" y="0" type="line"/>
      <point x="27" y="51" type="line"/>
      <point x="82" y="56" type="line" smooth="yes"/>
      <point x="94" y="57"/>
      <point x="104" y="65"/>
      <point x="104" y="78" type="curve" smooth="yes"/>
      <point x="104" y="593" type="line" smooth="yes"/>
      <point x="104" y="606"/>
      <point x="94" y="614"/>
      <point x="82" y="615" type="curve" smooth="yes"/>
      <point x="27" y="620" type="line"/>
      <point x="27" y="671" type="line"/>
      <point x="325" y="671" type="line"/>
      <point x="325" y="620" type="line"/>
      <point x="269" y="615" type="line" smooth="yes"/>
      <point x="257" y="614"/>
      <point x="247" y="606"/>
      <point x="247" y="593" type="curve" smooth="yes"/>
      <point x="247" y="61" type="line"/>
      <point x="421" y="61" type="line" smooth="yes"/>
      <point x="435" y="61"/>
      <point x="444" y="76"/>
      <point x="445" y="84" type="curve" smooth="yes"/>
      <point x="458" y="199" type="line"/>
      <point x="538" y="199" type="line"/>
    </contour>
    <contour>
      <point x="797" y="663" type="curve" smooth="yes"/>
      <point x="797" y="620"/>
      <point x="763" y="585"/>
      <point x="720" y="585" type="curve" smooth="yes"/>
      <point x="677" y="585"/>
      <point x="642" y="620"/>
      <point x="642" y="663" type="curve" smooth="yes"/>
      <point x="642" y="706"/>
      <point x="677" y="740"/>
      <point x="720" y="740" type="curve" smooth="yes"/>
      <point x="763" y="740"/>
      <point x="797" y="706"/>
    </contour>
    <contour>
      <point x="787" y="47" type="line" smooth="yes"/>
      <point x="787" y="-26"/>
      <point x="770" y="-97"/>
      <point x="732" y="-150" type="curve" smooth="yes"/>
      <point x="696" y="-199"/>
      <point x="641" y="-231"/>
      <point x="564" y="-231" type="curve" smooth="yes"/>
      <point x="510" y="-231"/>
      <point x="464" y="-204"/>
      <point x="464" y="-155" type="curve" smooth="yes"/>
      <point x="464" y="-119"/>
      <point x="494" y="-91"/>
      <point x="528" y="-88" type="curve"/>
      <point x="626" y="-187" type="line"/>
      <point x="657" y="-136"/>
      <point x="654" y="-5"/>
      <point x="654" y="-5" type="curve"/>
      <point x="654" y="409" type="line"/>
      <point x="583" y="409" type="line"/>
      <point x="583" y="450" type="line"/>
      <point x="736" y="500" type="line"/>
      <point x="787" y="500" type="line"/>
    </contour>
  </outline>
</glyph>
<glyph name="uni01DF" format="1">
  <advance width="553"/>
  <unicode hex="01DF"/>
  <outline>
    <contour>
      <point x="536" y="0" type="line"/>
      <point x="350" y="0" type="line"/>
      <point x="337" y="50" type="line"/>
      <point x="337" y="50"/>
      <point x="251" y="-12"/>
      <point x="163" y="-12" type="curve" smooth="yes"/>
      <point x="91" y="-12"/>
      <point x="32" y="38"/>
      <point x="32" y="117" type="curve" smooth="yes"/>
      <point x="32" y="207"/>
      <point x="63" y="251"/>
      <point x="338" y="312" type="curve"/>
      <point x="338" y="327"/>
      <point x="339" y="351"/>
      <point x="339" y="351" type="curve" smooth="yes"/>
      <point x="340" y="389"/>
      <point x="325" y="444"/>
      <point x="245" y="444" type="curve" smooth="yes"/>
      <point x="218" y="444"/>
      <point x="202" y="440"/>
      <point x="202" y="440" type="curve"/>
      <point x="202" y="345" type="line"/>
      <point x="99" y="345" type="line"/>
      <point x="99" y="345"/>
      <point x="54" y="340"/>
      <point x="54" y="381" type="curve" smooth="yes"/>
      <point x="54" y="455"/>
      <point x="171" y="500"/>
      <point x="277" y="500" type="curve" smooth="yes"/>
      <point x="392" y="500"/>
      <point x="470" y="474"/>
      <point x="470" y="330" type="curve" smooth="yes"/>
      <point x="470" y="73" type="line" smooth="yes"/>
      <point x="470" y="61"/>
      <point x="480" y="51"/>
      <point x="492" y="50" type="curve" smooth="yes"/>
      <point x="536" y="47" type="line"/>
    </contour>
    <contour>
      <point x="337" y="93" type="curve"/>
      <point x="337" y="258" type="line"/>
      <point x="208" y="232"/>
      <point x="174" y="205"/>
      <point x="174" y="145" type="curve" smooth="yes"/>
      <point x="174" y="104"/>
      <point x="203" y="71"/>
      <point x="245" y="71" type="curve" smooth="yes"/>
      <point x="288" y="71"/>
      <point x="337" y="93"/>
    </contour>
    <contour>
      <point x="443" y="654" type="curve" smooth="yes"/>
      <point x="443" y="616"/>
      <point x="412" y="585"/>
      <point x="374" y="585" type="curve" smooth="yes"/>
      <point x="336" y="585"/>
      <point x="305" y="616"/>
      <point x="305" y="654" type="curve" smooth="yes"/>
      <point x="305" y="692"/>
      <point x="336" y="723"/>
      <point x="374" y="723" type="curve" smooth="yes"/>
      <point x="412" y="723"/>
      <point x="443" y="692"/>
    </contour>
    <contour>
      <point x="233" y="654" type="curve" smooth="yes"/>
      <point x="233" y="616"/>
      <point x="202" y="585"/>
      <point x="164" y="585" type="curve" smooth="yes"/>
      <point x="126" y="585"/>
      <point x="95" y="616"/>
      <point x="95" y="654" type="curve" smooth="yes"/>
      <point x="95" y="692"/>
      <point x="126" y="723"/>
      <point x="164" y="723" type="curve" smooth="yes"/>
      <point x="202" y="723"/>
      <point x="233" y="692"/>
    </contour>
    <contour>
      <point x="438" y="781" type="line"/>
      <point x="99" y="781" type="line"/>
      <point x="99" y="862" type="line"/>
      <point x="438" y="862" type="line"/>
    </contour>
  </outline>
</glyph>
<glyph name="uni01E5" format="1">
  <advance width="555"/>
  <unicode hex="01E5"/>
  <outline>
    <contour>
      <point x="555" y="-102" type="line"/>
      <point x="501" y="-102" type="line"/>
      <point x="462" y="-182"/>
      <point x="352" y="-231"/>
      <point x="246" y="-231" type="curve" smooth="yes"/>
      <point x="150" y="-231"/>
      <point x="50" y="-191"/>
      <point x="34" y="-102" type="curve"/>
      <point x="0" y="-102" type="line"/>
      <point x="0" y="-47" type="line"/>
      <point x="35" y="-47" type="line"/>
      <point x="50" y="13"/>
      <point x="109" y="33"/>
      <point x="132" y="29" type="curve"/>
      <point x="123" y="47"/>
      <point x="119" y="69"/>
      <point x="119" y="82" type="curve" smooth="yes"/>
      <point x="119" y="116"/>
      <point x="137" y="141"/>
      <point x="175" y="175" type="curve"/>
      <point x="140" y="183"/>
      <point x="52" y="221"/>
      <point x="52" y="325" type="curve" smooth="yes"/>
      <point x="52" y="445"/>
      <point x="151" y="500"/>
      <point x="273" y="500" type="curve" smooth="yes"/>
      <point x="336" y="500"/>
      <point x="383" y="480"/>
      <point x="416" y="469" type="curve"/>
      <point x="546" y="469" type="line"/>
      <point x="546" y="410" type="line"/>
      <point x="458" y="410" type="line"/>
      <point x="458" y="410"/>
      <point x="478" y="375"/>
      <point x="478" y="334" type="curve" smooth="yes"/>
      <point x="478" y="200"/>
      <point x="333" y="162"/>
      <point x="239" y="168" type="curve"/>
      <point x="215" y="152"/>
      <point x="200" y="136"/>
      <point x="212" y="108" type="curve"/>
      <point x="431" y="90"/>
      <point x="516" y="44"/>
      <point x="516" y="-40" type="curve" smooth="yes"/>
      <point x="516" y="-47" type="line"/>
      <point x="555" y="-47" type="line"/>
    </contour>
    <contour>
      <point x="346" y="336" type="curve" smooth="yes"/>
      <point x="346" y="391"/>
      <point x="321" y="451"/>
      <point x="271" y="451" type="curve" smooth="yes"/>
      <point x="211" y="451"/>
      <point x="190" y="392"/>
      <point x="190" y="335" type="curve" smooth="yes"/>
      <point x="190" y="276"/>
      <point x="214" y="215"/>
      <point x="269" y="215" type="curve" smooth="yes"/>
      <point x="323" y="215"/>
      <point x="346" y="277"/>
    </contour>
    <contour>
      <point x="274" y="-176" type="curve" smooth="yes"/>
      <point x="317" y="-176"/>
      <point x="366" y="-148"/>
      <point x="382" y="-102" type="curve"/>
      <point x="171" y="-102" type="line"/>
      <point x="188" y="-145"/>
      <point x="232" y="-176"/>
    </contour>
    <contour>
      <point x="195" y="16" type="curve"/>
      <point x="184" y="0"/>
      <point x="169" y="-18"/>
      <point x="165" y="-47" type="curve"/>
      <point x="382" y="-47" type="line"/>
      <point x="356" y="3"/>
      <point x="239" y="12"/>
    </contour>
  </outline>
</glyph>
<glyph name="Aringacute" format="1">
  <advance width="686"/>
  <unicode hex="01FA"/>
  <outline>
    <contour>
      <point x="681" y="0" type="line"/>
      <point x="405" y="0" type="line"/>
      <point x="405" y="51" type="line"/>
      <point x="464" y="58" type="line" smooth="yes"/>
      <point x="470" y="59"/>
      <point x="476" y="68"/>
      <point x="473" y="75" type="curve" smooth="yes"/>
      <point x="419" y="234" type="line"/>
      <point x="205" y="234" type="line"/>
      <point x="150" y="79" type="line" smooth="yes"/>
      <point x="146" y="69"/>
      <point x="157" y="59"/>
      <point x="164" y="58" type="curve" smooth="yes"/>
      <point x="220" y="51" type="line"/>
      <point x="220" y="0" type="line"/>
      <point x="5" y="0" type="line"/>
      <point x="5" y="51" type="line"/>
      <point x="61" y="59" type="line"/>
      <point x="285" y="687" type="line"/>
      <point x="399" y="687" type="line"/>
      <point x="621" y="77" type="line" smooth="yes"/>
      <point x="626" y="65"/>
      <point x="629" y="61"/>
      <point x="643" y="58" type="curve" smooth="yes"/>
      <point x="681" y="51" type="line"/>
    </contour>
    <contour>
      <point x="394" y="293" type="line"/>
      <point x="308" y="533" type="line"/>
      <point x="224" y="293" type="line"/>
    </contour>
    <contour>
      <point x="466" y="872" type="curve" smooth="yes"/>
      <point x="466" y="802"/>
      <point x="409" y="746"/>
      <point x="339" y="746" type="curve" smooth="yes"/>
      <point x="270" y="746"/>
      <point x="213" y="802"/>
      <point x="213" y="872" type="curve" smooth="yes"/>
      <point x="213" y="942"/>
      <point x="270" y="999"/>
      <point x="339" y="999" type="curve" smooth="yes"/>
      <point x="409" y="999"/>
      <point x="466" y="942"/>
    </contour>
    <contour>
      <point x="402" y="872" type="curve" smooth="yes"/>
      <point x="402" y="907"/>
      <point x="374" y="936"/>
      <point x="339" y="936" type="curve" smooth="yes"/>
      <point x="305" y="936"/>
      <point x="276" y="907"/>
      <point x="276" y="872" type="curve" smooth="yes"/>
      <point x="276" y="837"/>
      <point x="305" y="809"/>
      <point x="339" y="809" type="curve" smooth="yes"/>
      <point x="374" y="809"/>
      <point x="402" y="837"/>
    </contour>
    <contour>
      <point x="500" y="1150" type="curve" smooth="yes"/>
      <point x="500" y="1137"/>
      <point x="489" y="1116"/>
      <point x="475" y="1108" type="curve" smooth="yes"/>
      <point x="312" y="1020" type="line"/>
      <point x="243" y="1020" type="line"/>
      <point x="379" y="1171" type="line" smooth="yes"/>
      <point x="402" y="1196"/>
      <point x="415" y="1203"/>
      <point x="442" y="1203" type="curve" smooth="yes"/>
      <point x="485" y="1203"/>
      <point x="500" y="1174"/>
    </contour>
  </outline>
</glyph>
<glyph name="AEacute" format="1">
  <advance width="969"/>
  <unicode hex="01FC"/>
  <outline>
    <contour>
      <point x="939" y="0" type="line"/>
      <point x="401" y="0" type="line"/>
      <point x="401" y="51" type="line"/>
      <point x="453" y="55" type="line" smooth="yes"/>
      <point x="467" y="56"/>
      <point x="479" y="68"/>
      <point x="479" y="77" type="curve" smooth="yes"/>
      <point x="479" y="244" type="line"/>
      <point x="258" y="244" type="line"/>
      <point x="159" y="77" type="line" smooth="yes"/>
      <point x="153" y="66"/>
      <point x="157" y="57"/>
      <point x="166" y="56" type="curve" smooth="yes"/>
      <point x="223" y="51" type="line"/>
      <point x="223" y="0" type="line"/>
      <point x="5" y="0" type="line"/>
      <point x="5" y="51" type="line"/>
      <point x="66" y="58" type="line"/>
      <point x="384" y="594" type="line" smooth="yes"/>
      <point x="390" y="604"/>
      <point x="379" y="614"/>
      <point x="370" y="615" type="curve" smooth="yes"/>
      <point x="321" y="620" type="line"/>
      <point x="321" y="671" type="line"/>
      <point x="907" y="671" type="line"/>
      <point x="907" y="511" type="line"/>
      <point x="835" y="511" type="line"/>
      <point x="821" y="594" type="line" smooth="yes"/>
      <point x="819" y="604"/>
      <point x="814" y="613"/>
      <point x="804" y="613" type="curve" smooth="yes"/>
      <point x="622" y="613" type="line"/>
      <point x="622" y="378" type="line"/>
      <point x="733" y="378" type="line" smooth="yes"/>
      <point x="742" y="378"/>
      <point x="750" y="389"/>
      <point x="751" y="396" type="curve" smooth="yes"/>
      <point x="760" y="464" type="line"/>
      <point x="822" y="464" type="line"/>
      <point x="822" y="229" type="line"/>
      <point x="760" y="229" type="line"/>
      <point x="751" y="298" type="line" smooth="yes"/>
      <point x="750" y="305"/>
      <point x="741" y="315"/>
      <point x="733" y="315" type="curve" smooth="yes"/>
      <point x="622" y="315" type="line"/>
      <point x="622" y="60" type="line"/>
      <point x="833" y="60" type="line" smooth="yes"/>
      <point x="841" y="60"/>
      <point x="849" y="72"/>
      <point x="850" y="79" type="curve" smooth="yes"/>
      <point x="866" y="183" type="line"/>
      <point x="939" y="183" type="line"/>
    </contour>
    <contour>
      <point x="479" y="306" type="line"/>
      <point x="479" y="614" type="line"/>
      <point x="295" y="306" type="line"/>
    </contour>
    <contour>
      <point x="721" y="876" type="curve" smooth="yes"/>
      <point x="721" y="863"/>
      <point x="709" y="842"/>
      <point x="695" y="834" type="curve" smooth="yes"/>
      <point x="533" y="746" type="line"/>
      <point x="463" y="746" type="line"/>
      <point x="600" y="897" type="line" smooth="yes"/>
      <point x="623" y="922"/>
      <point x="636" y="929"/>
      <point x="663" y="929" type="curve" smooth="yes"/>
      <point x="706" y="929"/>
      <point x="721" y="900"/>
    </contour>
  </outline>
</glyph>
<glyph name="uni0206" format="1">
  <advance width="598"/>
  <unicode hex="0206"/>
  <outline>
    <contour>
      <point x="568" y="0" type="line"/>
      <point x="26" y="0" type="line"/>
      <point x="26" y="51" type="line"/>
      <point x="81" y="56" type="line" smooth="yes"/>
      <point x="93" y="57"/>
      <point x="104" y="65"/>
      <point x="104" y="78" type="curve" smooth="yes"/>
      <point x="104" y="593" type="line" smooth="yes"/>
      <point x="104" y="606"/>
      <point x="93" y="614"/>
      <point x="81" y="615" type="curve" smooth="yes"/>
      <point x="26" y="620" type="line"/>
      <point x="26" y="671" type="line"/>
      <point x="536" y="671" type="line"/>
      <point x="536" y="511" type="line"/>
      <point x="464" y="511" type="line"/>
      <point x="448" y="594" type="line" smooth="yes"/>
      <point x="446" y="604"/>
      <point x="439" y="613"/>
      <point x="430" y="613" type="curve" smooth="yes"/>
      <point x="244" y="613" type="line"/>
      <point x="244" y="378" type="line"/>
      <point x="363" y="378" type="line" smooth="yes"/>
      <point x="372" y="378"/>
      <point x="379" y="389"/>
      <point x="380" y="396" type="curve" smooth="yes"/>
      <point x="389" y="464" type="line"/>
      <point x="451" y="464" type="line"/>
      <point x="451" y="229" type="line"/>
      <point x="389" y="229" type="line"/>
      <point x="380" y="297" type="line" smooth="yes"/>
      <point x="379" y="304"/>
      <point x="372" y="315"/>
      <point x="363" y="315" type="curve" smooth="yes"/>
      <point x="244" y="315" type="line"/>
      <point x="244" y="60" type="line"/>
      <point x="462" y="60" type="line" smooth="yes"/>
      <point x="470" y="60"/>
      <point x="479" y="72"/>
      <point x="480" y="79" type="curve" smooth="yes"/>
      <point x="495" y="183" type="line"/>
      <point x="568" y="183" type="line"/>
    </contour>
    <contour>
      <point x="454" y="746" type="curve"/>
      <point x="400" y="746" type="line"/>
      <point x="387" y="806"/>
      <point x="341" y="827"/>
      <point x="296" y="827" type="curve" smooth="yes"/>
      <point x="252" y="827"/>
      <point x="205" y="806"/>
      <point x="192" y="746" type="curve"/>
      <point x="141" y="746" type="line"/>
      <point x="141" y="836"/>
      <point x="191" y="909"/>
      <point x="296" y="909" type="curve" smooth="yes"/>
      <point x="401" y="909"/>
      <point x="454" y="836"/>
    </contour>
  </outline>
</glyph>
<glyph name="uni0208" format="1">
  <advance width="358"/>
  <unicode hex="0208"/>
  <outline>
    <contour>
      <point x="335" y="0" type="line"/>
      <point x="23" y="0" type="line"/>
      <point x="23" y="51" type="line"/>
      <point x="85" y="56" type="line" smooth="yes"/>
      <point x="97" y="57"/>
      <point x="107" y="65"/>
      <point x="107" y="78" type="curve" smooth="yes"/>
      <point x="107" y="593" type="line" smooth="yes"/>
      <point x="107" y="606"/>
      <point x="97" y="614"/>
      <point x="85" y="615" type="curve" smooth="yes"/>
      <point x="23" y="620" type="line"/>
      <point x="23" y="671" type="line"/>
      <point x="335" y="671" type="line"/>
      <point x="335" y="620" type="line"/>
      <point x="273" y="615" type="line" smooth="yes"/>
      <point x="262" y="614"/>
      <point x="250" y="606"/>
      <point x="250" y="593" type="curve" smooth="yes"/>
      <point x="250" y="78" type="line" smooth="yes"/>
      <point x="250" y="65"/>
      <point x="262" y="57"/>
      <point x="273" y="56" type="curve" smooth="yes"/>
      <point x="335" y="51" type="line"/>
    </contour>
    <contour>
      <point x="372" y="746" type="line"/>
      <point x="301" y="746" type="line"/>
      <point x="141" y="834" type="line" smooth="yes"/>
      <point x="126" y="842"/>
      <point x="114" y="863"/>
      <point x="114" y="876" type="curve" smooth="yes"/>
      <point x="114" y="900"/>
      <point x="128" y="929"/>
      <point x="171" y="929" type="curve" smooth="yes"/>
      <point x="198" y="929"/>
      <point x="212" y="922"/>
      <point x="234" y="897" type="curve" smooth="yes"/>
    </contour>
    <contour>
      <point x="156" y="746" type="line"/>
      <point x="87" y="746" type="line"/>
      <point x="-75" y="834" type="line" smooth="yes"/>
      <point x="-89" y="842"/>
      <point x="-101" y="863"/>
      <point x="-101" y="876" type="curve" smooth="yes"/>
      <point x="-101" y="900"/>
      <point x="-86" y="929"/>
      <point x="-43" y="929" type="curve" smooth="yes"/>
      <point x="-16" y="929"/>
      <point x="-2" y="922"/>
      <point x="21" y="897" type="curve" smooth="yes"/>
    </contour>
  </outline>
</glyph>
<glyph name="uni020D" format="1">
  <advance width="583"/>
  <unicode hex="020D"/>
  <outline>
    <contour>
      <point x="553" y="241" type="curve" smooth="yes"/>
      <point x="553" y="92"/>
      <point x="455" y="-12"/>
      <point x="289" y="-12" type="curve" smooth="yes"/>
      <point x="137" y="-12"/>
      <point x="32" y="84"/>
      <point x="32" y="242" type="curve" smooth="yes"/>
      <point x="32" y="406"/>
      <point x="141" y="500"/>
      <point x="296" y="500" type="curve" smooth="yes"/>
      <point x="461" y="500"/>
      <point x="553" y="393"/>
    </contour>
    <contour>
      <point x="404" y="242" type="curve" smooth="yes"/>
      <point x="404" y="327"/>
      <point x="384" y="443"/>
      <point x="292" y="443" type="curve" smooth="yes"/>
      <point x="202" y="443"/>
      <point x="182" y="332"/>
      <point x="182" y="246" type="curve" smooth="yes"/>
      <point x="182" y="160"/>
      <point x="200" y="44"/>
      <point x="293" y="44" type="curve" smooth="yes"/>
      <point x="384" y="44"/>
      <point x="404" y="153"/>
    </contour>
    <contour>
      <point x="485" y="551" type="line"/>
      <point x="415" y="551" type="line"/>
      <point x="254" y="639" type="line" smooth="yes"/>
      <point x="239" y="647"/>
      <point x="228" y="668"/>
      <point x="228" y="681" type="curve" smooth="yes"/>
      <point x="228" y="705"/>
      <point x="242" y="734"/>
      <point x="285" y="734" type="curve" smooth="yes"/>
      <point x="312" y="734"/>
      <point x="326" y="727"/>
      <point x="348" y="702" type="curve" smooth="yes"/>
    </contour>
    <contour>
      <point x="270" y="551" type="line"/>
      <point x="201" y="551" type="line"/>
      <point x="39" y="639" type="line" smooth="yes"/>
      <point x="25" y="647"/>
      <point x="13" y="668"/>
      <point x="13" y="681" type="curve" smooth="yes"/>
      <point x="13" y="705"/>
      <point x="27" y="734"/>
      <point x="70" y="734" type="curve" smooth="yes"/>
      <point x="97" y="734"/>
      <point x="111" y="727"/>
      <point x="134" y="702" type="curve" smooth="yes"/>
    </contour>
  </outline>
</glyph>
<glyph name="uni0212" format="1">
  <advance width="704"/>
  <unicode hex="0212"/>
  <outline>
    <contour>
      <point x="704" y="0" type="line"/>
      <point x="660" y="-5"/>
      <point x="630" y="-16"/>
      <point x="605" y="-16" type="curve" smooth="yes"/>
      <point x="347" y="-16"/>
      <point x="463" y="294"/>
      <point x="267" y="294" type="curve" smooth="yes"/>
      <point x="247" y="294" type="line"/>
      <point x="247" y="78" type="line" smooth="yes"/>
      <point x="247" y="65"/>
      <point x="257" y="57"/>
      <point x="269" y="56" type="curve" smooth="yes"/>
      <point x="324" y="51" type="line"/>
      <point x="324" y="0" type="line"/>
      <point x="28" y="0" type="line"/>
      <point x="28" y="51" type="line"/>
      <point x="81" y="56" type="line" smooth="yes"/>
      <point x="93" y="57"/>
      <point x="104" y="65"/>
      <point x="104" y="78" type="curve" smooth="yes"/>
      <point x="104" y="593" type="line" smooth="yes"/>
      <point x="104" y="606"/>
      <point x="93" y="614"/>
      <point x="81" y="615" type="curve" smooth="yes"/>
      <point x="28" y="620" type="line"/>
      <point x="28" y="671" type="line"/>
      <point x="360" y="671" type="line" smooth="yes"/>
      <point x="434" y="671"/>
      <point x="578" y="647"/>
      <point x="578" y="505" type="curve" smooth="yes"/>
      <point x="578" y="370"/>
      <point x="458" y="338"/>
      <point x="404" y="330" type="curve"/>
      <point x="623" y="287"/>
      <point x="484" y="25"/>
      <point x="704" y="51" type="curve"/>
    </contour>
    <contour>
      <point x="428" y="486" type="curve" smooth="yes"/>
      <point x="428" y="570"/>
      <point x="376" y="611"/>
      <point x="279" y="611" type="curve" smooth="yes"/>
      <point x="279" y="611"/>
      <point x="264" y="612"/>
      <point x="247" y="611" type="curve"/>
      <point x="247" y="355" type="line"/>
      <point x="264" y="354"/>
      <point x="275" y="353"/>
      <point x="280" y="353" type="curve" smooth="yes"/>
      <point x="343" y="353"/>
      <point x="428" y="372"/>
    </contour>
    <contour>
      <point x="472" y="746" type="curve"/>
      <point x="418" y="746" type="line"/>
      <point x="405" y="806"/>
      <point x="359" y="827"/>
      <point x="314" y="827" type="curve" smooth="yes"/>
      <point x="270" y="827"/>
      <point x="223" y="806"/>
      <point x="210" y="746" type="curve"/>
      <point x="159" y="746" type="line"/>
      <point x="159" y="836"/>
      <point x="209" y="909"/>
      <point x="314" y="909" type="curve" smooth="yes"/>
      <point x="419" y="909"/>
      <point x="472" y="836"/>
    </contour>
  </outline>
</glyph>
<glyph name="uni0213" format="1">
  <advance width="432"/>
  <unicode hex="0213"/>
  <outline>
    <contour>
      <point x="422" y="330" type="line"/>
      <point x="354" y="330" type="line"/>
      <point x="345" y="343"/>
      <point x="328" y="370"/>
      <point x="289" y="370" type="curve" smooth="yes"/>
      <point x="251" y="370"/>
      <point x="224" y="352"/>
      <point x="224" y="352" type="curve"/>
      <point x="224" y="72" type="line" smooth="yes"/>
      <point x="224" y="60"/>
      <point x="233" y="49"/>
      <point x="246" y="49" type="curve" smooth="yes"/>
      <point x="310" y="46" type="line"/>
      <point x="310" y="-1" type="line"/>
      <point x="24" y="-1" type="line"/>
      <point x="24" y="46" type="line"/>
      <point x="68" y="49" type="line" smooth="yes"/>
      <point x="80" y="50"/>
      <point x="90" y="60"/>
      <point x="90" y="72" type="curve" smooth="yes"/>
      <point x="90" y="408" type="line"/>
      <point x="17" y="408" type="line"/>
      <point x="17" y="449" type="line"/>
      <point x="172" y="500" type="line"/>
      <point x="224" y="500" type="line"/>
      <point x="224" y="394" type="line"/>
      <point x="249" y="426"/>
      <point x="313" y="500"/>
      <point x="359" y="500" type="curve" smooth="yes"/>
      <point x="382" y="500"/>
      <point x="410" y="491"/>
      <point x="422" y="482" type="curve"/>
    </contour>
    <contour>
      <point x="391" y="551" type="curve"/>
      <point x="338" y="551" type="line"/>
      <point x="325" y="611"/>
      <point x="279" y="632"/>
      <point x="234" y="632" type="curve" smooth="yes"/>
      <point x="190" y="632"/>
      <point x="143" y="611"/>
      <point x="130" y="551" type="curve"/>
      <point x="78" y="551" type="line"/>
      <point x="78" y="641"/>
      <point x="129" y="714"/>
      <point x="234" y="714" type="curve" smooth="yes"/>
      <point x="339" y="714"/>
      <point x="391" y="641"/>
    </contour>
  </outline>
</glyph>
<glyph name="uni021D" format="1">
  <advance width="478"/>
  <unicode hex="021D"/>
  <outline>
    <contour>
      <point x="433" y="377" type="curve" smooth="yes"/>
      <point x="433" y="299"/>
      <point x="383" y="239"/>
      <point x="309" y="192" type="curve"/>
      <point x="386" y="179"/>
      <point x="444" y="143"/>
      <point x="444" y="72" type="curve" smooth="yes"/>
      <point x="444" y="-73"/>
      <point x="234" y="-184"/>
      <point x="49" y="-237" type="curve"/>
      <point x="49" y="-174" type="line"/>
      <point x="227" y="-91"/>
      <point x="295" y="-2"/>
      <point x="295" y="62" type="curve" smooth="yes"/>
      <point x="295" y="115"/>
      <point x="278" y="148"/>
      <point x="233" y="153" type="curve"/>
      <point x="196" y="136"/>
      <point x="157" y="121"/>
      <point x="116" y="108" type="curve"/>
      <point x="116" y="170" type="line"/>
      <point x="254" y="232"/>
      <point x="284" y="297"/>
      <point x="284" y="362" type="curve" smooth="yes"/>
      <point x="284" y="408"/>
      <point x="240" y="429"/>
      <point x="200" y="429" type="curve" smooth="yes"/>
      <point x="160" y="429"/>
      <point x="128" y="422"/>
      <point x="109" y="404" type="curve"/>
      <point x="97" y="319" type="line"/>
      <point x="35" y="319" type="line"/>
      <point x="35" y="463" type="line"/>
      <point x="113" y="493"/>
      <point x="171" y="500"/>
      <point x="231" y="500" type="curve" smooth="yes"/>
      <point x="339" y="500"/>
      <point x="433" y="465"/>
    </contour>
  </outline>
</glyph>
<glyph name="uni0234" format="1">
  <advance width="425"/>
  <unicode hex="0234"/>
  <outline>
    <contour>
      <point x="426" y="121" type="curve" smooth="yes"/>
      <point x="426" y="35"/>
      <point x="333" y="-12"/>
      <point x="270" y="-12" type="curve" smooth="yes"/>
      <point x="222" y="-12"/>
      <point x="158" y="2"/>
      <point x="124" y="38" type="curve"/>
      <point x="99" y="2"/>
      <point x="61" y="-75"/>
      <point x="44" y="-112" type="curve"/>
      <point x="0" y="-73" type="line"/>
      <point x="20" y="-16"/>
      <point x="63" y="55"/>
      <point x="100" y="99" type="curve"/>
      <point x="100" y="649" type="line"/>
      <point x="29" y="649" type="line"/>
      <point x="29" y="690" type="line"/>
      <point x="182" y="740" type="line"/>
      <point x="233" y="740" type="line"/>
      <point x="233" y="195" type="line"/>
      <point x="260" y="204"/>
      <point x="289" y="213"/>
      <point x="321" y="213" type="curve" smooth="yes"/>
      <point x="391" y="213"/>
      <point x="426" y="184"/>
    </contour>
    <contour>
      <point x="362" y="116" type="curve" smooth="yes"/>
      <point x="362" y="146"/>
      <point x="344" y="157"/>
      <point x="311" y="157" type="curve" smooth="yes"/>
      <point x="283" y="157"/>
      <point x="258" y="147"/>
      <point x="235" y="137" type="curve"/>
      <point x="239" y="96"/>
      <point x="251" y="48"/>
      <point x="293" y="48" type="curve" smooth="yes"/>
      <point x="332" y="48"/>
      <point x="362" y="93"/>
    </contour>
  </outline>
</glyph>
<glyph name="uni0236" format="1">
  <advance width="375"/>
  <unicode hex="0236"/>
  <outline>
    <contour>
      <point x="404" y="108" type="curve" smooth="yes"/>
      <point x="404" y="40"/>
      <point x="311" y="-12"/>
      <point x="248" y="-12" type="curve" smooth="yes"/>
      <point x="193" y="-12"/>
      <point x="143" y="-6"/>
      <point x="115" y="28" type="curve"/>
      <point x="77" y="-21"/>
      <point x="49" y="-75"/>
      <point x="31" y="-109" type="curve"/>
      <point x="-19" y="-86" type="line"/>
      <point x="0" y="-40"/>
      <point x="37" y="34"/>
      <point x="90" y="95" type="curve"/>
      <point x="90" y="424" type="line"/>
      <point x="24" y="424" type="line"/>
      <point x="24" y="464" type="line"/>
      <point x="101" y="510" type="line"/>
      <point x="155" y="616" type="line"/>
      <point x="224" y="616" type="line"/>
      <point x="224" y="488" type="line"/>
      <point x="363" y="488" type="line"/>
      <point x="363" y="424" type="line"/>
      <point x="224" y="424" type="line"/>
      <point x="224" y="195" type="line"/>
      <point x="245" y="203"/>
      <point x="267" y="212"/>
      <point x="291" y="212" type="curve" smooth="yes"/>
      <point x="350" y="212"/>
      <point x="404" y="175"/>
    </contour>
    <contour>
      <point x="323" y="110" type="curve" smooth="yes"/>
      <point x="323" y="129"/>
      <point x="310" y="144"/>
      <point x="290" y="144" type="curve" smooth="yes"/>
      <point x="264" y="144"/>
      <point x="246" y="132"/>
      <point x="224" y="121" type="curve"/>
      <point x="224" y="87"/>
      <point x="229" y="57"/>
      <point x="271" y="57" type="curve" smooth="yes"/>
      <point x="296" y="57"/>
      <point x="323" y="83"/>
    </contour>
  </outline>
</glyph>
<glyph name="uni023C" format="1">
  <advance width="501"/>
  <unicode hex="023C"/>
  <outline>
    <contour>
      <point x="471" y="44" type="line"/>
      <point x="437" y="29"/>
      <point x="375" y="-12"/>
      <point x="274" y="-12" type="curve" smooth="yes"/>
      <point x="118" y="-12"/>
      <point x="32" y="103"/>
      <point x="32" y="234" type="curve" smooth="yes"/>
      <point x="32" y="392"/>
      <point x="147" y="500"/>
      <point x="290" y="500" type="curve" smooth="yes"/>
      <point x="395" y="500"/>
      <point x="463" y="454"/>
      <point x="463" y="390" type="curve" smooth="yes"/>
      <point x="463" y="345"/>
      <point x="428" y="315"/>
      <point x="392" y="315" type="curve" smooth="yes"/>
      <point x="350" y="315"/>
      <point x="339" y="327"/>
      <point x="325" y="336" type="curve"/>
      <point x="325" y="448" type="line"/>
      <point x="317" y="448"/>
      <point x="313" y="449"/>
      <point x="306" y="449" type="curve" smooth="yes"/>
      <point x="245" y="449"/>
      <point x="179" y="387"/>
      <point x="179" y="263" type="curve" smooth="yes"/>
      <point x="179" y="146"/>
      <point x="237" y="72"/>
      <point x="331" y="72" type="curve" smooth="yes"/>
      <point x="392" y="72"/>
      <point x="458" y="111"/>
      <point x="471" y="121" type="curve"/>
    </contour>
    <contour>
      <point x="454" y="549" type="line"/>
      <point x="102" y="-83" type="line"/>
      <point x="58" y="-55" type="line"/>
      <point x="410" y="574" type="line"/>
    </contour>
  </outline>
</glyph>
<glyph name="uni0249" format="1">
  <advance width="324"/>
  <unicode hex="0249"/>
  <outline>
    <contour>
      <point x="243" y="663" type="curve" smooth="yes"/>
      <point x="243" y="620"/>
      <point x="209" y="585"/>
      <point x="166" y="585" type="curve" smooth="yes"/>
      <point x="123" y="585"/>
      <point x="88" y="620"/>
      <point x="88" y="663" type="curve" smooth="yes"/>
      <point x="88" y="706"/>
      <point x="123" y="740"/>
      <point x="166" y="740" type="curve" smooth="yes"/>
      <point x="209" y="740"/>
      <point x="243" y="706"/>
    </contour>
    <contour>
      <point x="311" y="217" type="line"/>
      <point x="233" y="217" type="line"/>
      <point x="233" y="47" type="line" smooth="yes"/>
      <point x="233" y="-26"/>
      <point x="216" y="-97"/>
      <point x="178" y="-150" type="curve" smooth="yes"/>
      <point x="142" y="-199"/>
      <point x="87" y="-231"/>
      <point x="10" y="-231" type="curve" smooth="yes"/>
      <point x="-44" y="-231"/>
      <point x="-90" y="-204"/>
      <point x="-90" y="-155" type="curve" smooth="yes"/>
      <point x="-90" y="-119"/>
      <point x="-60" y="-91"/>
      <point x="-26" y="-88" type="curve"/>
      <point x="72" y="-187" type="line"/>
      <point x="103" y="-136"/>
      <point x="100" y="-5"/>
      <point x="100" y="-5" type="curve"/>
      <point x="100" y="217" type="line"/>
      <point x="13" y="217" type="line"/>
      <point x="13" y="280" type="line"/>
      <point x="100" y="280" type="line"/>
      <point x="100" y="409" type="line"/>
      <point x="29" y="409" type="line"/>
      <point x="29" y="450" type="line"/>
      <point x="182" y="500" type="line"/>
      <point x="233" y="500" type="line"/>
      <point x="233" y="280" type="line"/>
      <point x="311" y="280" type="line"/>
    </contour>
  </outline>
</glyph>
<glyph name="uni024B" format="1">
  <advance width="615"/>
  <unicode hex="024B"/>
  <outline>
    <contour>
      <point x="718" y="-157" type="curve" smooth="yes"/>
      <point x="718" y="-209"/>
      <point x="656" y="-231"/>
      <point x="612" y="-231" type="curve" smooth="yes"/>
      <point x="480" y="-231"/>
      <point x="379" y="-183"/>
      <point x="379" y="-24" type="curve" smooth="yes"/>
      <point x="379" y="39" type="line"/>
      <point x="379" y="39"/>
      <point x="309" y="-12"/>
      <point x="228" y="-12" type="curve" smooth="yes"/>
      <point x="108" y="-12"/>
      <point x="32" y="100"/>
      <point x="32" y="229" type="curve" smooth="yes"/>
      <point x="32" y="418"/>
      <point x="166" y="500"/>
      <point x="355" y="500" type="curve" smooth="yes"/>
      <point x="423" y="500"/>
      <point x="513" y="488"/>
      <point x="513" y="488" type="curve"/>
      <point x="512" y="10"/>
      <point x="513" y="-27"/>
      <point x="513" y="-26" type="curve"/>
      <point x="513" y="-96"/>
      <point x="535" y="-185"/>
      <point x="567" y="-179" type="curve"/>
      <point x="645" y="-79" type="line"/>
      <point x="703" y="-79"/>
      <point x="718" y="-123"/>
    </contour>
    <contour>
      <point x="379" y="79" type="curve"/>
      <point x="379" y="437" type="line"/>
      <point x="379" y="437"/>
      <point x="362" y="441"/>
      <point x="339" y="441" type="curve" smooth="yes"/>
      <point x="220" y="441"/>
      <point x="178" y="359"/>
      <point x="178" y="252" type="curve" smooth="yes"/>
      <point x="178" y="143"/>
      <point x="229" y="75"/>
      <point x="315" y="75" type="curve" smooth="yes"/>
      <point x="344" y="75"/>
      <point x="379" y="79"/>
    </contour>
  </outline>
</glyph>
<glyph name="uni0254" format="1">
  <advance width="501"/>
  <unicode hex="0254"/>
  <outline>
    <contour>
      <point x="471" y="253" type="curve" smooth="yes"/>
      <point x="471" y="96"/>
      <point x="355" y="-12"/>
      <point x="213" y="-12" type="curve" smooth="yes"/>
      <point x="107" y="-12"/>
      <point x="39" y="34"/>
      <point x="39" y="98" type="curve" smooth="yes"/>
      <point x="39" y="143"/>
      <point x="74" y="172"/>
      <point x="111" y="172" type="curve" smooth="yes"/>
      <point x="152" y="172"/>
      <point x="163" y="161"/>
      <point x="178" y="151" type="curve"/>
      <point x="178" y="40" type="line"/>
      <point x="186" y="39"/>
      <point x="189" y="39"/>
      <point x="197" y="39" type="curve" smooth="yes"/>
      <point x="258" y="39"/>
      <point x="324" y="101"/>
      <point x="324" y="225" type="curve" smooth="yes"/>
      <point x="324" y="342"/>
      <point x="265" y="416"/>
      <point x="172" y="416" type="curve" smooth="yes"/>
      <point x="110" y="416"/>
      <point x="44" y="377"/>
      <point x="32" y="367" type="curve"/>
      <point x="32" y="443" type="line"/>
      <point x="65" y="459"/>
      <point x="128" y="500"/>
      <point x="228" y="500" type="curve" smooth="yes"/>
      <point x="385" y="500"/>
      <point x="471" y="385"/>
    </contour>
  </outline>
</glyph>
<glyph name="uni025A" format="1">
  <advance width="695"/>
  <unicode hex="025A"/>
  <outline>
    <contour>
      <point x="710" y="360" type="line"/>
      <point x="701" y="314"/>
      <point x="684" y="245"/>
      <point x="608" y="245" type="curve" smooth="yes"/>
      <point x="560" y="245"/>
      <point x="526" y="292"/>
      <point x="526" y="336" type="curve" smooth="yes"/>
      <point x="526" y="417" type="line"/>
      <point x="468" y="378" type="line"/>
      <point x="488" y="340"/>
      <point x="498" y="294"/>
      <point x="498" y="247" type="curve" smooth="yes"/>
      <point x="498" y="97"/>
      <point x="398" y="-12"/>
      <point x="246" y="-12" type="curve" smooth="yes"/>
      <point x="120" y="-12"/>
      <point x="59" y="60"/>
      <point x="39" y="147" type="curve"/>
      <point x="335" y="345" type="line"/>
      <point x="310" y="391"/>
      <point x="266" y="417"/>
      <point x="206" y="417" type="curve" smooth="yes"/>
      <point x="105" y="417"/>
      <point x="32" y="361"/>
      <point x="32" y="361" type="curve"/>
      <point x="32" y="441" type="line"/>
      <point x="32" y="441"/>
      <point x="115" y="500"/>
      <point x="243" y="500" type="curve" smooth="yes"/>
      <point x="334" y="500"/>
      <point x="401" y="468"/>
      <point x="443" y="417" type="curve"/>
      <point x="535" y="478" type="line"/>
      <point x="574" y="458" type="line"/>
      <point x="574" y="363" type="line" smooth="yes"/>
      <point x="574" y="324"/>
      <point x="580" y="291"/>
      <point x="612" y="291" type="curve" smooth="yes"/>
      <point x="656" y="291"/>
      <point x="662" y="341"/>
      <point x="672" y="381" type="curve"/>
    </contour>
    <contour>
      <point x="359" y="237" type="curve" smooth="yes"/>
      <point x="359" y="259"/>
      <point x="357" y="281"/>
      <point x="353" y="299" type="curve"/>
      <point x="174" y="177" type="line"/>
      <point x="174" y="121"/>
      <point x="182" y="46"/>
      <point x="256" y="46" type="curve" smooth="yes"/>
      <point x="352" y="46"/>
      <point x="359" y="165"/>
    </contour>
  </outline>
</glyph>
<glyph name="uni025E" format="1">
  <advance width="544"/>
  <unicode hex="025E"/>
  <outline>
    <contour>
      <point x="514" y="142" type="curve" smooth="yes"/>
      <point x="514" y="2"/>
      <point x="379" y="-12"/>
      <point x="271" y="-12" type="curve" smooth="yes"/>
      <point x="105" y="-12"/>
      <point x="32" y="93"/>
      <point x="32" y="242" type="curve" smooth="yes"/>
      <point x="32" y="411"/>
      <point x="108" y="500"/>
      <point x="280" y="500" type="curve" smooth="yes"/>
      <point x="371" y="500"/>
      <point x="491" y="467"/>
      <point x="491" y="353" type="curve" smooth="yes"/>
      <point x="491" y="319"/>
      <point x="473" y="280"/>
      <point x="443" y="250" type="curve"/>
      <point x="481" y="231"/>
      <point x="514" y="197"/>
    </contour>
    <contour>
      <point x="387" y="143" type="curve" smooth="yes"/>
      <point x="387" y="180"/>
      <point x="371" y="209"/>
      <point x="295" y="211" type="curve" smooth="yes"/>
      <point x="268" y="212" type="line"/>
      <point x="268" y="260" type="line"/>
      <point x="341" y="260"/>
      <point x="368" y="285"/>
      <point x="368" y="353" type="curve" smooth="yes"/>
      <point x="368" y="421"/>
      <point x="339" y="443"/>
      <point x="279" y="443" type="curve" smooth="yes"/>
      <point x="170" y="443"/>
      <point x="151" y="317"/>
      <point x="151" y="243" type="curve" smooth="yes"/>
      <point x="151" y="154"/>
      <point x="176" y="44"/>
      <point x="267" y="44" type="curve" smooth="yes"/>
      <point x="331" y="44"/>
      <point x="387" y="73"/>
    </contour>
  </outline>
</glyph>
<glyph name="uni0261" format="1">
  <advance width="606"/>
  <unicode hex="0261"/>
  <outline>
    <contour>
      <point x="518" y="10" type="line" smooth="yes"/>
      <point x="518" y="-109"/>
      <point x="475" y="-231"/>
      <point x="264" y="-231" type="curve" smooth="yes"/>
      <point x="143" y="-231"/>
      <point x="66" y="-178"/>
      <point x="66" y="-116" type="curve" smooth="yes"/>
      <point x="66" y="-86"/>
      <point x="101" y="-57"/>
      <point x="131" y="-57" type="curve" smooth="yes"/>
      <point x="145" y="-57"/>
      <point x="167" y="-62"/>
      <point x="167" y="-62" type="curve"/>
      <point x="204" y="-156" type="line"/>
      <point x="230" y="-174"/>
      <point x="247" y="-178"/>
      <point x="276" y="-178" type="curve" smooth="yes"/>
      <point x="333" y="-178"/>
      <point x="385" y="-111"/>
      <point x="385" y="10" type="curve" smooth="yes"/>
      <point x="385" y="57" type="line"/>
      <point x="385" y="57"/>
      <point x="301" y="-12"/>
      <point x="228" y="-12" type="curve" smooth="yes"/>
      <point x="106" y="-12"/>
      <point x="32" y="91"/>
      <point x="32" y="231" type="curve" smooth="yes"/>
      <point x="32" y="403"/>
      <point x="134" y="500"/>
      <point x="275" y="500" type="curve" smooth="yes"/>
      <point x="312" y="500"/>
      <point x="356" y="482"/>
      <point x="391" y="453" type="curve"/>
      <point x="463" y="500" type="line"/>
      <point x="518" y="500" type="line"/>
    </contour>
    <contour>
      <point x="385" y="98" type="curve"/>
      <point x="385" y="389" type="line"/>
      <point x="371" y="412"/>
      <point x="326" y="440"/>
      <point x="297" y="440" type="curve" smooth="yes"/>
      <point x="203" y="440"/>
      <point x="177" y="358"/>
      <point x="177" y="254" type="curve" smooth="yes"/>
      <point x="177" y="150"/>
      <point x="220" y="79"/>
      <point x="307" y="79" type="curve" smooth="yes"/>
      <point x="343" y="79"/>
      <point x="385" y="98"/>
    </contour>
  </outline>
</glyph>
<glyph name="uni0262" format="1">
  <advance width="575"/>
  <unicode hex="0262"/>
  <outline>
    <contour>
      <point x="557" y="200" type="line"/>
      <point x="512" y="196" type="line" smooth="yes"/>
      <point x="504" y="196"/>
      <point x="499" y="187"/>
      <point x="499" y="182" type="curve" smooth="yes"/>
      <point x="499" y="23" type="line"/>
      <point x="495" y="22"/>
      <point x="417" y="-12"/>
      <point x="312" y="-12" type="curve" smooth="yes"/>
      <point x="152" y="-12"/>
      <point x="32" y="90"/>
      <point x="32" y="245" type="curve" smooth="yes"/>
      <point x="32" y="403"/>
      <point x="153" y="500"/>
      <point x="317" y="500" type="curve" smooth="yes"/>
      <point x="421" y="500"/>
      <point x="496" y="472"/>
      <point x="500" y="470" type="curve"/>
      <point x="500" y="337" type="line"/>
      <point x="428" y="337" type="line"/>
      <point x="413" y="419" type="line" smooth="yes"/>
      <point x="412" y="422"/>
      <point x="406" y="428"/>
      <point x="401" y="430" type="curve" smooth="yes"/>
      <point x="378" y="438"/>
      <point x="354" y="442"/>
      <point x="347" y="442" type="curve" smooth="yes"/>
      <point x="215" y="442"/>
      <point x="165" y="347"/>
      <point x="165" y="248" type="curve" smooth="yes"/>
      <point x="165" y="128"/>
      <point x="231" y="53"/>
      <point x="350" y="53" type="curve" smooth="yes"/>
      <point x="357" y="53"/>
      <point x="365" y="51"/>
      <point x="380" y="52" type="curve"/>
      <point x="380" y="182" type="line" smooth="yes"/>
      <point x="380" y="187"/>
      <point x="375" y="196"/>
      <point x="367" y="196" type="curve" smooth="yes"/>
      <point x="309" y="200" type="line"/>
      <point x="309" y="247" type="line"/>
      <point x="557" y="247" type="line"/>
    </contour>
  </outline>
</glyph>
<glyph name="uni0263" format="1">
  <advance width="587"/>
  <unicode hex="0263"/>
  <outline>
    <contour>
      <point x="579" y="441" type="line"/>
      <point x="524" y="435" type="line"/>
      <point x="358" y="85" type="line"/>
      <point x="358" y="85"/>
      <point x="415" y="-37"/>
      <point x="418" y="-44" type="curve" smooth="yes"/>
      <point x="427" y="-63"/>
      <point x="431" y="-84"/>
      <point x="431" y="-106" type="curve" smooth="yes"/>
      <point x="431" y="-165"/>
      <point x="394" y="-231"/>
      <point x="323" y="-231" type="curve" smooth="yes"/>
      <point x="229" y="-231"/>
      <point x="203" y="-190"/>
      <point x="203" y="-124" type="curve" smooth="yes"/>
      <point x="203" y="-107"/>
      <point x="211" y="-77"/>
      <point x="222" y="-56" type="curve" smooth="yes"/>
      <point x="259" y="21" type="line"/>
      <point x="67" y="435" type="line"/>
      <point x="10" y="441" type="line"/>
      <point x="10" y="489" type="line"/>
      <point x="259" y="489" type="line"/>
      <point x="259" y="441" type="line"/>
      <point x="209" y="436" type="line" smooth="yes"/>
      <point x="203" y="435"/>
      <point x="198" y="429"/>
      <point x="202" y="420" type="curve" smooth="yes"/>
      <point x="325" y="158" type="line"/>
      <point x="448" y="420" type="line" smooth="yes"/>
      <point x="452" y="429"/>
      <point x="447" y="435"/>
      <point x="439" y="436" type="curve" smooth="yes"/>
      <point x="396" y="441" type="line"/>
      <point x="396" y="489" type="line"/>
      <point x="579" y="489" type="line"/>
    </contour>
    <contour>
      <point x="326" y="-136" type="curve" smooth="yes"/>
      <point x="326" y="-128"/>
      <point x="323" y="-118"/>
      <point x="318" y="-107" type="curve" smooth="yes"/>
      <point x="316" y="-104"/>
      <point x="292" y="-52"/>
      <point x="292" y="-52" type="curve"/>
      <point x="292" y="-52"/>
      <point x="269" y="-103"/>
      <point x="268" y="-107" type="curve" smooth="yes"/>
      <point x="264" y="-115"/>
      <point x="262" y="-123"/>
      <point x="262" y="-130" type="curve" smooth="yes"/>
      <point x="262" y="-154"/>
      <point x="280" y="-168"/>
      <point x="292" y="-168" type="curve" smooth="yes"/>
      <point x="312" y="-168"/>
      <point x="326" y="-159"/>
    </contour>
  </outline>
</glyph>
<glyph name="uni0269" format="1">
  <advance width="380"/>
  <unicode hex="0269"/>
  <outline>
    <contour>
      <point x="381" y="126" type="line"/>
      <point x="345" y="24"/>
      <point x="266" y="-12"/>
      <point x="214" y="-12" type="curve" smooth="yes"/>
      <point x="156" y="-12"/>
      <point x="90" y="16"/>
      <point x="90" y="123" type="curve" smooth="yes"/>
      <point x="90" y="408" type="line"/>
      <point x="25" y="408" type="line"/>
      <point x="25" y="450" type="line"/>
      <point x="174" y="500" type="line"/>
      <point x="224" y="500" type="line"/>
      <point x="224" y="134" type="line" smooth="yes"/>
      <point x="224" y="87"/>
      <point x="247" y="87"/>
      <point x="254" y="87" type="curve" smooth="yes"/>
      <point x="261" y="87"/>
      <point x="289" y="87"/>
      <point x="308" y="126" type="curve"/>
    </contour>
  </outline>
</glyph>
<glyph name="uni026C" format="1">
  <advance width="384"/>
  <unicode hex="026C"/>
  <outline>
    <contour>
      <point x="385" y="335" type="line"/>
      <point x="356" y="316"/>
      <point x="300" y="274"/>
      <point x="256" y="262" type="curve"/>
      <point x="256" y="73" type="line" smooth="yes"/>
      <point x="256" y="60"/>
      <point x="265" y="51"/>
      <point x="278" y="50" type="curve" smooth="yes"/>
      <point x="329" y="47" type="line"/>
      <point x="329" y="0" type="line"/>
      <point x="52" y="0" type="line"/>
      <point x="52" y="47" type="line"/>
      <point x="101" y="50" type="line" smooth="yes"/>
      <point x="114" y="51"/>
      <point x="123" y="60"/>
      <point x="123" y="73" type="curve" smooth="yes"/>
      <point x="123" y="258" type="line"/>
      <point x="71" y="256"/>
      <point x="-11" y="287"/>
      <point x="-11" y="383" type="curve" smooth="yes"/>
      <point x="-11" y="459"/>
      <point x="52" y="483"/>
      <point x="86" y="483" type="curve" smooth="yes"/>
      <point x="103" y="483"/>
      <point x="115" y="476"/>
      <point x="123" y="468" type="curve"/>
      <point x="123" y="649" type="line"/>
      <point x="52" y="649" type="line"/>
      <point x="52" y="690" type="line"/>
      <point x="205" y="740" type="line"/>
      <point x="256" y="740" type="line"/>
      <point x="256" y="315" type="line"/>
      <point x="307" y="329"/>
      <point x="348" y="365"/>
      <point x="374" y="381" type="curve"/>
    </contour>
    <contour>
      <point x="123" y="310" type="curve"/>
      <point x="123" y="390" type="line"/>
      <point x="115" y="427"/>
      <point x="93" y="432"/>
      <point x="77" y="432" type="curve" smooth="yes"/>
      <point x="58" y="432"/>
      <point x="40" y="419"/>
      <point x="40" y="391" type="curve" smooth="yes"/>
      <point x="40" y="333"/>
      <point x="66" y="318"/>
    </contour>
  </outline>
</glyph>
<glyph name="uni0271" format="1">
  <advance width="894"/>
  <unicode hex="0271"/>
  <outline>
    <contour>
      <point x="820" y="-11" type="line" smooth="yes"/>
      <point x="820" y="-133"/>
      <point x="734" y="-231"/>
      <point x="576" y="-231" type="curve" smooth="yes"/>
      <point x="531" y="-231"/>
      <point x="468" y="-204"/>
      <point x="468" y="-153" type="curve" smooth="yes"/>
      <point x="468" y="-121"/>
      <point x="492" y="-81"/>
      <point x="531" y="-81" type="curve"/>
      <point x="635" y="-181" type="line"/>
      <point x="657" y="-181"/>
      <point x="687" y="-158"/>
      <point x="687" y="-41" type="curve" smooth="yes"/>
      <point x="687" y="314" type="line" smooth="yes"/>
      <point x="687" y="363"/>
      <point x="666" y="408"/>
      <point x="600" y="408" type="curve" smooth="yes"/>
      <point x="557" y="408"/>
      <point x="520" y="392"/>
      <point x="520" y="392" type="curve"/>
      <point x="520" y="73" type="line" smooth="yes"/>
      <point x="520" y="61"/>
      <point x="530" y="51"/>
      <point x="542" y="50" type="curve" smooth="yes"/>
      <point x="573" y="47" type="line"/>
      <point x="573" y="0" type="line"/>
      <point x="333" y="0" type="line"/>
      <point x="333" y="47" type="line"/>
      <point x="364" y="50" type="line" smooth="yes"/>
      <point x="376" y="51"/>
      <point x="386" y="61"/>
      <point x="386" y="73" type="curve" smooth="yes"/>
      <point x="386" y="314" type="line" smooth="yes"/>
      <point x="386" y="363"/>
      <point x="362" y="408"/>
      <point x="300" y="408" type="curve" smooth="yes"/>
      <point x="245" y="408"/>
      <point x="219" y="392"/>
      <point x="219" y="392" type="curve"/>
      <point x="219" y="73" type="line" smooth="yes"/>
      <point x="219" y="61"/>
      <point x="230" y="51"/>
      <point x="242" y="50" type="curve" smooth="yes"/>
      <point x="273" y="47" type="line"/>
      <point x="273" y="0" type="line"/>
      <point x="27" y="0" type="line"/>
      <point x="27" y="47" type="line"/>
      <point x="64" y="50" type="line" smooth="yes"/>
      <point x="76" y="51"/>
      <point x="86" y="61"/>
      <point x="86" y="73" type="curve" smooth="yes"/>
      <point x="86" y="408" type="line"/>
      <point x="22" y="408" type="line"/>
      <point x="22" y="449" type="line"/>
      <point x="169" y="499" type="line"/>
      <point x="219" y="499" type="line"/>
      <point x="219" y="439" type="line"/>
      <point x="219" y="439"/>
      <point x="305" y="500"/>
      <point x="383" y="500" type="curve" smooth="yes"/>
      <point x="459" y="500"/>
      <point x="486" y="454"/>
      <point x="504" y="432" type="curve"/>
      <point x="504" y="432"/>
      <point x="604" y="500"/>
      <point x="682" y="500" type="curve" smooth="yes"/>
      <point x="803" y="500"/>
      <point x="820" y="394"/>
      <point x="820" y="347" type="curve" smooth="yes"/>
    </contour>
  </outline>
</glyph>
<glyph name="uni0272" format="1">
  <advance width="640"/>
  <unicode hex="0272"/>
  <outline>
    <contour>
      <point x="604" y="0" type="line"/>
      <point x="358" y="0" type="line"/>
      <point x="358" y="47" type="line"/>
      <point x="395" y="50" type="line" smooth="yes"/>
      <point x="407" y="51"/>
      <point x="417" y="61"/>
      <point x="417" y="73" type="curve" smooth="yes"/>
      <point x="417" y="308" type="line" smooth="yes"/>
      <point x="417" y="359"/>
      <point x="395" y="408"/>
      <point x="334" y="408" type="curve" smooth="yes"/>
      <point x="279" y="408"/>
      <point x="238" y="395"/>
      <point x="238" y="395" type="curve"/>
      <point x="238" y="-11" type="line" smooth="yes"/>
      <point x="238" y="-133"/>
      <point x="153" y="-231"/>
      <point x="-5" y="-231" type="curve" smooth="yes"/>
      <point x="-50" y="-231"/>
      <point x="-113" y="-204"/>
      <point x="-113" y="-153" type="curve" smooth="yes"/>
      <point x="-113" y="-121"/>
      <point x="-89" y="-81"/>
      <point x="-50" y="-81" type="curve"/>
      <point x="54" y="-181" type="line"/>
      <point x="76" y="-181"/>
      <point x="105" y="-160"/>
      <point x="105" y="-42" type="curve" smooth="yes"/>
      <point x="105" y="408" type="line"/>
      <point x="36" y="408" type="line"/>
      <point x="36" y="449" type="line"/>
      <point x="187" y="500" type="line"/>
      <point x="238" y="500" type="line"/>
      <point x="238" y="439" type="line"/>
      <point x="238" y="439"/>
      <point x="328" y="500"/>
      <point x="414" y="500" type="curve" smooth="yes"/>
      <point x="528" y="500"/>
      <point x="550" y="413"/>
      <point x="550" y="326" type="curve" smooth="yes"/>
      <point x="550" y="73" type="line" smooth="yes"/>
      <point x="550" y="61"/>
      <point x="561" y="51"/>
      <point x="573" y="50" type="curve" smooth="yes"/>
      <point x="604" y="47" type="line"/>
    </contour>
  </outline>
</glyph>
<glyph name="uni0274" format="1">
  <advance width="595"/>
  <unicode hex="0274"/>
  <outline>
    <contour>
      <point x="572" y="441" type="line"/>
      <point x="524" y="437" type="line" smooth="yes"/>
      <point x="517" y="436"/>
      <point x="512" y="432"/>
      <point x="512" y="427" type="curve" smooth="yes"/>
      <point x="512" y="0" type="line"/>
      <point x="408" y="0" type="line"/>
      <point x="153" y="364" type="line"/>
      <point x="153" y="61" type="line" smooth="yes"/>
      <point x="153" y="56"/>
      <point x="157" y="52"/>
      <point x="165" y="51" type="curve" smooth="yes"/>
      <point x="213" y="47" type="line"/>
      <point x="213" y="0" type="line"/>
      <point x="21" y="0" type="line"/>
      <point x="21" y="47" type="line"/>
      <point x="69" y="51" type="line" smooth="yes"/>
      <point x="77" y="52"/>
      <point x="82" y="56"/>
      <point x="82" y="61" type="curve" smooth="yes"/>
      <point x="82" y="427" type="line" smooth="yes"/>
      <point x="82" y="432"/>
      <point x="77" y="436"/>
      <point x="70" y="437" type="curve" smooth="yes"/>
      <point x="22" y="441" type="line"/>
      <point x="22" y="488" type="line"/>
      <point x="227" y="488" type="line"/>
      <point x="227" y="465" type="line"/>
      <point x="441" y="160" type="line"/>
      <point x="441" y="427" type="line" smooth="yes"/>
      <point x="441" y="432"/>
      <point x="437" y="436"/>
      <point x="429" y="437" type="curve" smooth="yes"/>
      <point x="379" y="441" type="line"/>
      <point x="379" y="488" type="line"/>
      <point x="572" y="488" type="line"/>
    </contour>
  </outline>
</glyph>
<glyph name="uni027B" format="1">
  <advance width="432"/>
  <unicode hex="027B"/>
  <outline>
    <contour>
      <point x="538" y="-155" type="curve" smooth="yes"/>
      <point x="538" y="-212"/>
      <point x="482" y="-231"/>
      <point x="442" y="-231" type="curve" smooth="yes"/>
      <point x="303" y="-231"/>
      <point x="208" y="-110"/>
      <point x="208" y="58" type="curve" smooth="yes"/>
      <point x="208" y="94" type="line"/>
      <point x="183" y="62"/>
      <point x="119" y="-12"/>
      <point x="73" y="-12" type="curve" smooth="yes"/>
      <point x="50" y="-12"/>
      <point x="22" y="-3"/>
      <point x="10" y="6" type="curve"/>
      <point x="10" y="158" type="line"/>
      <point x="79" y="158" type="line"/>
      <point x="87" y="145"/>
      <point x="104" y="118"/>
      <point x="144" y="118" type="curve" smooth="yes"/>
      <point x="181" y="118"/>
      <point x="208" y="136"/>
      <point x="208" y="136" type="curve"/>
      <point x="208" y="415" type="line" smooth="yes"/>
      <point x="208" y="427"/>
      <point x="199" y="437"/>
      <point x="187" y="438" type="curve" smooth="yes"/>
      <point x="123" y="441" type="line"/>
      <point x="123" y="488" type="line"/>
      <point x="408" y="488" type="line"/>
      <point x="408" y="441" type="line"/>
      <point x="364" y="438" type="line" smooth="yes"/>
      <point x="352" y="437"/>
      <point x="342" y="427"/>
      <point x="342" y="415" type="curve" smooth="yes"/>
      <point x="342" y="-29" type="line" smooth="yes"/>
      <point x="342" y="-120"/>
      <point x="356" y="-152"/>
      <point x="376" y="-182" type="curve"/>
      <point x="476" y="-89" type="line"/>
      <point x="508" y="-99"/>
      <point x="538" y="-124"/>
    </contour>
  </outline>
</glyph>
<glyph name="uni0287" format="1">
  <advance width="375"/>
  <unicode hex="0287"/>
  <outline>
    <contour>
      <point x="351" y="24" type="line"/>
      <point x="274" y="-22" type="line"/>
      <point x="220" y="-128" type="line"/>
      <point x="152" y="-128" type="line"/>
      <point x="152" y="0" type="line"/>
      <point x="13" y="0" type="line"/>
      <point x="13" y="64" type="line"/>
      <point x="152" y="64" type="line"/>
      <point x="152" y="335" type="line" smooth="yes"/>
      <point x="152" y="400"/>
      <point x="122" y="423"/>
      <point x="70" y="423" type="curve" smooth="yes"/>
      <point x="38" y="423"/>
      <point x="5" y="416"/>
      <point x="5" y="416" type="curve"/>
      <point x="5" y="466" type="line"/>
      <point x="5" y="466"/>
      <point x="84" y="500"/>
      <point x="165" y="500" type="curve" smooth="yes"/>
      <point x="253" y="500"/>
      <point x="285" y="461"/>
      <point x="285" y="376" type="curve" smooth="yes"/>
      <point x="285" y="64" type="line"/>
      <point x="351" y="64" type="line"/>
    </contour>
  </outline>
</glyph>
<glyph name="uni0288" format="1">
  <advance width="375"/>
  <unicode hex="0288"/>
  <outline>
    <contour>
      <point x="371" y="-197" type="line"/>
      <point x="371" y="-197"/>
      <point x="292" y="-231"/>
      <point x="211" y="-231" type="curve" smooth="yes"/>
      <point x="122" y="-231"/>
      <point x="90" y="-192"/>
      <point x="90" y="-108" type="curve" smooth="yes"/>
      <point x="90" y="424" type="line"/>
      <point x="24" y="424" type="line"/>
      <point x="24" y="464" type="line"/>
      <point x="101" y="510" type="line"/>
      <point x="155" y="616" type="line"/>
      <point x="224" y="616" type="line"/>
      <point x="224" y="488" type="line"/>
      <point x="363" y="488" type="line"/>
      <point x="363" y="424" type="line"/>
      <point x="224" y="424" type="line"/>
      <point x="224" y="-67" type="line" smooth="yes"/>
      <point x="224" y="-131"/>
      <point x="253" y="-154"/>
      <point x="306" y="-154" type="curve" smooth="yes"/>
      <point x="338" y="-154"/>
      <point x="371" y="-147"/>
      <point x="371" y="-147" type="curve"/>
    </contour>
  </outline>
</glyph>
<glyph name="uni028A" format="1">
  <advance width="599"/>
  <unicode hex="028A"/>
  <outline>
    <contour>
      <point x="567" y="226" type="curve" smooth="yes"/>
      <point x="567" y="99"/>
      <point x="493" y="-12"/>
      <point x="300" y="-12" type="curve" smooth="yes"/>
      <point x="110" y="-12"/>
      <point x="32" y="99"/>
      <point x="32" y="226" type="curve" smooth="yes"/>
      <point x="32" y="309"/>
      <point x="113" y="383"/>
      <point x="146" y="421" type="curve" smooth="yes"/>
      <point x="151" y="428"/>
      <point x="148" y="435"/>
      <point x="141" y="436" type="curve" smooth="yes"/>
      <point x="83" y="441" type="line"/>
      <point x="83" y="488" type="line"/>
      <point x="234" y="488" type="line"/>
      <point x="178" y="402"/>
      <point x="180" y="329"/>
      <point x="180" y="248" type="curve" smooth="yes"/>
      <point x="180" y="96"/>
      <point x="256" y="37"/>
      <point x="300" y="37" type="curve" smooth="yes"/>
      <point x="344" y="37"/>
      <point x="420" y="96"/>
      <point x="420" y="248" type="curve" smooth="yes"/>
      <point x="420" y="325"/>
      <point x="423" y="402"/>
      <point x="366" y="488" type="curve"/>
      <point x="517" y="488" type="line"/>
      <point x="517" y="441" type="line"/>
      <point x="459" y="436" type="line" smooth="yes"/>
      <point x="452" y="435"/>
      <point x="448" y="428"/>
      <point x="454" y="421" type="curve" smooth="yes"/>
      <point x="486" y="383"/>
      <point x="567" y="309"/>
    </contour>
  </outline>
</glyph>
<glyph name="uni0292" format="1">
  <advance width="560"/>
  <unicode hex="0292"/>
  <outline>
    <contour>
      <point x="528" y="24" type="curve" smooth="yes"/>
      <point x="528" y="-104"/>
      <point x="401" y="-231"/>
      <point x="247" y="-231" type="curve" smooth="yes"/>
      <point x="117" y="-231"/>
      <point x="16" y="-157"/>
      <point x="16" y="-91" type="curve" smooth="yes"/>
      <point x="16" y="-35"/>
      <point x="58" y="-20"/>
      <point x="89" y="-20" type="curve" smooth="yes"/>
      <point x="107" y="-20"/>
      <point x="121" y="-27"/>
      <point x="132" y="-32" type="curve"/>
      <point x="165" y="-144" type="line"/>
      <point x="186" y="-150"/>
      <point x="229" y="-167"/>
      <point x="256" y="-167" type="curve" smooth="yes"/>
      <point x="331" y="-167"/>
      <point x="381" y="-55"/>
      <point x="381" y="23" type="curve" smooth="yes"/>
      <point x="381" y="99"/>
      <point x="350" y="152"/>
      <point x="273" y="152" type="curve" smooth="yes"/>
      <point x="238" y="152"/>
      <point x="234" y="144"/>
      <point x="234" y="144" type="curve"/>
      <point x="207" y="170" type="line"/>
      <point x="359" y="374" type="line"/>
      <point x="152" y="374" type="line" smooth="yes"/>
      <point x="142" y="374"/>
      <point x="133" y="362"/>
      <point x="132" y="353" type="curve" smooth="yes"/>
      <point x="125" y="264" type="line"/>
      <point x="54" y="264" type="line"/>
      <point x="54" y="488" type="line"/>
      <point x="500" y="488" type="line"/>
      <point x="500" y="442" type="line"/>
      <point x="318" y="201" type="line"/>
      <point x="441" y="201"/>
      <point x="528" y="110"/>
    </contour>
  </outline>
</glyph>
<glyph name="uni0293" format="1">
  <advance width="560"/>
  <unicode hex="0293"/>
  <outline>
    <contour>
      <point x="528" y="24" type="curve" smooth="yes"/>
      <point x="528" y="-68"/>
      <point x="473" y="-136"/>
      <point x="399" y="-177" type="curve"/>
      <point x="408" y="-190"/>
      <point x="417" y="-203"/>
      <point x="426" y="-217" type="curve"/>
      <point x="365" y="-251" type="line"/>
      <point x="355" y="-237"/>
      <point x="345" y="-221"/>
      <point x="335" y="-205" type="curve"/>
      <point x="296" y="-218"/>
      <point x="256" y="-230"/>
      <point x="218" y="-230" type="curve" smooth="yes"/>
      <point x="88" y="-230"/>
      <point x="16" y="-189"/>
      <point x="16" y="-96" type="curve" smooth="yes"/>
      <point x="16" y="-40"/>
      <point x="89" y="9"/>
      <point x="145" y="9" type="curve" smooth="yes"/>
      <point x="247" y="9"/>
      <point x="301" y="-42"/>
      <point x="346" y="-100" type="curve"/>
      <point x="369" y="-69"/>
      <point x="381" y="-26"/>
      <point x="381" y="23" type="curve" smooth="yes"/>
      <point x="381" y="99"/>
      <point x="350" y="152"/>
      <point x="273" y="152" type="curve" smooth="yes"/>
      <point x="238" y="152"/>
      <point x="234" y="144"/>
      <point x="234" y="144" type="curve"/>
      <point x="207" y="170" type="line"/>
      <point x="359" y="374" type="line"/>
      <point x="152" y="374" type="line" smooth="yes"/>
      <point x="142" y="374"/>
      <point x="133" y="362"/>
      <point x="132" y="353" type="curve" smooth="yes"/>
      <point x="125" y="264" type="line"/>
      <point x="54" y="264" type="line"/>
      <point x="54" y="488" type="line"/>
      <point x="500" y="488" type="line"/>
      <point x="500" y="442" type="line"/>
      <point x="318" y="201" type="line"/>
      <point x="441" y="201"/>
      <point x="528" y="110"/>
    </contour>
    <contour>
      <point x="292" y="-143" type="curve"/>
      <point x="259" y="-101"/>
      <point x="217" y="-59"/>
      <point x="156" y="-59" type="curve" smooth="yes"/>
      <point x="131" y="-59"/>
      <point x="104" y="-83"/>
      <point x="104" y="-108" type="curve" smooth="yes"/>
      <point x="104" y="-146"/>
      <point x="175" y="-162"/>
      <point x="222" y="-162" type="curve" smooth="yes"/>
      <point x="249" y="-162"/>
      <point x="272" y="-151"/>
    </contour>
  </outline>
</glyph>
<glyph name="uni029B" format="1">
  <advance width="575"/>
  <unicode hex="029B"/>
  <outline>
    <contour>
      <point x="693" y="596" type="curve" smooth="yes"/>
      <point x="693" y="565"/>
      <point x="663" y="541"/>
      <point x="631" y="530" type="curve"/>
      <point x="532" y="623" type="line"/>
      <point x="512" y="593"/>
      <point x="500" y="561"/>
      <point x="500" y="470" type="curve" smooth="yes"/>
      <point x="500" y="337" type="line"/>
      <point x="428" y="337" type="line"/>
      <point x="413" y="419" type="line" smooth="yes"/>
      <point x="412" y="422"/>
      <point x="406" y="428"/>
      <point x="401" y="430" type="curve" smooth="yes"/>
      <point x="378" y="438"/>
      <point x="354" y="442"/>
      <point x="347" y="442" type="curve" smooth="yes"/>
      <point x="215" y="442"/>
      <point x="165" y="347"/>
      <point x="165" y="248" type="curve" smooth="yes"/>
      <point x="165" y="128"/>
      <point x="231" y="53"/>
      <point x="350" y="53" type="curve" smooth="yes"/>
      <point x="357" y="53"/>
      <point x="365" y="51"/>
      <point x="380" y="52" type="curve"/>
      <point x="380" y="177" type="line" smooth="yes"/>
      <point x="380" y="182"/>
      <point x="375" y="196"/>
      <point x="367" y="196" type="curve" smooth="yes"/>
      <point x="309" y="200" type="line"/>
      <point x="309" y="247" type="line"/>
      <point x="557" y="247" type="line"/>
      <point x="557" y="200" type="line"/>
      <point x="512" y="196" type="line" smooth="yes"/>
      <point x="504" y="196"/>
      <point x="499" y="182"/>
      <point x="499" y="177" type="curve" smooth="yes"/>
      <point x="499" y="23" type="line"/>
      <point x="495" y="22"/>
      <point x="417" y="-12"/>
      <point x="312" y="-12" type="curve" smooth="yes"/>
      <point x="152" y="-12"/>
      <point x="32" y="90"/>
      <point x="32" y="245" type="curve" smooth="yes"/>
      <point x="32" y="403"/>
      <point x="153" y="500"/>
      <point x="317" y="500" type="curve" smooth="yes"/>
      <point x="369" y="500"/>
      <point x="393" y="495"/>
      <point x="424" y="489" type="curve"/>
      <point x="424" y="603"/>
      <point x="482" y="672"/>
      <point x="597" y="672" type="curve" smooth="yes"/>
      <point x="637" y="672"/>
      <point x="693" y="653"/>
    </contour>
  </outline>
</glyph>
<glyph name="uni029E" format="1">
  <advance width="591"/>
  <unicode hex="029E"/>
  <outline>
    <contour>
      <point x="573" y="-181" type="line"/>
      <point x="419" y="-231" type="line"/>
      <point x="369" y="-231" type="line"/>
      <point x="369" y="228" type="line"/>
      <point x="347" y="228" type="line"/>
      <point x="212" y="68" type="line" smooth="yes"/>
      <point x="206" y="61"/>
      <point x="209" y="52"/>
      <point x="220" y="51" type="curve" smooth="yes"/>
      <point x="257" y="47" type="line"/>
      <point x="257" y="0" type="line"/>
      <point x="49" y="0" type="line"/>
      <point x="49" y="47" type="line"/>
      <point x="116" y="55" type="line"/>
      <point x="223" y="177" type="line"/>
      <point x="68" y="436" type="line"/>
      <point x="10" y="441" type="line"/>
      <point x="10" y="488" type="line"/>
      <point x="211" y="488" type="line"/>
      <point x="211" y="447" type="line"/>
      <point x="322" y="262" type="line"/>
      <point x="369" y="262" type="line"/>
      <point x="369" y="415" type="line" smooth="yes"/>
      <point x="369" y="427"/>
      <point x="359" y="437"/>
      <point x="347" y="438" type="curve" smooth="yes"/>
      <point x="307" y="441" type="line"/>
      <point x="307" y="488" type="line"/>
      <point x="566" y="488" type="line"/>
      <point x="566" y="441" type="line"/>
      <point x="524" y="438" type="line" smooth="yes"/>
      <point x="512" y="437"/>
      <point x="502" y="427"/>
      <point x="502" y="415" type="curve" smooth="yes"/>
      <point x="502" y="-140" type="line"/>
      <point x="573" y="-140" type="line"/>
    </contour>
  </outline>
</glyph>
<glyph name="uni02A6" format="1">
  <advance width="727"/>
  <unicode hex="02A6"/>
  <outline>
    <contour>
      <point x="695" y="156" type="curve" smooth="yes"/>
      <point x="695" y="30"/>
      <point x="590" y="-12"/>
      <point x="491" y="-12" type="curve" smooth="yes"/>
      <point x="412" y="-12"/>
      <point x="345" y="5"/>
      <point x="322" y="12" type="curve"/>
      <point x="292" y="4"/>
      <point x="251" y="-12"/>
      <point x="210" y="-12" type="curve" smooth="yes"/>
      <point x="122" y="-12"/>
      <point x="90" y="34"/>
      <point x="90" y="118" type="curve" smooth="yes"/>
      <point x="90" y="424" type="line"/>
      <point x="24" y="424" type="line"/>
      <point x="24" y="464" type="line"/>
      <point x="101" y="510" type="line"/>
      <point x="155" y="616" type="line"/>
      <point x="223" y="616" type="line"/>
      <point x="223" y="488" type="line"/>
      <point x="313" y="488" type="line"/>
      <point x="313" y="424" type="line"/>
      <point x="223" y="424" type="line"/>
      <point x="223" y="159" type="line" smooth="yes"/>
      <point x="223" y="95"/>
      <point x="253" y="72"/>
      <point x="305" y="72" type="curve" smooth="yes"/>
      <point x="313" y="72" type="line"/>
      <point x="313" y="167" type="line"/>
      <point x="376" y="167" type="line"/>
      <point x="388" y="75" type="line"/>
      <point x="421" y="52"/>
      <point x="446" y="47"/>
      <point x="481" y="47" type="curve" smooth="yes"/>
      <point x="549" y="47"/>
      <point x="567" y="88"/>
      <point x="567" y="111" type="curve" smooth="yes"/>
      <point x="567" y="210"/>
      <point x="319" y="205"/>
      <point x="319" y="351" type="curve" smooth="yes"/>
      <point x="319" y="446"/>
      <point x="403" y="500"/>
      <point x="520" y="500" type="curve" smooth="yes"/>
      <point x="620" y="500"/>
      <point x="680" y="474"/>
      <point x="680" y="474" type="curve"/>
      <point x="680" y="335" type="line"/>
      <point x="617" y="335" type="line"/>
      <point x="607" y="413" type="line"/>
      <point x="595" y="428"/>
      <point x="562" y="440"/>
      <point x="528" y="440" type="curve" smooth="yes"/>
      <point x="482" y="440"/>
      <point x="453" y="423"/>
      <point x="453" y="388" type="curve" smooth="yes"/>
      <point x="453" y="298"/>
      <point x="695" y="277"/>
    </contour>
  </outline>
</glyph>
<glyph name="uni02AB" format="1">
  <advance width="647"/>
  <unicode hex="02AB"/>
  <outline>
    <contour>
      <point x="615" y="0" type="line"/>
      <point x="29" y="0" type="line"/>
      <point x="29" y="47" type="line"/>
      <point x="78" y="50" type="line" smooth="yes"/>
      <point x="91" y="51"/>
      <point x="100" y="60"/>
      <point x="100" y="73" type="curve" smooth="yes"/>
      <point x="100" y="649" type="line"/>
      <point x="29" y="649" type="line"/>
      <point x="29" y="690" type="line"/>
      <point x="182" y="740" type="line"/>
      <point x="233" y="740" type="line"/>
      <point x="233" y="488" type="line"/>
      <point x="601" y="488" type="line"/>
      <point x="601" y="432" type="line"/>
      <point x="339" y="59" type="line"/>
      <point x="511" y="59" type="line" smooth="yes"/>
      <point x="520" y="59"/>
      <point x="531" y="73"/>
      <point x="533" y="83" type="curve" smooth="yes"/>
      <point x="546" y="168" type="line"/>
      <point x="615" y="168" type="line"/>
    </contour>
    <contour>
      <point x="250" y="410" type="curve" smooth="yes"/>
      <point x="233" y="333" type="line"/>
      <point x="233" y="128" type="line"/>
      <point x="444" y="431" type="line"/>
      <point x="269" y="431" type="line" smooth="yes"/>
      <point x="259" y="431"/>
      <point x="252" y="419"/>
    </contour>
  </outline>
</glyph>
<glyph name="uni02AD" format="1">
  <advance width="471"/>
  <unicode hex="02AD"/>
  <outline>
    <contour>
      <point x="461" y="466" type="line"/>
      <point x="413" y="466" type="line"/>
      <point x="413" y="602" type="line"/>
      <point x="78" y="602" type="line"/>
      <point x="78" y="466" type="line"/>
      <point x="29" y="466" type="line"/>
      <point x="29" y="688" type="line"/>
      <point x="461" y="688" type="line"/>
    </contour>
    <contour>
      <point x="466" y="0" type="line"/>
      <point x="418" y="0" type="line"/>
      <point x="418" y="135" type="line"/>
      <point x="83" y="135" type="line"/>
      <point x="83" y="0" type="line"/>
      <point x="34" y="0" type="line"/>
      <point x="34" y="222" type="line"/>
      <point x="466" y="222" type="line"/>
    </contour>
  </outline>
</glyph>
<glyph name="uni02C5" format="1">
  <advance width="476"/>
  <unicode hex="02C5"/>
  <outline>
    <contour>
      <point x="426" y="775" type="line"/>
      <point x="260" y="415" type="line"/>
      <point x="216" y="415" type="line"/>
      <point x="50" y="775" type="line"/>
      <point x="95" y="775" type="line"/>
      <point x="238" y="453" type="line"/>
      <point x="381" y="775" type="line"/>
    </contour>
  </outline>
</glyph>
<glyph name="uni02D6" format="1">
  <advance width="243"/>
  <unicode hex="02D6"/>
  <outline>
    <contour>
      <point x="243" y="216" type="line"/>
      <point x="150" y="216" type="line"/>
      <point x="150" y="122" type="line"/>
      <point x="93" y="122" type="line"/>
      <point x="93" y="216" type="line"/>
      <point x="0" y="216" type="line"/>
      <point x="0" y="273" type="line"/>
      <point x="93" y="273" type="line"/>
      <point x="93" y="365" type="line"/>
      <point x="150" y="365" type="line"/>
      <point x="150" y="273" type="line"/>
      <point x="243" y="273" type="line"/>
    </contour>
  </outline>
</glyph>
<glyph name="hungarumlaut" format="1">
  <advance width="472"/>
  <unicode hex="02DD"/>
  <outline>
    <contour>
      <point x="472" y="681" type="curve" smooth="yes"/>
      <point x="472" y="668"/>
      <point x="461" y="647"/>
      <point x="446" y="639" type="curve" smooth="yes"/>
      <point x="285" y="551" type="line"/>
      <point x="215" y="551" type="line"/>
      <point x="352" y="702" type="line" smooth="yes"/>
      <point x="374" y="727"/>
      <point x="388" y="734"/>
      <point x="415" y="734" type="curve" smooth="yes"/>
      <point x="458" y="734"/>
      <point x="472" y="705"/>
    </contour>
    <contour>
      <point x="257" y="681" type="curve" smooth="yes"/>
      <point x="257" y="668"/>
      <point x="246" y="647"/>
      <point x="231" y="639" type="curve" smooth="yes"/>
      <point x="70" y="551" type="line"/>
      <point x="0" y="551" type="line"/>
      <point x="137" y="702" type="line" smooth="yes"/>
      <point x="159" y="727"/>
      <point x="173" y="734"/>
      <point x="200" y="734" type="curve" smooth="yes"/>
      <point x="243" y="734"/>
      <point x="257" y="705"/>
    </contour>
  </outline>
</glyph>
<glyph name="uni02E3" format="1">
  <advance width="354"/>
  <unicode hex="02E3"/>
  <outline>
    <contour>
      <point x="349" y="383" type="line"/>
      <point x="184" y="383" type="line"/>
      <point x="184" y="411" type="line"/>
      <point x="209" y="413" type="line" smooth="yes"/>
      <point x="216" y="414"/>
      <point x="218" y="419"/>
      <point x="214" y="423" type="curve" smooth="yes"/>
      <point x="164" y="488" type="line"/>
      <point x="105" y="423" type="line" smooth="yes"/>
      <point x="102" y="419"/>
      <point x="104" y="414"/>
      <point x="111" y="413" type="curve" smooth="yes"/>
      <point x="133" y="411" type="line"/>
      <point x="133" y="383" type="line"/>
      <point x="6" y="383" type="line"/>
      <point x="6" y="411" type="line"/>
      <point x="46" y="416" type="line"/>
      <point x="139" y="520" type="line"/>
      <point x="42" y="643" type="line"/>
      <point x="8" y="647" type="line"/>
      <point x="8" y="675" type="line"/>
      <point x="168" y="675" type="line"/>
      <point x="168" y="647" type="line"/>
      <point x="148" y="646" type="line" smooth="yes"/>
      <point x="142" y="645"/>
      <point x="141" y="639"/>
      <point x="144" y="635" type="curve" smooth="yes"/>
      <point x="189" y="577" type="line"/>
      <point x="242" y="635" type="line" smooth="yes"/>
      <point x="246" y="639"/>
      <point x="244" y="645"/>
      <point x="237" y="646" type="curve" smooth="yes"/>
      <point x="217" y="647" type="line"/>
      <point x="217" y="675" type="line"/>
      <point x="337" y="675" type="line"/>
      <point x="337" y="647" type="line"/>
      <point x="301" y="643" type="line"/>
      <point x="214" y="545" type="line"/>
      <point x="315" y="416" type="line"/>
      <point x="349" y="411" type="line"/>
    </contour>
  </outline>
</glyph>
<glyph name="uni02E5" format="1">
  <advance width="418"/>
  <unicode hex="02E5"/>
  <outline>
    <contour>
      <point x="77" y="647" type="line" smooth="yes"/>
      <point x="56" y="647"/>
      <point x="39" y="664"/>
      <point x="39" y="685" type="curve" smooth="yes"/>
      <point x="39" y="706"/>
      <point x="56" y="723"/>
      <point x="77" y="723" type="curve" smooth="yes"/>
      <point x="310" y="723" type="line" smooth="yes"/>
      <point x="331" y="723"/>
      <point x="348" y="706"/>
      <point x="348" y="685" type="curve" smooth="yes"/>
      <point x="348" y="664"/>
      <point x="331" y="647"/>
      <point x="310" y="647" type="curve" smooth="yes"/>
    </contour>
    <contour>
      <point x="348" y="38" type="line" smooth="yes"/>
      <point x="348" y="17"/>
      <point x="332" y="0"/>
      <point x="311" y="0" type="curve" smooth="yes"/>
      <point x="290" y="0"/>
      <point x="273" y="17"/>
      <point x="273" y="38" type="curve" smooth="yes"/>
      <point x="273" y="685" type="line" smooth="yes"/>
      <point x="273" y="706"/>
      <point x="290" y="723"/>
      <point x="311" y="723" type="curve" smooth="yes"/>
      <point x="332" y="723"/>
      <point x="348" y="706"/>
      <point x="348" y="685" type="curve" smooth="yes"/>
    </contour>
  </outline>
</glyph>
<glyph name="uni02EB" format="1">
  <advance width="354"/>
  <unicode hex="02EB"/>
  <outline>
    <contour>
      <point x="302" y="203" type="line"/>
      <point x="123" y="203" type="line"/>
      <point x="123" y="84" type="line"/>
      <point x="53" y="84" type="line"/>
      <point x="53" y="393" type="line"/>
      <point x="123" y="393" type="line"/>
      <point x="123" y="272" type="line"/>
      <point x="302" y="272" type="line"/>
    </contour>
  </outline>
</glyph>
<glyph name="uni02F4" format="1">
  <advance width="374"/>
  <unicode hex="02F4"/>
  <outline>
    <contour>
      <point x="257" y="312" type="line"/>
      <point x="187" y="312" type="line"/>
      <point x="25" y="400" type="line" smooth="yes"/>
      <point x="11" y="408"/>
      <point x="0" y="429"/>
      <point x="0" y="442" type="curve" smooth="yes"/>
      <point x="0" y="466"/>
      <point x="14" y="495"/>
      <point x="57" y="495" type="curve" smooth="yes"/>
      <point x="84" y="495"/>
      <point x="97" y="488"/>
      <point x="120" y="463" type="curve" smooth="yes"/>
    </contour>
  </outline>
</glyph>
<glyph name="uni02F5" format="1">
  <advance width="472"/>
  <unicode hex="02F5"/>
  <outline>
    <contour>
      <point x="472" y="312" type="line"/>
      <point x="402" y="312" type="line"/>
      <point x="241" y="400" type="line" smooth="yes"/>
      <point x="226" y="408"/>
      <point x="215" y="429"/>
      <point x="215" y="442" type="curve" smooth="yes"/>
      <point x="215" y="466"/>
      <point x="229" y="495"/>
      <point x="272" y="495" type="curve" smooth="yes"/>
      <point x="299" y="495"/>
      <point x="313" y="488"/>
      <point x="335" y="463" type="curve" smooth="yes"/>
    </contour>
    <contour>
      <point x="257" y="312" type="line"/>
      <point x="188" y="312" type="line"/>
      <point x="26" y="400" type="line" smooth="yes"/>
      <point x="12" y="408"/>
      <point x="0" y="429"/>
      <point x="0" y="442" type="curve" smooth="yes"/>
      <point x="0" y="466"/>
      <point x="14" y="495"/>
      <point x="57" y="495" type="curve" smooth="yes"/>
      <point x="84" y="495"/>
      <point x="98" y="488"/>
      <point x="121" y="463" type="curve" smooth="yes"/>
    </contour>
  </outline>
</glyph>
<glyph name="uni02F6" format="1">
  <advance width="472"/>
  <unicode hex="02F6"/>
  <outline>
    <contour>
      <point x="472" y="442" type="curve" smooth="yes"/>
      <point x="472" y="429"/>
      <point x="461" y="408"/>
      <point x="446" y="400" type="curve" smooth="yes"/>
      <point x="285" y="312" type="line"/>
      <point x="215" y="312" type="line"/>
      <point x="352" y="463" type="line" smooth="yes"/>
      <point x="374" y="488"/>
      <point x="388" y="495"/>
      <point x="415" y="495" type="curve" smooth="yes"/>
      <point x="458" y="495"/>
      <point x="472" y="466"/>
    </contour>
    <contour>
      <point x="257" y="442" type="curve" smooth="yes"/>
      <point x="257" y="429"/>
      <point x="246" y="408"/>
      <point x="231" y="400" type="curve" smooth="yes"/>
      <point x="70" y="312" type="line"/>
      <point x="0" y="312" type="line"/>
      <point x="137" y="463" type="line" smooth="yes"/>
      <point x="159" y="488"/>
      <point x="173" y="495"/>
      <point x="200" y="495" type="curve" smooth="yes"/>
      <point x="243" y="495"/>
      <point x="257" y="466"/>
    </contour>
  </outline>
</glyph>
<glyph name="dotabovecomb" format="1">
  <advance width="0"/>
  <unicode hex="0307"/>
  <outline>
    <contour>
      <point x="-224" y="653" type="curve" smooth="yes"/>
      <point x="-224" y="616"/>
      <point x="-253" y="585"/>
      <point x="-292" y="585" type="curve" smooth="yes"/>
      <point x="-331" y="585"/>
      <point x="-360" y="614"/>
      <point x="-360" y="653" type="curve" smooth="yes"/>
      <point x="-360" y="693"/>
      <point x="-332" y="726"/>
      <point x="-292" y="726" type="curve" smooth="yes"/>
      <point x="-254" y="726"/>
      <point x="-224" y="694"/>
    </contour>
  </outline>
</glyph>
<glyph name="diaeresiscomb" format="1">
  <advance width="0"/>
  <unicode hex="0308"/>
  <outline>
    <contour>
      <point x="-118" y="654" type="curve" smooth="yes"/>
      <point x="-118" y="616"/>
      <point x="-149" y="585"/>
      <point x="-187" y="585" type="curve" smooth="yes"/>
      <point x="-225" y="585"/>
      <point x="-256" y="616"/>
      <point x="-256" y="654" type="curve" smooth="yes"/>
      <point x="-256" y="692"/>
      <point x="-225" y="723"/>
      <point x="-187" y="723" type="curve" smooth="yes"/>
      <point x="-149" y="723"/>
      <point x="-118" y="692"/>
    </contour>
    <contour>
      <point x="-328" y="654" type="curve" smooth="yes"/>
      <point x="-328" y="616"/>
      <point x="-359" y="585"/>
      <point x="-397" y="585" type="curve" smooth="yes"/>
      <point x="-435" y="585"/>
      <point x="-466" y="616"/>
      <point x="-466" y="654" type="curve" smooth="yes"/>
      <point x="-466" y="692"/>
      <point x="-435" y="723"/>
      <point x="-397" y="723" type="curve" smooth="yes"/>
      <point x="-359" y="723"/>
      <point x="-328" y="692"/>
    </contour>
  </outline>
</glyph>
<glyph name="hookabovecomb" format="1">
  <advance width="0"/>
  <unicode hex="0309"/>
  <outline>
    <contour>
      <point x="-211" y="689" type="curve" smooth="yes"/>
      <point x="-211" y="641"/>
      <point x="-263" y="619"/>
      <point x="-287" y="609" type="curve"/>
      <point x="-287" y="551" type="line"/>
      <point x="-318" y="551" type="line"/>
      <point x="-318" y="629" type="line"/>
      <point x="-288" y="637"/>
      <point x="-262" y="653"/>
      <point x="-262" y="686" type="curve" smooth="yes"/>
      <point x="-262" y="716"/>
      <point x="-278" y="738"/>
      <point x="-293" y="738" type="curve" smooth="yes"/>
      <point x="-301" y="738"/>
      <point x="-308" y="736"/>
      <point x="-312" y="730" type="curve" smooth="yes"/>
      <point x="-324" y="692" type="line"/>
      <point x="-324" y="692"/>
      <point x="-335" y="686"/>
      <point x="-346" y="686" type="curve" smooth="yes"/>
      <point x="-367" y="686"/>
      <point x="-373" y="703"/>
      <point x="-373" y="715" type="curve" smooth="yes"/>
      <point x="-373" y="736"/>
      <point x="-340" y="766"/>
      <point x="-294" y="766" type="curve" smooth="yes"/>
      <point x="-243" y="766"/>
      <point x="-211" y="732"/>
    </contour>
  </outline>
</glyph>
<glyph name="doublegravecomb" format="1">
  <advance width="0"/>
  <unicode hex="030F"/>
  <outline>
    <contour>
      <point x="-99" y="551" type="line"/>
      <point x="-169" y="551" type="line"/>
      <point x="-330" y="639" type="line" smooth="yes"/>
      <point x="-345" y="647"/>
      <point x="-356" y="668"/>
      <point x="-356" y="681" type="curve" smooth="yes"/>
      <point x="-356" y="705"/>
      <point x="-342" y="734"/>
      <point x="-299" y="734" type="curve" smooth="yes"/>
      <point x="-272" y="734"/>
      <point x="-258" y="727"/>
      <point x="-236" y="702" type="curve" smooth="yes"/>
    </contour>
    <contour>
      <point x="-314" y="551" type="line"/>
      <point x="-383" y="551" type="line"/>
      <point x="-545" y="639" type="line" smooth="yes"/>
      <point x="-559" y="647"/>
      <point x="-571" y="668"/>
      <point x="-571" y="681" type="curve" smooth="yes"/>
      <point x="-571" y="705"/>
      <point x="-557" y="734"/>
      <point x="-514" y="734" type="curve" smooth="yes"/>
      <point x="-487" y="734"/>
      <point x="-473" y="727"/>
      <point x="-450" y="702" type="curve" smooth="yes"/>
    </contour>
  </outline>
</glyph>
<glyph name="uni0313" format="1">
  <advance width="0"/>
  <unicode hex="0313"/>
  <outline>
    <contour>
      <point x="-215" y="683" type="curve" smooth="yes"/>
      <point x="-215" y="614"/>
      <point x="-279" y="566"/>
      <point x="-356" y="551" type="curve"/>
      <point x="-356" y="591" type="line"/>
      <point x="-317" y="602"/>
      <point x="-286" y="633"/>
      <point x="-286" y="665" type="curve"/>
      <point x="-349" y="665" type="line"/>
      <point x="-362" y="677"/>
      <point x="-369" y="693"/>
      <point x="-369" y="709" type="curve" smooth="yes"/>
      <point x="-369" y="749"/>
      <point x="-336" y="767"/>
      <point x="-301" y="767" type="curve" smooth="yes"/>
      <point x="-250" y="767"/>
      <point x="-215" y="730"/>
    </contour>
  </outline>
</glyph>
<glyph name="uni0314" format="1">
  <advance width="0"/>
  <unicode hex="0314"/>
  <outline>
    <contour>
      <point x="-369" y="683" type="curve" smooth="yes"/>
      <point x="-369" y="730"/>
      <point x="-334" y="767"/>
      <point x="-283" y="767" type="curve" smooth="yes"/>
      <point x="-248" y="767"/>
      <point x="-215" y="749"/>
      <point x="-215" y="709" type="curve" smooth="yes"/>
      <point x="-215" y="693"/>
      <point x="-222" y="677"/>
      <point x="-235" y="665" type="curve"/>
      <point x="-298" y="665" type="line"/>
      <point x="-298" y="633"/>
      <point x="-267" y="602"/>
      <point x="-228" y="591" type="curve"/>
      <point x="-228" y="551" type="line"/>
      <point x="-305" y="566"/>
      <point x="-369" y="614"/>
    </contour>
  </outline>
</glyph>
<glyph name="uni0325" format="1">
  <advance width="0"/>
  <unicode hex="0325"/>
  <outline>
    <contour>
      <point x="-292" y="-61" type="curve" smooth="yes"/>
      <point x="-222" y="-61"/>
      <point x="-166" y="-118"/>
      <point x="-166" y="-187" type="curve" smooth="yes"/>
      <point x="-166" y="-257"/>
      <point x="-222" y="-313"/>
      <point x="-292" y="-313" type="curve" smooth="yes"/>
      <point x="-361" y="-313"/>
      <point x="-418" y="-257"/>
      <point x="-418" y="-188" type="curve" smooth="yes"/>
      <point x="-418" y="-118"/>
      <point x="-361" y="-61"/>
    </contour>
    <contour>
      <point x="-292" y="-124" type="curve" smooth="yes"/>
      <point x="-326" y="-124"/>
      <point x="-355" y="-153"/>
      <point x="-355" y="-187" type="curve" smooth="yes"/>
      <point x="-355" y="-222"/>
      <point x="-326" y="-250"/>
      <point x="-292" y="-250" type="curve" smooth="yes"/>
      <point x="-257" y="-250"/>
      <point x="-229" y="-222"/>
      <point x="-229" y="-188" type="curve" smooth="yes"/>
      <point x="-229" y="-153"/>
      <point x="-257" y="-124"/>
    </contour>
  </outline>
</glyph>
<glyph name="uni032A" format="1">
  <advance width="0"/>
  <unicode hex="032A"/>
  <outline>
    <contour>
      <point x="-169" y="-212" type="line"/>
      <point x="-224" y="-212" type="line"/>
      <point x="-224" y="-116" type="line"/>
      <point x="-360" y="-116" type="line"/>
      <point x="-360" y="-212" type="line"/>
      <point x="-415" y="-212" type="line"/>
      <point x="-415" y="-61" type="line"/>
      <point x="-169" y="-61" type="line"/>
    </contour>
  </outline>
</glyph>
<glyph name="uni033C" format="1">
  <advance width="0"/>
  <unicode hex="033C"/>
  <outline>
    <contour>
      <point x="-125" y="-188" type="curve"/>
      <point x="-158" y="-188" type="line"/>
      <point x="-167" y="-150"/>
      <point x="-197" y="-137"/>
      <point x="-226" y="-137" type="curve" smooth="yes"/>
      <point x="-255" y="-137"/>
      <point x="-264" y="-144"/>
      <point x="-274" y="-168" type="curve"/>
      <point x="-308" y="-168" type="line"/>
      <point x="-319" y="-144"/>
      <point x="-329" y="-137"/>
      <point x="-357" y="-137" type="curve" smooth="yes"/>
      <point x="-386" y="-137"/>
      <point x="-416" y="-150"/>
      <point x="-425" y="-188" type="curve"/>
      <point x="-459" y="-188" type="line"/>
      <point x="-459" y="-131"/>
      <point x="-426" y="-85"/>
      <point x="-357" y="-85" type="curve" smooth="yes"/>
      <point x="-323" y="-85"/>
      <point x="-304" y="-98"/>
      <point x="-292" y="-116" type="curve"/>
      <point x="-281" y="-98"/>
      <point x="-261" y="-85"/>
      <point x="-226" y="-85" type="curve" smooth="yes"/>
      <point x="-158" y="-85"/>
      <point x="-125" y="-131"/>
    </contour>
  </outline>
</glyph>
<glyph name="uni034E" format="1">
  <advance width="0"/>
  <unicode hex="034E"/>
  <outline>
    <contour>
      <point x="-209" y="-154" type="line"/>
      <point x="-267" y="-154" type="line"/>
      <point x="-267" y="-279" type="line"/>
      <point x="-317" y="-279" type="line"/>
      <point x="-317" y="-154" type="line"/>
      <point x="-374" y="-154" type="line"/>
      <point x="-292" y="-71" type="line"/>
    </contour>
  </outline>
</glyph>
<glyph name="uni0350" format="1">
  <advance width="0"/>
  <unicode hex="0350"/>
  <outline>
    <contour>
      <point x="-81" y="723" type="line"/>
      <point x="-513" y="585" type="line"/>
      <point x="-513" y="624" type="line"/>
      <point x="-127" y="742" type="line"/>
      <point x="-513" y="861" type="line"/>
      <point x="-513" y="899" type="line"/>
      <point x="-81" y="761" type="line"/>
    </contour>
  </outline>
</glyph>
<glyph name="uni0351" format="1">
  <advance width="0"/>
  <unicode hex="0351"/>
  <outline>
    <contour>
      <point x="-231" y="568" type="line"/>
      <point x="-306" y="568"/>
      <point x="-353" y="604"/>
      <point x="-353" y="676" type="curve" smooth="yes"/>
      <point x="-353" y="746"/>
      <point x="-307" y="784"/>
      <point x="-231" y="784" type="curve"/>
      <point x="-231" y="744" type="line"/>
      <point x="-282" y="744"/>
      <point x="-307" y="724"/>
      <point x="-307" y="676" type="curve" smooth="yes"/>
      <point x="-307" y="628"/>
      <point x="-282" y="608"/>
      <point x="-231" y="608" type="curve"/>
    </contour>
  </outline>
</glyph>
<glyph name="uni0353" format="1">
  <advance width="0"/>
  <unicode hex="0353"/>
  <outline>
    <contour>
      <point x="-226" y="-288" type="line"/>
      <point x="-292" y="-222" type="line"/>
      <point x="-358" y="-289" type="line"/>
      <point x="-398" y="-248" type="line"/>
      <point x="-332" y="-182" type="line"/>
      <point x="-397" y="-116" type="line"/>
      <point x="-357" y="-76" type="line"/>
      <point x="-292" y="-141" type="line"/>
      <point x="-227" y="-76" type="line"/>
      <point x="-186" y="-117" type="line"/>
      <point x="-251" y="-182" type="line"/>
      <point x="-185" y="-248" type="line"/>
    </contour>
  </outline>
</glyph>
<glyph name="uni0359" format="1">
  <advance width="0"/>
  <unicode hex="0359"/>
  <outline>
    <contour>
      <point x="-154" y="-138" type="line"/>
      <point x="-185" y="-183" type="line"/>
      <point x="-275" y="-182" type="line"/>
      <point x="-280" y="-172" type="line"/>
      <point x="-206" y="-117" type="line"/>
    </contour>
    <contour>
      <point x="-257" y="-76" type="line"/>
      <point x="-286" y="-164" type="line"/>
      <point x="-298" y="-164" type="line"/>
      <point x="-327" y="-76" type="line"/>
      <point x="-292" y="-35" type="line"/>
    </contour>
    <contour>
      <point x="-204" y="-246" type="line"/>
      <point x="-207" y="-301" type="line"/>
      <point x="-260" y="-287" type="line"/>
      <point x="-288" y="-200" type="line"/>
      <point x="-279" y="-191" type="line"/>
    </contour>
    <contour>
      <point x="-305" y="-172" type="line"/>
      <point x="-309" y="-182" type="line"/>
      <point x="-399" y="-183" type="line"/>
      <point x="-430" y="-138" type="line"/>
      <point x="-379" y="-117" type="line"/>
    </contour>
    <contour>
      <point x="-296" y="-200" type="line"/>
      <point x="-324" y="-287" type="line"/>
      <point x="-377" y="-301" type="line"/>
      <point x="-379" y="-246" type="line"/>
      <point x="-305" y="-191" type="line"/>
    </contour>
  </outline>
</glyph>
<glyph name="uni035A" format="1">
  <advance width="0"/>
  <unicode hex="035A"/>
  <outline>
    <contour>
      <point x="-198" y="-61" type="curve" smooth="yes"/>
      <point x="-128" y="-61"/>
      <point x="-71" y="-118"/>
      <point x="-71" y="-187" type="curve" smooth="yes"/>
      <point x="-71" y="-257"/>
      <point x="-128" y="-313"/>
      <point x="-198" y="-313" type="curve" smooth="yes"/>
      <point x="-235" y="-313"/>
      <point x="-269" y="-297"/>
      <point x="-292" y="-271" type="curve"/>
      <point x="-315" y="-297"/>
      <point x="-349" y="-313"/>
      <point x="-387" y="-313" type="curve" smooth="yes"/>
      <point x="-456" y="-313"/>
      <point x="-513" y="-257"/>
      <point x="-513" y="-188" type="curve" smooth="yes"/>
      <point x="-513" y="-118"/>
      <point x="-456" y="-61"/>
      <point x="-387" y="-61" type="curve" smooth="yes"/>
      <point x="-349" y="-61"/>
      <point x="-315" y="-78"/>
      <point x="-292" y="-104" type="curve"/>
      <point x="-269" y="-78"/>
      <point x="-235" y="-61"/>
    </contour>
    <contour>
      <point x="-324" y="-189" type="curve" smooth="yes"/>
      <point x="-324" y="-188" type="line" smooth="yes"/>
      <point x="-324" y="-153"/>
      <point x="-352" y="-124"/>
      <point x="-387" y="-124" type="curve" smooth="yes"/>
      <point x="-421" y="-124"/>
      <point x="-450" y="-153"/>
      <point x="-450" y="-187" type="curve" smooth="yes"/>
      <point x="-450" y="-222"/>
      <point x="-421" y="-250"/>
      <point x="-387" y="-250" type="curve" smooth="yes"/>
      <point x="-353" y="-250"/>
      <point x="-325" y="-223"/>
    </contour>
    <contour>
      <point x="-260" y="-188" type="line"/>
      <point x="-260" y="-196" type="line"/>
      <point x="-256" y="-227"/>
      <point x="-229" y="-250"/>
      <point x="-198" y="-250" type="curve" smooth="yes"/>
      <point x="-163" y="-250"/>
      <point x="-135" y="-222"/>
      <point x="-135" y="-187" type="curve" smooth="yes"/>
      <point x="-135" y="-152"/>
      <point x="-163" y="-124"/>
      <point x="-198" y="-124" type="curve" smooth="yes"/>
      <point x="-229" y="-124"/>
      <point x="-256" y="-148"/>
      <point x="-260" y="-179" type="curve"/>
    </contour>
  </outline>
</glyph>
<glyph name="uni0363" format="1">
  <advance width="0"/>
  <unicode hex="0363"/>
  <outline>
    <contour>
      <point x="-128" y="566" type="line"/>
      <point x="-250" y="566" type="line"/>
      <point x="-258" y="596" type="line"/>
      <point x="-258" y="596"/>
      <point x="-314" y="559"/>
      <point x="-372" y="559" type="curve" smooth="yes"/>
      <point x="-418" y="559"/>
      <point x="-456" y="588"/>
      <point x="-456" y="636" type="curve" smooth="yes"/>
      <point x="-456" y="690"/>
      <point x="-436" y="717"/>
      <point x="-257" y="753" type="curve"/>
      <point x="-257" y="776" type="line" smooth="yes"/>
      <point x="-256" y="799"/>
      <point x="-265" y="832"/>
      <point x="-318" y="832" type="curve" smooth="yes"/>
      <point x="-335" y="832"/>
      <point x="-346" y="830"/>
      <point x="-346" y="830" type="curve"/>
      <point x="-346" y="773" type="line"/>
      <point x="-413" y="773" type="line"/>
      <point x="-413" y="773"/>
      <point x="-442" y="770"/>
      <point x="-442" y="795" type="curve" smooth="yes"/>
      <point x="-442" y="839"/>
      <point x="-366" y="866"/>
      <point x="-297" y="866" type="curve" smooth="yes"/>
      <point x="-222" y="866"/>
      <point x="-171" y="850"/>
      <point x="-171" y="764" type="curve" smooth="yes"/>
      <point x="-171" y="610" type="line" smooth="yes"/>
      <point x="-171" y="602"/>
      <point x="-165" y="596"/>
      <point x="-157" y="596" type="curve" smooth="yes"/>
      <point x="-128" y="594" type="line"/>
    </contour>
    <contour>
      <point x="-258" y="621" type="curve"/>
      <point x="-258" y="721" type="line"/>
      <point x="-342" y="705"/>
      <point x="-364" y="689"/>
      <point x="-364" y="653" type="curve" smooth="yes"/>
      <point x="-364" y="628"/>
      <point x="-345" y="609"/>
      <point x="-318" y="609" type="curve" smooth="yes"/>
      <point x="-290" y="609"/>
      <point x="-258" y="621"/>
    </contour>
  </outline>
</glyph>
<glyph name="uni0365" format="1">
  <advance width="0"/>
  <unicode hex="0365"/>
  <outline>
    <contour>
      <point x="-240" y="964" type="curve" smooth="yes"/>
      <point x="-240" y="938"/>
      <point x="-264" y="917"/>
      <point x="-292" y="917" type="curve" smooth="yes"/>
      <point x="-320" y="917"/>
      <point x="-341" y="938"/>
      <point x="-341" y="964" type="curve" smooth="yes"/>
      <point x="-341" y="990"/>
      <point x="-320" y="1010"/>
      <point x="-292" y="1010" type="curve" smooth="yes"/>
      <point x="-264" y="1010"/>
      <point x="-240" y="990"/>
    </contour>
    <contour>
      <point x="-203" y="566" type="line"/>
      <point x="-380" y="566" type="line"/>
      <point x="-380" y="594" type="line"/>
      <point x="-351" y="596" type="line" smooth="yes"/>
      <point x="-343" y="596"/>
      <point x="-336" y="602"/>
      <point x="-336" y="610" type="curve" smooth="yes"/>
      <point x="-336" y="811" type="line"/>
      <point x="-378" y="811" type="line"/>
      <point x="-378" y="836" type="line"/>
      <point x="-283" y="866" type="line"/>
      <point x="-250" y="866" type="line"/>
      <point x="-250" y="610" type="line" smooth="yes"/>
      <point x="-250" y="602"/>
      <point x="-242" y="596"/>
      <point x="-234" y="596" type="curve" smooth="yes"/>
      <point x="-203" y="594" type="line"/>
    </contour>
  </outline>
</glyph>
<glyph name="uni0366" format="1">
  <advance width="0"/>
  <unicode hex="0366"/>
  <outline>
    <contour>
      <point x="-123" y="710" type="curve" smooth="yes"/>
      <point x="-123" y="621"/>
      <point x="-186" y="559"/>
      <point x="-294" y="559" type="curve" smooth="yes"/>
      <point x="-393" y="559"/>
      <point x="-461" y="616"/>
      <point x="-461" y="711" type="curve" smooth="yes"/>
      <point x="-461" y="809"/>
      <point x="-390" y="866"/>
      <point x="-289" y="866" type="curve" smooth="yes"/>
      <point x="-182" y="866"/>
      <point x="-123" y="802"/>
    </contour>
    <contour>
      <point x="-219" y="711" type="curve" smooth="yes"/>
      <point x="-219" y="762"/>
      <point x="-233" y="832"/>
      <point x="-292" y="832" type="curve" smooth="yes"/>
      <point x="-351" y="832"/>
      <point x="-364" y="765"/>
      <point x="-364" y="713" type="curve" smooth="yes"/>
      <point x="-364" y="662"/>
      <point x="-352" y="592"/>
      <point x="-291" y="592" type="curve" smooth="yes"/>
      <point x="-232" y="592"/>
      <point x="-219" y="658"/>
    </contour>
  </outline>
</glyph>
<glyph name="tonos" format="1">
  <advance width="375"/>
  <unicode hex="0384"/>
  <outline>
    <contour>
      <point x="375" y="681" type="curve" smooth="yes"/>
      <point x="375" y="668"/>
      <point x="363" y="647"/>
      <point x="349" y="639" type="curve" smooth="yes"/>
      <point x="187" y="551" type="line"/>
      <point x="117" y="551" type="line"/>
      <point x="254" y="702" type="line" smooth="yes"/>
      <point x="277" y="727"/>
      <point x="290" y="734"/>
      <point x="317" y="734" type="curve" smooth="yes"/>
      <point x="360" y="734"/>
      <point x="375" y="705"/>
    </contour>
  </outline>
</glyph>
<glyph name="Omicrontonos" format="1">
  <advance width="755"/>
  <unicode hex="038C"/>
  <outline>
    <contour>
      <point x="719" y="332" type="curve" smooth="yes"/>
      <point x="719" y="142"/>
      <point x="588" y="-16"/>
      <point x="378" y="-16" type="curve" smooth="yes"/>
      <point x="168" y="-16"/>
      <point x="37" y="142"/>
      <point x="37" y="332" type="curve" smooth="yes"/>
      <point x="37" y="522"/>
      <point x="168" y="687"/>
      <point x="378" y="687" type="curve" smooth="yes"/>
      <point x="588" y="687"/>
      <point x="719" y="522"/>
    </contour>
    <contour>
      <point x="559" y="332" type="curve" smooth="yes"/>
      <point x="559" y="482"/>
      <point x="498" y="620"/>
      <point x="378" y="620" type="curve" smooth="yes"/>
      <point x="258" y="620"/>
      <point x="197" y="482"/>
      <point x="197" y="332" type="curve" smooth="yes"/>
      <point x="197" y="182"/>
      <point x="258" y="47"/>
      <point x="378" y="47" type="curve" smooth="yes"/>
      <point x="498" y="47"/>
      <point x="559" y="182"/>
    </contour>
    <contour>
      <point x="506" y="864" type="curve" smooth="yes"/>
      <point x="506" y="851"/>
      <point x="494" y="830"/>
      <point x="480" y="822" type="curve" smooth="yes"/>
      <point x="318" y="734" type="line"/>
      <point x="248" y="734" type="line"/>
      <point x="385" y="885" type="line" smooth="yes"/>
      <point x="408" y="910"/>
      <point x="421" y="917"/>
      <point x="448" y="917" type="curve" smooth="yes"/>
      <point x="491" y="917"/>
      <point x="506" y="888"/>
    </contour>
  </outline>
</glyph>
<glyph name="uni0394" format="1">
  <advance width="639"/>
  <unicode hex="0394"/>
  <outline>
    <contour>
      <point x="635" y="0" type="line"/>
      <point x="6" y="0" type="line"/>
      <point x="256" y="687" type="line"/>
      <point x="383" y="687" type="line"/>
    </contour>
    <contour>
      <point x="459" y="60" type="line"/>
      <point x="269" y="588" type="line"/>
      <point x="81" y="60" type="line"/>
    </contour>
  </outline>
</glyph>
<glyph name="Theta" format="1">
  <advance width="755"/>
  <unicode hex="0398"/>
  <outline>
    <contour>
      <point x="519" y="234" type="line"/>
      <point x="480" y="234" type="line"/>
      <point x="480" y="254"/>
      <point x="471" y="263"/>
      <point x="451" y="263" type="curve" smooth="yes"/>
      <point x="305" y="263" type="line" smooth="yes"/>
      <point x="285" y="263"/>
      <point x="276" y="254"/>
      <point x="276" y="234" type="curve"/>
      <point x="236" y="234" type="line"/>
      <point x="236" y="430" type="line"/>
      <point x="276" y="430" type="line"/>
      <point x="276" y="410"/>
      <point x="285" y="401"/>
      <point x="305" y="401" type="curve" smooth="yes"/>
      <point x="451" y="401" type="line" smooth="yes"/>
      <point x="471" y="401"/>
      <point x="480" y="410"/>
      <point x="480" y="430" type="curve"/>
      <point x="519" y="430" type="line"/>
    </contour>
    <contour>
      <point x="720" y="332" type="curve" smooth="yes"/>
      <point x="720" y="141"/>
      <point x="585" y="-16"/>
      <point x="384" y="-16" type="curve" smooth="yes"/>
      <point x="184" y="-16"/>
      <point x="37" y="113"/>
      <point x="37" y="340" type="curve" smooth="yes"/>
      <point x="37" y="537"/>
      <point x="162" y="687"/>
      <point x="375" y="687" type="curve" smooth="yes"/>
      <point x="583" y="687"/>
      <point x="720" y="526"/>
    </contour>
    <contour>
      <point x="559" y="328" type="curve" smooth="yes"/>
      <point x="559" y="485"/>
      <point x="500" y="620"/>
      <point x="384" y="620" type="curve" smooth="yes"/>
      <point x="245" y="620"/>
      <point x="197" y="471"/>
      <point x="197" y="337" type="curve" smooth="yes"/>
      <point x="197" y="195"/>
      <point x="251" y="47"/>
      <point x="374" y="47" type="curve" smooth="yes"/>
      <point x="508" y="47"/>
      <point x="559" y="199"/>
    </contour>
  </outline>
</glyph>
<glyph name="Pi" format="1">
  <advance width="764"/>
  <unicode hex="03A0"/>
  <outline>
    <contour>
      <point x="733" y="0" type="line"/>
      <point x="444" y="0" type="line"/>
      <point x="444" y="51" type="line"/>
      <point x="495" y="56" type="line" smooth="yes"/>
      <point x="507" y="57"/>
      <point x="517" y="65"/>
      <point x="517" y="78" type="curve" smooth="yes"/>
      <point x="517" y="589" type="line" smooth="yes"/>
      <point x="517" y="602"/>
      <point x="507" y="611"/>
      <point x="495" y="611" type="curve" smooth="yes"/>
      <point x="269" y="611" type="line" smooth="yes"/>
      <point x="257" y="611"/>
      <point x="247" y="602"/>
      <point x="247" y="589" type="curve" smooth="yes"/>
      <point x="247" y="78" type="line" smooth="yes"/>
      <point x="247" y="65"/>
      <point x="258" y="57"/>
      <point x="269" y="56" type="curve" smooth="yes"/>
      <point x="320" y="51" type="line"/>
      <point x="320" y="0" type="line"/>
      <point x="31" y="0" type="line"/>
      <point x="31" y="51" type="line"/>
      <point x="82" y="56" type="line" smooth="yes"/>
      <point x="94" y="57"/>
      <point x="104" y="65"/>
      <point x="104" y="78" type="curve" smooth="yes"/>
      <point x="104" y="593" type="line" smooth="yes"/>
      <point x="104" y="606"/>
      <point x="94" y="614"/>
      <point x="82" y="615" type="curve" smooth="yes"/>
      <point x="31" y="620" type="line"/>
      <point x="31" y="671" type="line"/>
      <point x="733" y="671" type="line"/>
      <point x="733" y="620" type="line"/>
      <point x="682" y="615" type="line" smooth="yes"/>
      <point x="671" y="614"/>
      <point x="660" y="606"/>
      <point x="660" y="593" type="curve" smooth="yes"/>
      <point x="660" y="78" type="line" smooth="yes"/>
      <point x="660" y="65"/>
      <point x="671" y="57"/>
      <point x="682" y="56" type="curve" smooth="yes"/>
      <point x="733" y="51" type="line"/>
    </contour>
  </outline>
</glyph>
<glyph name="kappa" format="1">
  <advance width="629"/>
  <unicode hex="03BA"/>
  <outline>
    <contour>
      <point x="581" y="47" type="line"/>
      <point x="581" y="0" type="line"/>
      <point x="541" y="-9"/>
      <point x="505" y="-16"/>
      <point x="456" y="-16" type="curve" smooth="yes"/>
      <point x="418" y="-16"/>
      <point x="390" y="23"/>
      <point x="379" y="41" type="curve" smooth="yes"/>
      <point x="269" y="226" type="line"/>
      <point x="222" y="226" type="line"/>
      <point x="222" y="0" type="line"/>
      <point x="89" y="0" type="line"/>
      <point x="89" y="415" type="line" smooth="yes"/>
      <point x="89" y="427"/>
      <point x="79" y="437"/>
      <point x="67" y="438" type="curve" smooth="yes"/>
      <point x="30" y="441" type="line"/>
      <point x="30" y="488" type="line"/>
      <point x="222" y="488" type="line"/>
      <point x="222" y="260" type="line"/>
      <point x="244" y="260" type="line"/>
      <point x="368" y="398" type="line" smooth="yes"/>
      <point x="415" y="445"/>
      <point x="456" y="497"/>
      <point x="520" y="497" type="curve" smooth="yes"/>
      <point x="557" y="497"/>
      <point x="609" y="475"/>
      <point x="609" y="429" type="curve" smooth="yes"/>
      <point x="609" y="404"/>
      <point x="588" y="383"/>
      <point x="562" y="373" type="curve"/>
      <point x="490" y="439" type="line"/>
      <point x="471" y="429"/>
      <point x="451" y="409"/>
      <point x="436" y="392" type="curve" smooth="yes"/>
      <point x="366" y="314" type="line"/>
      <point x="522" y="52" type="line"/>
    </contour>
  </outline>
</glyph>
<glyph name="xi" format="1">
  <advance width="462"/>
  <unicode hex="03BE"/>
  <outline>
    <contour>
      <point x="147" y="386" type="curve"/>
      <point x="107" y="406"/>
      <point x="70" y="429"/>
      <point x="70" y="485" type="curve" smooth="yes"/>
      <point x="70" y="538"/>
      <point x="116" y="574"/>
      <point x="156" y="600" type="curve"/>
      <point x="114" y="625"/>
      <point x="80" y="654"/>
      <point x="43" y="687" type="curve"/>
      <point x="81" y="726" type="line"/>
      <point x="116" y="695"/>
      <point x="167" y="653"/>
      <point x="210" y="633" type="curve"/>
      <point x="252" y="655"/>
      <point x="300" y="687"/>
      <point x="348" y="687" type="curve" smooth="yes"/>
      <point x="400" y="687"/>
      <point x="442" y="672"/>
      <point x="442" y="632" type="curve" smooth="yes"/>
      <point x="442" y="582"/>
      <point x="377" y="550"/>
      <point x="309" y="550" type="curve" smooth="yes"/>
      <point x="279" y="550"/>
      <point x="237" y="562"/>
      <point x="208" y="573" type="curve"/>
      <point x="186" y="554"/>
      <point x="175" y="532"/>
      <point x="175" y="494" type="curve" smooth="yes"/>
      <point x="175" y="468"/>
      <point x="186" y="449"/>
      <point x="201" y="427" type="curve"/>
      <point x="240" y="452"/>
      <point x="290" y="468"/>
      <point x="337" y="468" type="curve" smooth="yes"/>
      <point x="359" y="468"/>
      <point x="399" y="457"/>
      <point x="399" y="419" type="curve" smooth="yes"/>
      <point x="399" y="379"/>
      <point x="374" y="360"/>
      <point x="304" y="358" type="curve" smooth="yes"/>
      <point x="286" y="358"/>
      <point x="236" y="361"/>
      <point x="225" y="365" type="curve"/>
      <point x="195" y="327"/>
      <point x="179" y="293"/>
      <point x="179" y="226" type="curve" smooth="yes"/>
      <point x="179" y="118"/>
      <point x="258" y="83"/>
      <point x="309" y="69" type="curve" smooth="yes"/>
      <point x="408" y="41"/>
      <point x="442" y="-11"/>
      <point x="442" y="-55" type="curve" smooth="yes"/>
      <point x="442" y="-134"/>
      <point x="330" y="-218"/>
      <point x="250" y="-218" type="curve"/>
      <point x="250" y="-162" type="line"/>
      <point x="292" y="-157"/>
      <point x="343" y="-127"/>
      <point x="343" y="-93" type="curve" smooth="yes"/>
      <point x="343" y="-50"/>
      <point x="319" y="-39"/>
      <point x="212" y="-8" type="curve" smooth="yes"/>
      <point x="112" y="21"/>
      <point x="20" y="69"/>
      <point x="20" y="174" type="curve" smooth="yes"/>
      <point x="20" y="262"/>
      <point x="82" y="335"/>
    </contour>
  </outline>
</glyph>
<glyph name="pi" format="1">
  <advance width="727"/>
  <unicode hex="03C0"/>
  <outline>
    <contour>
      <point x="707" y="126" type="line"/>
      <point x="671" y="24"/>
      <point x="592" y="-12"/>
      <point x="540" y="-12" type="curve" smooth="yes"/>
      <point x="482" y="-12"/>
      <point x="417" y="16"/>
      <point x="417" y="123" type="curve" smooth="yes"/>
      <point x="417" y="400" type="line"/>
      <point x="306" y="400" type="line"/>
      <point x="306" y="234"/>
      <point x="284" y="113"/>
      <point x="256" y="65" type="curve" smooth="yes"/>
      <point x="218" y="1"/>
      <point x="153" y="-12"/>
      <point x="95" y="-12" type="curve" smooth="yes"/>
      <point x="50" y="-12"/>
      <point x="20" y="20"/>
      <point x="20" y="59" type="curve" smooth="yes"/>
      <point x="20" y="90"/>
      <point x="37" y="137"/>
      <point x="105" y="137" type="curve"/>
      <point x="163" y="75" type="line"/>
      <point x="172" y="75"/>
      <point x="183" y="94"/>
      <point x="187" y="103" type="curve" smooth="yes"/>
      <point x="215" y="163"/>
      <point x="220" y="305"/>
      <point x="220" y="374" type="curve" smooth="yes"/>
      <point x="220" y="400" type="line"/>
      <point x="172" y="400" type="line" smooth="yes"/>
      <point x="114" y="400"/>
      <point x="95" y="369"/>
      <point x="77" y="321" type="curve"/>
      <point x="45" y="321" type="line"/>
      <point x="45" y="329"/>
      <point x="45" y="346"/>
      <point x="46" y="359" type="curve" smooth="yes"/>
      <point x="52" y="422"/>
      <point x="94" y="488"/>
      <point x="168" y="488" type="curve" smooth="yes"/>
      <point x="542" y="488" type="line" smooth="yes"/>
      <point x="569" y="488"/>
      <point x="647" y="490"/>
      <point x="665" y="497" type="curve"/>
      <point x="677" y="460" type="line"/>
      <point x="664" y="435"/>
      <point x="601" y="400"/>
      <point x="550" y="400" type="curve"/>
      <point x="550" y="134" type="line" smooth="yes"/>
      <point x="550" y="87"/>
      <point x="573" y="87"/>
      <point x="580" y="87" type="curve" smooth="yes"/>
      <point x="587" y="87"/>
      <point x="615" y="87"/>
      <point x="634" y="126" type="curve"/>
    </contour>
  </outline>
</glyph>
<glyph name="tau" format="1">
  <advance width="522"/>
  <unicode hex="03C4"/>
  <outline>
    <contour>
      <point x="482" y="126" type="line"/>
      <point x="446" y="24"/>
      <point x="367" y="-12"/>
      <point x="315" y="-12" type="curve" smooth="yes"/>
      <point x="257" y="-12"/>
      <point x="192" y="16"/>
      <point x="192" y="123" type="curve" smooth="yes"/>
      <point x="192" y="400" type="line"/>
      <point x="147" y="400" type="line" smooth="yes"/>
      <point x="89" y="400"/>
      <point x="70" y="369"/>
      <point x="52" y="321" type="curve"/>
      <point x="20" y="321" type="line"/>
      <point x="20" y="329"/>
      <point x="20" y="346"/>
      <point x="21" y="359" type="curve" smooth="yes"/>
      <point x="27" y="422"/>
      <point x="69" y="488"/>
      <point x="143" y="488" type="curve" smooth="yes"/>
      <point x="367" y="488" type="line" smooth="yes"/>
      <point x="394" y="488"/>
      <point x="472" y="490"/>
      <point x="490" y="497" type="curve"/>
      <point x="502" y="460" type="line"/>
      <point x="490" y="437"/>
      <point x="436" y="405"/>
      <point x="387" y="400" type="curve"/>
      <point x="325" y="400" type="line"/>
      <point x="325" y="134" type="line" smooth="yes"/>
      <point x="325" y="87"/>
      <point x="348" y="87"/>
      <point x="355" y="87" type="curve" smooth="yes"/>
      <point x="362" y="87"/>
      <point x="390" y="87"/>
      <point x="409" y="126" type="curve"/>
    </contour>
  </outline>
</glyph>
<glyph name="psi" format="1">
  <advance width="645"/>
  <unicode hex="03C8"/>
  <outline>
    <contour>
      <point x="404" y="488" type="line"/>
      <point x="404" y="63" type="line"/>
      <point x="476" y="90"/>
      <point x="541" y="169"/>
      <point x="541" y="229" type="curve" smooth="yes"/>
      <point x="541" y="277"/>
      <point x="537" y="395"/>
      <point x="458" y="403" type="curve"/>
      <point x="452" y="415"/>
      <point x="450" y="421"/>
      <point x="450" y="447" type="curve" smooth="yes"/>
      <point x="450" y="473"/>
      <point x="475" y="500"/>
      <point x="526" y="500" type="curve" smooth="yes"/>
      <point x="612" y="500"/>
      <point x="615" y="333"/>
      <point x="615" y="267" type="curve" smooth="yes"/>
      <point x="615" y="156"/>
      <point x="519" y="47"/>
      <point x="404" y="6" type="curve"/>
      <point x="404" y="-180" type="line"/>
      <point x="324" y="-180" type="line"/>
      <point x="324" y="-10" type="line"/>
      <point x="319" y="-10"/>
      <point x="315" y="-11"/>
      <point x="311" y="-11" type="curve" smooth="yes"/>
      <point x="162" y="-11"/>
      <point x="105" y="79"/>
      <point x="105" y="178" type="curve" smooth="yes"/>
      <point x="105" y="229"/>
      <point x="112" y="284"/>
      <point x="112" y="328" type="curve" smooth="yes"/>
      <point x="112" y="359"/>
      <point x="111" y="417"/>
      <point x="88" y="417" type="curve" smooth="yes"/>
      <point x="71" y="417"/>
      <point x="52" y="395"/>
      <point x="40" y="391" type="curve"/>
      <point x="20" y="430" type="line"/>
      <point x="53" y="459"/>
      <point x="114" y="500"/>
      <point x="152" y="500" type="curve" smooth="yes"/>
      <point x="238" y="500"/>
      <point x="250" y="431"/>
      <point x="250" y="354" type="curve" smooth="yes"/>
      <point x="250" y="326"/>
      <point x="245" y="275"/>
      <point x="245" y="222" type="curve" smooth="yes"/>
      <point x="245" y="111"/>
      <point x="275" y="68"/>
      <point x="324" y="57" type="curve"/>
      <point x="324" y="488" type="line"/>
    </contour>
  </outline>
</glyph>
